<mxfile host="Electron" modified="2024-05-16T14:38:57.602Z" agent="Mozilla/5.0 (Windows NT 10.0; Win64; x64) AppleWebKit/537.36 (KHTML, like Gecko) draw.io/24.4.0 Chrome/120.0.6099.109 Electron/28.1.0 Safari/537.36" etag="X-Qwiv1nE5xZLvofNu--" version="24.4.0" type="device">
  <diagram id="5uEmLCe5AZyo7dNHgoOY" name="Page-1">
    <mxGraphModel dx="2440" dy="968" grid="1" gridSize="10" guides="1" tooltips="1" connect="1" arrows="1" fold="1" page="1" pageScale="1" pageWidth="1100" pageHeight="850" math="0" shadow="0">
      <root>
        <mxCell id="0" />
        <mxCell id="1" parent="0" />
        <mxCell id="bVUHs7jFZVV0znrBEBwu-19" value="powershell_windows" style="fillColor=none;strokeColor=#5A6C86;dashed=1;verticalAlign=top;fontStyle=0;fontColor=#5A6C86;rounded=1;" parent="1" vertex="1">
          <mxGeometry x="1237" y="50" width="270" height="150" as="geometry" />
        </mxCell>
        <mxCell id="bVUHs7jFZVV0znrBEBwu-39" style="edgeStyle=orthogonalEdgeStyle;rounded=0;orthogonalLoop=1;jettySize=auto;html=1;strokeWidth=2;dashed=1;dashPattern=1 2;" parent="1" source="bVUHs7jFZVV0znrBEBwu-37" target="bVUHs7jFZVV0znrBEBwu-3" edge="1">
          <mxGeometry relative="1" as="geometry">
            <Array as="points">
              <mxPoint x="730" y="390" />
              <mxPoint x="730" y="310" />
            </Array>
          </mxGeometry>
        </mxCell>
        <mxCell id="bVUHs7jFZVV0znrBEBwu-37" value="PowerShell Module Project" style="fillColor=#dae8fc;strokeColor=#6c8ebf;dashed=0;verticalAlign=top;fontStyle=0;rounded=1;" parent="1" vertex="1">
          <mxGeometry x="498" y="210" width="175" height="360" as="geometry" />
        </mxCell>
        <mxCell id="bVUHs7jFZVV0znrBEBwu-23" value="pwsh_windows" style="fillColor=none;strokeColor=#5A6C86;dashed=1;verticalAlign=top;fontStyle=0;fontColor=#5A6C86;rounded=1;" parent="1" vertex="1">
          <mxGeometry x="1237" y="220" width="270" height="150" as="geometry" />
        </mxCell>
        <mxCell id="bVUHs7jFZVV0znrBEBwu-38" style="edgeStyle=orthogonalEdgeStyle;rounded=0;orthogonalLoop=1;jettySize=auto;html=1;entryX=0;entryY=0.5;entryDx=0;entryDy=0;strokeWidth=2;" parent="1" source="bVUHs7jFZVV0znrBEBwu-2" target="bVUHs7jFZVV0znrBEBwu-37" edge="1">
          <mxGeometry relative="1" as="geometry">
            <mxPoint x="497.0000000000002" y="310" as="targetPoint" />
          </mxGeometry>
        </mxCell>
        <mxCell id="bVUHs7jFZVV0znrBEBwu-2" value="" style="shape=image;verticalLabelPosition=bottom;labelBackgroundColor=default;verticalAlign=top;aspect=fixed;imageAspect=0;image=data:image/png,iVBORw0KGgoAAAANSUhEUgAAAS4AAABuCAYAAACZb/6bAAAIAUlEQVR4nO3dv2obWRTH8V92t9h3mATsevoVLgJ2P6UaE/ALWKVBkGqrBYFL+QUMwo3L6S1IYbT9NNvYYIkt9iG8hZJs1o6csebeO+dcfT8wlR3p3D851kij37yR9CgAcOSnvgsAgNeicQFwh8YFwB0aFwB3aFwA3KFxAXCHxgXAHRoXAHdoXADcoXEBcOeXrf5VNdH8bLDhhwudH45Vp/yd11W/WcrnQnes1856oy2/q1iW5YafNGqa9L8TSsrnQnes127aunEBQF94jwuAOzQuAO7QuAC4Q+MC4M7Pkn7f+NNypMnZb/r17z/11z/pioou1LhynR9rWC888fIrrv13GgwOtJeomK1VE81mM402fTL+VKhxeZkf71gvPJHHqWJ9qVsVGp5UfVcCIIE8Gpca3dyupMFx+1ddANzKpHFJzfRKCxU6OKJzAbnLpnFJtS6vVyqGJ+KEEchbRo1Lam5utdJAx5wvAlnLqnGpmepqIRUHR6J1AfnKq3FJqi+vtSqG4gNGIF/ZNS41N1p/wDjiVReQqfwalxpN1+eL4gNGIE8ZNi5J9aWuV1yQCuQqz8bFBalA1rbLnA8lYmZ4M73SYnimg6NSU4sZvinz9lM+jrX7CLSR6/xYG1eb52qp38ZVj3V690JmeLcH1+WptL/f6UHiaTP2UPOT8nFSjiuUXOfH2rgCe9x4lOVjVVWP5Uu/4/EINa5c58fawXpxPDm4WQYAdzJ9cx5AzmhcANyhcQFwJ03mvLWs71zHlSvmOT8d1zRN5nzHxylH60z52WSkKsQFpX2Nq5poNpuEGcPzB9dkNtMk9BW3UWtuyXJWfF/z89r7LFjTcU19nCreP2i5lIrBUGcXXher1Oh4oGL5SXWUC5VqXd5Kg6CRPrFr9q7H+dnx+yy4aFxNPdV4/EGHp+daqNDwYuIv5bQ60bCQFp/iXRPeTK+0CBnpk6Bm13qdn/BfaytHM83nPl4YuGhcXzW1xucLSQO9d9W51n+ZtbrWZdQ9Xmt8eKhxkOdIVbNX/c9P6PssNPfLII+Tgq/GJUn1Jy0kDTx1rvJIB4W0uJqm/zrLtjzWnJKJ+dnd+yz4a1y608NK0ts9N0GB1clQhRbydMblseaUrMzPrt5nwWHjauToFa1UjrQ+o7hMm3jQhceaU7I0PyHvs3D3oMXiVvch6orMYePypTw6UKGFrqZ+Trg81pyStfkJdp+FZqrxeOriE2SHjavU3ltJy3sH771UOhkWNv4yt+ax5pQMzs8O3mfBYePa17tCWj3c9V3ID5WjYw200u2N/Rb7hceaU7I5P7t3nwV3jcvmxvmeUkfrj51k5IyiBY81p2R4fnbsPguuGldZTfRxaHTjPFWdaFisdO3pIiiPNadken526z4LLjLny9FEF8PPv7e61mmYKywj+u/ixE4vDJPmeCesOeW4gtVjf02j3WfB2pqq78bVNqf6/kGL6wd9urlRbfHGF99xf3Wu87u62wcIiXO8k9WcclwB67G/ppHus2BtTT+Ln9FtLes713HlejDP+R0d15TMeQDuuHpzHgAkGhcAh2hcANxJkzlvTa6Z89bqsabN/OzyHDoae5rM+b5sygM3kqX/P2Wl0WSm2WymybYXP3epx1qGeYx62sxPrnu+DUdjz/hU0U9eellNNL8403AgLZdL9fI1TGsZ5tbqccHPnu8q38blJS+9HOnj2fqK7NPDDxqPxz19ncnaV0as1eOAlz0fQKaNq/888LbW2U4rXf/Rf0Ry6AzzrqzVY5ufPR9Cno3LRB54G9bSBqxlmFurxzA3ez6MLBuXlTzwH7OXLWYtw9xaPVb52fNh5Ne4LOWBexQywzwEa/VYtIN7PrvGZS0P3KNgGeaBWKvHml3c85k1LoN54C0U70LnkHRkLcPcWj2m+NzzXWXVuPzEOn9h9R6R1jLMrdVjh789H0ZGjcvaJ3RtfL5WyeJpkLUMc2v1mOBxz4eRT+MynQe+2fpaJWlwZujrNpLsXQBqrR4DnO75EOxnzqfMA+9FrfGpNPl4puHFXEOttDj/oHGtxJnzzz3LMO85ezxapnpK7Pkg7GfOp8wD70tTa/yhVllVOnr/XvpyWVcPOd7/9yTDvPfs8UiZ6imx54OJlgtt9sg1c95aPdaONvOzy3PoaOxkzgNwJ5835wHsDBoXAHdoXADcSZM5by3LOtdxhZLruHK1g/s5Tea8tSzr2OOylt/+WtbW61vfZqqnnGfLa5rr/9MXcKoYA3npkTzJVE85z6ypKTSuKPh6ShTPMtVTzjNragmNKxLy0kP7fqZ6ynlmTe2gcUVDXnpQGzPVU84za2oFjSsi8tLDeSlTPeU8s6Y20LhiIi89jB9lqqecZ9bUBBpXZOSld9cmUz3lPLOm/aNxxUZeekctM9VTzjNr2jsaV3TkpXfRPlM95Tyzpn2jcaWQKC+9HM00nxu9unsrr8xUT5lLTwZ+r2hcSaS8eHGp+1wiMV+dqc4Fqbtiu+jmnrPQo0mZlx4hv33/XSGtbr8mP38Valyhao6YqZ4yJz/ac6VcrzaPY9B2jav3LPRIUualB89vL7X3VtLy/nmdocYVquaomeopc/IjPVfK9XIsfga1tSzrLMdVPU7m88fZqLQzPxxpjiz388sHmfMA3OHNeQDu0LgAuEPjAuAOjQuAOzQuAO7QuAC4Q+MC4A6NC4A7NC4A7tC4ALhD4wLgDo0LgDs0LgDu0LgAuEPjAuDOvzfSt866CqPsAAAAAElFTkSuQmCC;" parent="1" vertex="1">
          <mxGeometry x="157.88" y="355" width="192.18" height="70" as="geometry" />
        </mxCell>
        <mxCell id="bVUHs7jFZVV0znrBEBwu-45" style="edgeStyle=orthogonalEdgeStyle;rounded=0;orthogonalLoop=1;jettySize=auto;html=1;endArrow=classic;endFill=1;strokeWidth=1;fillColor=#0050ef;strokeColor=#001DBC;curved=1;" parent="1" source="bVUHs7jFZVV0znrBEBwu-3" target="bVUHs7jFZVV0znrBEBwu-11" edge="1">
          <mxGeometry relative="1" as="geometry">
            <Array as="points">
              <mxPoint x="833" y="110" />
            </Array>
          </mxGeometry>
        </mxCell>
        <mxCell id="bVUHs7jFZVV0znrBEBwu-46" style="edgeStyle=orthogonalEdgeStyle;curved=1;rounded=0;orthogonalLoop=1;jettySize=auto;html=1;endArrow=classic;endFill=1;strokeWidth=1;fillColor=#0050ef;strokeColor=#001DBC;" parent="1" source="bVUHs7jFZVV0znrBEBwu-3" target="bVUHs7jFZVV0znrBEBwu-20" edge="1">
          <mxGeometry relative="1" as="geometry" />
        </mxCell>
        <mxCell id="bVUHs7jFZVV0znrBEBwu-47" style="edgeStyle=orthogonalEdgeStyle;curved=1;rounded=0;orthogonalLoop=1;jettySize=auto;html=1;endArrow=classic;endFill=1;strokeWidth=1;fillColor=#0050ef;strokeColor=#001DBC;" parent="1" source="bVUHs7jFZVV0znrBEBwu-3" target="bVUHs7jFZVV0znrBEBwu-26" edge="1">
          <mxGeometry relative="1" as="geometry">
            <Array as="points">
              <mxPoint x="833" y="450" />
            </Array>
          </mxGeometry>
        </mxCell>
        <mxCell id="bVUHs7jFZVV0znrBEBwu-3" value="" style="dashed=0;outlineConnect=0;html=1;align=center;labelPosition=center;verticalLabelPosition=bottom;verticalAlign=top;shape=mxgraph.weblogos.github" parent="1" vertex="1">
          <mxGeometry x="795" y="272" width="75" height="75" as="geometry" />
        </mxCell>
        <mxCell id="bVUHs7jFZVV0znrBEBwu-4" value="" style="sketch=0;pointerEvents=1;shadow=0;dashed=0;html=1;strokeColor=none;fillColor=#505050;labelPosition=center;verticalLabelPosition=bottom;verticalAlign=top;outlineConnect=0;align=center;shape=mxgraph.office.concepts.powershell;" parent="1" vertex="1">
          <mxGeometry x="601" y="245" width="45" height="45" as="geometry" />
        </mxCell>
        <mxCell id="bVUHs7jFZVV0znrBEBwu-6" value="" style="sketch=0;aspect=fixed;pointerEvents=1;shadow=0;dashed=0;html=1;strokeColor=none;labelPosition=center;verticalLabelPosition=bottom;verticalAlign=top;align=center;fillColor=#00188D;shape=mxgraph.azure.script_file" parent="1" vertex="1">
          <mxGeometry x="599" y="314" width="47" height="50" as="geometry" />
        </mxCell>
        <mxCell id="bVUHs7jFZVV0znrBEBwu-7" value="" style="aspect=fixed;html=1;points=[];align=center;image;fontSize=12;image=img/lib/azure2/general/Folder_Blank.svg;" parent="1" vertex="1">
          <mxGeometry x="531" y="240" width="61.61" height="50" as="geometry" />
        </mxCell>
        <mxCell id="bVUHs7jFZVV0znrBEBwu-11" value="AWS CodeBuild" style="sketch=0;outlineConnect=0;fontColor=#232F3E;gradientColor=none;strokeColor=#ffffff;fillColor=#232F3E;dashed=0;verticalLabelPosition=middle;verticalAlign=bottom;align=center;html=1;whiteSpace=wrap;fontSize=10;fontStyle=1;spacing=3;shape=mxgraph.aws4.productIcon;prIcon=mxgraph.aws4.codebuild;" parent="1" vertex="1">
          <mxGeometry x="1257" y="84" width="80" height="110" as="geometry" />
        </mxCell>
        <mxCell id="bVUHs7jFZVV0znrBEBwu-42" style="edgeStyle=orthogonalEdgeStyle;rounded=0;orthogonalLoop=1;jettySize=auto;html=1;dashed=1;strokeWidth=2;dashPattern=1 1;endArrow=none;endFill=0;fillColor=#60a917;strokeColor=#2D7600;entryX=0.001;entryY=0.733;entryDx=0;entryDy=0;entryPerimeter=0;" parent="1" source="bVUHs7jFZVV0znrBEBwu-12" target="bVUHs7jFZVV0znrBEBwu-24" edge="1">
          <mxGeometry relative="1" as="geometry">
            <Array as="points">
              <mxPoint x="1157" y="500" />
            </Array>
          </mxGeometry>
        </mxCell>
        <mxCell id="bVUHs7jFZVV0znrBEBwu-43" style="edgeStyle=orthogonalEdgeStyle;rounded=0;orthogonalLoop=1;jettySize=auto;html=1;dashed=1;dashPattern=1 1;endArrow=none;endFill=0;strokeWidth=2;fillColor=#60a917;strokeColor=#2D7600;entryX=0;entryY=0.75;entryDx=0;entryDy=0;" parent="1" source="bVUHs7jFZVV0znrBEBwu-12" target="bVUHs7jFZVV0znrBEBwu-23" edge="1">
          <mxGeometry relative="1" as="geometry">
            <Array as="points">
              <mxPoint x="1157" y="333" />
              <mxPoint x="1237" y="333" />
            </Array>
          </mxGeometry>
        </mxCell>
        <mxCell id="bVUHs7jFZVV0znrBEBwu-44" style="edgeStyle=orthogonalEdgeStyle;rounded=0;orthogonalLoop=1;jettySize=auto;html=1;dashed=1;dashPattern=1 1;endArrow=none;endFill=0;strokeWidth=2;fillColor=#60a917;strokeColor=#2D7600;" parent="1" source="bVUHs7jFZVV0znrBEBwu-12" edge="1">
          <mxGeometry relative="1" as="geometry">
            <mxPoint x="1238" y="140" as="targetPoint" />
            <Array as="points">
              <mxPoint x="1157" y="140" />
              <mxPoint x="1238" y="140" />
            </Array>
          </mxGeometry>
        </mxCell>
        <mxCell id="bVUHs7jFZVV0znrBEBwu-12" value="AWS CloudFormation" style="sketch=0;outlineConnect=0;fontColor=#232F3E;gradientColor=none;strokeColor=#ffffff;fillColor=#232F3E;dashed=0;verticalLabelPosition=middle;verticalAlign=bottom;align=center;html=1;whiteSpace=wrap;fontSize=10;fontStyle=1;spacing=3;shape=mxgraph.aws4.productIcon;prIcon=mxgraph.aws4.cloudformation;" parent="1" vertex="1">
          <mxGeometry x="1117" y="610" width="80" height="110" as="geometry" />
        </mxCell>
        <mxCell id="bVUHs7jFZVV0znrBEBwu-13" value="" style="shape=image;verticalLabelPosition=bottom;labelBackgroundColor=#ffffff;verticalAlign=top;aspect=fixed;imageAspect=0;image=https://upload.wikimedia.org/wikipedia/commons/thumb/5/5f/Windows_logo_-_2012.svg/2048px-Windows_logo_-_2012.svg.png;" parent="1" vertex="1">
          <mxGeometry x="1346" y="90" width="70.09" height="70.09" as="geometry" />
        </mxCell>
        <mxCell id="bVUHs7jFZVV0znrBEBwu-50" style="edgeStyle=orthogonalEdgeStyle;rounded=0;orthogonalLoop=1;jettySize=auto;html=1;dashed=1;endArrow=none;endFill=0;strokeWidth=2;fillColor=#f8cecc;strokeColor=#b85450;" parent="1" source="bVUHs7jFZVV0znrBEBwu-14" target="bVUHs7jFZVV0znrBEBwu-32" edge="1">
          <mxGeometry relative="1" as="geometry" />
        </mxCell>
        <mxCell id="bVUHs7jFZVV0znrBEBwu-14" value="" style="sketch=0;pointerEvents=1;shadow=0;dashed=0;html=1;strokeColor=none;fillColor=#505050;labelPosition=center;verticalLabelPosition=bottom;verticalAlign=top;outlineConnect=0;align=center;shape=mxgraph.office.concepts.powershell;" parent="1" vertex="1">
          <mxGeometry x="1424" y="259.95" width="72.62" height="70.09" as="geometry" />
        </mxCell>
        <mxCell id="bVUHs7jFZVV0znrBEBwu-48" style="rounded=0;orthogonalLoop=1;jettySize=auto;html=1;endArrow=none;endFill=0;strokeWidth=2;edgeStyle=orthogonalEdgeStyle;dashed=1;fillColor=#f8cecc;strokeColor=#b85450;" parent="1" source="bVUHs7jFZVV0znrBEBwu-15" target="bVUHs7jFZVV0znrBEBwu-32" edge="1">
          <mxGeometry relative="1" as="geometry" />
        </mxCell>
        <mxCell id="bVUHs7jFZVV0znrBEBwu-15" value="" style="sketch=0;aspect=fixed;pointerEvents=1;shadow=0;dashed=0;html=1;strokeColor=none;labelPosition=center;verticalLabelPosition=bottom;verticalAlign=top;align=center;fillColor=#00188D;shape=mxgraph.azure.powershell_file" parent="1" vertex="1">
          <mxGeometry x="1424" y="90" width="65.75" height="69.95" as="geometry" />
        </mxCell>
        <mxCell id="bVUHs7jFZVV0znrBEBwu-20" value="AWS CodeBuild" style="sketch=0;outlineConnect=0;fontColor=#232F3E;gradientColor=none;strokeColor=#ffffff;fillColor=#232F3E;dashed=0;verticalLabelPosition=middle;verticalAlign=bottom;align=center;html=1;whiteSpace=wrap;fontSize=10;fontStyle=1;spacing=3;shape=mxgraph.aws4.productIcon;prIcon=mxgraph.aws4.codebuild;" parent="1" vertex="1">
          <mxGeometry x="1257" y="254" width="80" height="110" as="geometry" />
        </mxCell>
        <mxCell id="bVUHs7jFZVV0znrBEBwu-21" value="" style="shape=image;verticalLabelPosition=bottom;labelBackgroundColor=#ffffff;verticalAlign=top;aspect=fixed;imageAspect=0;image=https://upload.wikimedia.org/wikipedia/commons/thumb/5/5f/Windows_logo_-_2012.svg/2048px-Windows_logo_-_2012.svg.png;" parent="1" vertex="1">
          <mxGeometry x="1346" y="260" width="70.09" height="70.09" as="geometry" />
        </mxCell>
        <mxCell id="bVUHs7jFZVV0znrBEBwu-24" value="pwsh_linux" style="fillColor=none;strokeColor=#5A6C86;dashed=1;verticalAlign=top;fontStyle=0;fontColor=#5A6C86;rounded=1;" parent="1" vertex="1">
          <mxGeometry x="1237" y="390" width="270" height="150" as="geometry" />
        </mxCell>
        <mxCell id="bVUHs7jFZVV0znrBEBwu-51" style="edgeStyle=orthogonalEdgeStyle;rounded=0;orthogonalLoop=1;jettySize=auto;html=1;dashed=1;endArrow=none;endFill=0;strokeWidth=2;fillColor=#f8cecc;strokeColor=#b85450;" parent="1" source="bVUHs7jFZVV0znrBEBwu-25" target="bVUHs7jFZVV0znrBEBwu-32" edge="1">
          <mxGeometry relative="1" as="geometry" />
        </mxCell>
        <mxCell id="bVUHs7jFZVV0znrBEBwu-25" value="" style="sketch=0;pointerEvents=1;shadow=0;dashed=0;html=1;strokeColor=none;fillColor=#505050;labelPosition=center;verticalLabelPosition=bottom;verticalAlign=top;outlineConnect=0;align=center;shape=mxgraph.office.concepts.powershell;" parent="1" vertex="1">
          <mxGeometry x="1424" y="429.95000000000005" width="72.62" height="70.09" as="geometry" />
        </mxCell>
        <mxCell id="bVUHs7jFZVV0znrBEBwu-26" value="AWS CodeBuild" style="sketch=0;outlineConnect=0;fontColor=#232F3E;gradientColor=none;strokeColor=#ffffff;fillColor=#232F3E;dashed=0;verticalLabelPosition=middle;verticalAlign=bottom;align=center;html=1;whiteSpace=wrap;fontSize=10;fontStyle=1;spacing=3;shape=mxgraph.aws4.productIcon;prIcon=mxgraph.aws4.codebuild;" parent="1" vertex="1">
          <mxGeometry x="1257" y="424" width="80" height="110" as="geometry" />
        </mxCell>
        <mxCell id="bVUHs7jFZVV0znrBEBwu-28" value="" style="shape=image;verticalLabelPosition=bottom;labelBackgroundColor=#ffffff;verticalAlign=top;aspect=fixed;imageAspect=0;image=https://upload.wikimedia.org/wikipedia/commons/thumb/3/35/Tux.svg/1200px-Tux.svg.png;" parent="1" vertex="1">
          <mxGeometry x="1350.02" y="428" width="62.05" height="74" as="geometry" />
        </mxCell>
        <mxCell id="bVUHs7jFZVV0znrBEBwu-35" style="edgeStyle=orthogonalEdgeStyle;rounded=0;orthogonalLoop=1;jettySize=auto;html=1;entryX=0.5;entryY=0;entryDx=0;entryDy=0;strokeWidth=2;" parent="1" target="bVUHs7jFZVV0znrBEBwu-2" edge="1">
          <mxGeometry relative="1" as="geometry">
            <mxPoint x="252.88999999999987" y="199.16000000000008" as="targetPoint" />
            <mxPoint x="253" y="156" as="sourcePoint" />
            <Array as="points" />
          </mxGeometry>
        </mxCell>
        <mxCell id="bVUHs7jFZVV0znrBEBwu-29" value="" style="shape=image;verticalLabelPosition=bottom;labelBackgroundColor=default;verticalAlign=top;aspect=fixed;imageAspect=0;image=data:image/png,iVBORw0KGgoAAAANSUhEUgAAAbgAAAC6CAYAAADcdVgMAAAAAXNSR0IArs4c6QAAAARnQU1BAACxjwv8YQUAAAAJcEhZcwAALiIAAC4iAari3ZIAAERZSURBVHhe7Z0HYFTF9vDP3N0k9F6lSVGfdIgiIhqxUWyAYHso+uwIKk1R/0/ke88OKhYU7AUbKAiKAX1gBKnSmyJFkBYIPUBIdud8Z8puNqTsJtkku8n5JffOOWfmzp079+6cO7cNMAzDMAzDMAzDMAzDMAzDMAzDMAzDMAzDMAzDMAzDMAzDMAzDMAzDMAzDMAzDMAzDMAzDMAzDMAzDMAzDMAzDMAzDMAzDMAzDMAzDMAzDMAzDMAVC2JAJoEPfN5qgkP9EgV0BoRGABAp3gvQuAHRNXv3t0L9sUoZhGCZCYQcXQOd+48qnibhnEeRggeBWXg0RKYYmHUile8k6IdaTOmr5d2NO6AUZhmGYiIMdnCW+/8SqXshIpArpTA6MnJlxbNkcnEqs7BKXemOcnhumDj+oTQzDMExEwQ5OMXq002FDnZlUG72UYwvFwZl08hTNfqE0iRK8iRtmPLGRqtQkYRiGYUoUdnBE+34TbhUOTtZKvhycCX1pJcqdAvEHFCLR7aTPXf3tmMM6OcMwDFPslHkHd37/N+plCGeuADxXGwIdl5JsqP6DObgsy0n0kryQOnSJDojZa8/zroQxY6RenGEYhilyyqyDi793Yow8KgeTLxpNalXlvDSBjks7KrkGyfsJhHb5cXBG9PkzikHcR7PZaoqFuDmrEp/cbyMZhmGYIqBMOrgON719uQAxnnpXrYwvUrPsDg7RO27110NHKHO7Pi8/S8bHKUYlypKOlt1IDkw5rM6kxJp4FZXFwenQppcUrEAhE11eTCx38MDS5csnZZi0DMMwTDgoUw4u/raJjSHDNZYcS3/la+z7bcr9KKej0/gcFzkkT6xwGi2bMnivMrftM6EOwMndJLrMQiadDlFuXzcjrdk511WoGAPyCpSeHpTuKoo4Uy2r0md1cHZZHaV6hXiEbD8KFImOcOasn/PM3yaSYRiGKShlwsElDPygXKpHDkeJTwjACtq5aP+Su4OjcN6qqQ9dZoyGtn3GzabgKrOQP52Rpeyy7rsnFpmUGtH6mtHnSOnqSevpQWkuptou70+vllUYB0ehkVUkQT1CmEX22emeigu2J41J02kZhmGYkCn1Du68W96/Vjr4ikBorr2Iz7lo/5JnD+7+1VMfmmiMhra9x/4LhHjPLGTSqdBOr62d+fjDNmk2GvYbWr7y8UqXCkTq3YnutOw5OiKbg1OizVNJUp6gcC5ps6UXErckvbJZJ2IYhmHypNQ6uAtuef8sryNeJbGXdhTWYSjHgSDTafYGyXeSsbpxKJkOTqLMiPWI+sumDzlgjIY2t06oLk6c3AsCY00+Jj8to9y9ruOpRqE+KXn2lU82dQnoQUt3J0fbjUxVcnJwJm8rq7mUW1BgIvnmxFjw/LwhaUKqjmAYhmGyUOocXMv+X1WqWO7kE+RwhtPmaUeknIPPSaDEOY5LPITSW5ts87UP0bNAB4eJq6cO6WkMWWnTZ+wMqrRrtePRy9mJZCmg2/pvH//ZpAyd+PiJMam1tl5EGfSgclAPD9uQ2VF56vXY/BX+B1f0euUpChYohycRZm/7pdZ6AH4VgWEYRlGKHByK826bfCOAd6wA0TCLI1DOB3GbQBy2/PO7pytzx5snvU49J/WaAP1rZ6HMOr0EeefqKQ99aAxZadN33K2Uz2SVLpuDA5y4fsYT95uUBadlwoh63lhQ9+1ogsvJwdVS+SuyOjhbBjUpmXqRFPzgACameTxzdy5+jz8jxjBMmaVUOLiOd3zaxuWF12hrLvU5Kp8joPCkQHihYox4IemjO/XDGgkJ89zH6m3aBQLraN+gZza9lGkucbze8imjjmjDaZxz3QuVY13OXsrTPqxiJ5LJie6vdfTUGUlJYzwmdRgYPdpp8fPRTsKBHgKwOzm782k7Xb71ZnFwNtSy/ii0XELLJKJ0Erc1PLwCpkzxmkwZhmFKP1Ht4NoN/KBaHMQ9Tc35g9SrcqumPquDw2muDBi25Ms7swxv0+Gmdy8XQv6U80Mm8tuVU4b0NkrOtO394hSqun6BDsXkopwc9Nww84lEkzL8tLxqaI2MU96rUGB3Wm93MtVX61ZlyF4eFfgddwpZ5tA2JwrpnrNtyXvJOoJhGKaUEp0ObjQ6nbZ/fge1488JEHWMowpo0BF/9yI+vGLyHdSgZ6fDzW+/I8C5O0cHJ+UtK6cO+cIoOdP2+hdvACGmZncoFEr8aN13T95hUhY54qxug9tSX03fu5OAF9IOjcvJwen6sXbl7UhcpZ0duhLLpx5fsmHDlHSTkGEYpnQQdQ6u8+1fdpIOvk4F72QcjLIaB0fzo4De/2L5tFeXT7ovxy+DtOz/VWw512H18nb1bA4O4bg3rnLdNZ/eftykzpn4a0ZXyHBVTEYBlbQzsY5D/0k8fMpTqd7mxIdPmdTFR8uEQZVOSe/lVIwe5MzU+3rNVLk0VEa/g1Pl9MnqX8qj1CP8iZzzbMcLs/9a+dl2tQjDMEw0EzUOruudX9bOEM6z1Aj/CwQ6usG2DTQ5NdVif+aRMHLF5Nv2mCVyJv6Wd3pR4u/1cqc5OHKRX636ashNOmEQ2lz/0idUjgGqHHrSuVgZvX3WffeUfpilJGl2yX1ngVf2QvSqL6tcQsWroMqpyxrg4My2K0HL9Id/0IExi4TZGOudv3Px1JMmkmEYJnqIeAenHgg51eLA/dQg/4fUaj5nokLdKEtcJRCHLPnknwv0AkHoeMs7H9PCt5n2PKuDE1L2XTF1yDSdMAhte79wDYKYaRyaysyWx+hfrPvu/24xKSODFj2GxHmOHLuUxO5C9fD06AmqrGTJ6uCM5NsuxJMU97MEmYgeb+LuNdM36XQMwzARTkQ7uAv/Nf0SBO/rVMq2qrH1OxAlSXlQCPHvxsediVOm3BjS04Gd+40rn+6uol7UrmJa8UwHhyiPpB711A310mKLHuPjypVLU09T+p2uv3yIqXGQUXf5d2NOmNSRx5kX3toEZEx3qkjl7C6jQlfVEac7uKzbpeRt1LNLdBxIPFHeO+/AwhnHVHKGYZhIIyIdXOf7ZjYAj+clckQ3U6NqymgaVwqkGmftPfTGPrHsk75ZvjQSjA63vtPXQfha5aP+s/TgJH68csqggTphiLTp/cK7tOhdqmwmF5WZlRFvXv/dv7/UCSOc+Ph7Yw44qRdSH7aHAKleRWhPZn0ZOMt2aV0FVG8mTKfpV6rTRDrhmL1r/Xlr+UVzhmEihYhycD2GzIo7cjLjEWpQ/08AVlI2X2OqGldqeBeRIxqy5KMblxtj/oi/9d0vKZMbTYOtLIE9OO/Vq74aPEsnDJHW1z5/pXDEHFU2m4sup5YRp5GD66sTRhnNLhxQJyM9vQeg6EEnGVfQ9tTW23Wag/Nf2tRmvc17UL+GgLPBG/fT7t+n5+sEhGEYJpxEjIO76J4ZPaWAV6mVPFu3mFkb073kgB5f8n7/j6jIJiKfqE94lXMfTc5pNAGJMqVqcnL9/L6gnZAw2n2gavndVIm1VUYmX5UxSRJPelyxdf+Y8ViUX8Ib7TQ8b2M8SE9P2qzuNHWi7XPrqNMcnNr2zDpQryLgUuqAJ9K+S0xuXe03ftGcYZjipMQdXNcHvmvm9cpXBIjrVCNJjSJZbSOJmCER3sCK5Z5e+nqvo2aJghF/83u3gIOfZTbCyurrwcl3Vn456F6dMJ+0vu75N6kSB6lcMht3kz8554Hrv3/qY5OydNCk3fXVPMK5ksQe5MO60/lGA7WtdoNpbsLTddqvB0lQvd1ED6TPSfl9fp5PuzIMwxSWEnNw8ffOqBAn3KPIyYwktZyvUfQ5OJRyrkt4H/r13f7rVfrC0vGW96YLgdfrxlY3uspqHBwIefmKLwbNVZb80ua65y6hDJJ0mXW+pvxGlD+Qg+tlUpZKRMM217emflwPqkv1KsJFtNX+F80z61rpymJl9SICwGqaJQrwzq7pqrOQXzRnGCbclICDQ9Hl/tl9BcpxtPYmWRtBkqTcQcLwRe/2nqqThwE1zE0sxO2l/AOGuVEx1DQj7mkhazYK9UnMbIwe7bReWW47VWTDwO0wokzHDG/9DXPGlImPHtdte2VFF8RdhlK/d9ddIDajOhGmTlSV2Prx7wNlV6FMpZ76T+q7mULAnORN87fpBRiGYQpBsTq4rvfNaonCGU9rvSKzcTONHTmDNFLGpYN4dvmk68L6eH3HWz+4Q4D8IHB96l/34KR8Y8VXg4bohAWk9bXPv0y9w6EmX5WxyV/dP6Tgvg3fPzXJpCxbNGrVo7kHperBqnt3CSjQ/+WXrHWVRSdR/knzH2jnJLpPZPyyZ8/yiH3dgmGYyKVYHFynIbOqxHpcT1HL9TCt0H4UOUvjNhNk+tCF7/TdoqLCTfw/30uklXQPWJ8WlYMTErsu/+qBX3XCAtKu9/OdpMQlJl+VsclfOTiaz13//ejLdcIyTMuW/WNT8OAltP97UJ33oH5dS6ogUk2dZa07rVGoH2JJA4lJoMa884rZB7cv2aiiGIZhglG0Dm70aOeifV0HCAdfoJaqnraZXo1txPBPmj2ycGKvfD2enx/a3/lebVe62E3rc2c2nipU/3LHys/vOxOo+2WTFxAUra97npwzNs1spOnfbKsH0Ntow6wx6vuXjKVBi4SGGY6rhwB1ORMvp3o67Ss1SlQnCCr07TMdblcvmqvLmdIF8w5tXZ7jsEYMwzCODcPOxQ/+1LFrysXzHUeoR/uNc7MgYiq1VE9UiYE2RencFK5TeIPqNVo1KwhTCu/cFEJ1RXIcgcCsW/S3KmPZtTlp575Nc99N3pTUL7m+qI3gvZhOCJ6hqN9oyvV+KNVnEyHgPhKmOR7cX6Nx+6SajdqPqtqkbQeKLrLjmWGY6CPsPbjLH1xS85Rz/L8g8V5qiAI+iqwnQn6V4cERS9/ttdMuUqTE3/r+z1SOBFoxaf5egBbBEeet+OyeAr00fjqtrn6unXDhKr2dNn9ziVKJ8tcN3z/dVStMUOq16FpbguwuzXh3VwrEuv5jiMLMfanr1tpVIJPJkEjS7AyP66fUvav26wiGYcok+XJw3Yb/2gSlowb6bCSkdJnm215GkhSqkaYl3kRhjewORbdGq+jkfIHU7ZGe6eV0I2UUmx3F6ZCaORWouU5uNF+8L9YoNj8TofOkbpVD9vuVo82hPOk0m6TWr3MJXF6hnZNvDRRnEhlNbauR9L/PLlHeRxUa47P7HJwSaP1vI1WaridjM6FvHf48qdxazIy3CbSmljNSoN1noWV8Nn+cCbPUuY3317ted0B5tBgYpzB5G03NfQrZA9KfnqfWArbNBCbU5c1xXb46UZH6KcyO1EnuRGldaoHcHFzg5W+l0N9vKPA30imR+VdLKPQatK5mWlD5qgySab3TUw/u2KCNDMNELSE7uIRhS+4WKN8kMVY3EtSImMZENQ5KV/8kG6NqLKzd71BUBIVZGqHT4rMupwhwElnSZeoqUq1XaxT6GqvM5VSi7OVRkaa8Rs95PYGNqb/sNt6fzpfWp+tQiTZPFeO3m0mn1VEqT2UzsjZpXRt06F9WzQPKqeO0PUC2dmVT8yzbZe06zifrwJZBoWUVqjgdaeL8ugp8eQaU3abxp82mK4uV80zn05UYUPaA+MCy5+HgdBi4nPlX6XWigHxOT0euEeTTqSk71QgWDMNEKXRGHJxuw5Z2oR/9NyBEDveyVKPgI1DOjVDSBJLfPH1yQZfLi1DSBFLay5DfsuSXoix7nqgTv26x5aqtTz95hHtyDBOlhHhTHocIIfgGPlOmQCGHWpFhmCgkJKeFAttYkWHKEq1syDBMFBKSgxMgQrqUyTClCgz1CgfDMJFIiD9gsd0KDFOW2GVDhmGikJAcnJTeT63IMGUGAeITKzIME4WE5OCSXu48GQDZyTFlCPwp9WDlsVZhGCYKyceL3iguHbboVpBiAAhsiFJa54j073uPiib9mpGyKd28c6TfTtK6wvf+kX3HSZ7+DpL6D3i3yeahZjqwLxCreJOviVO6Xs5nQ2xAW1fVl6//nSf1+i/g7z67wrzX5Y83JdPxat0qX5J1UhX61mN1qeoQz1WySacSqlCJmens+o+QbZd/m3WUktR6tKJ1o5h4nQelz9StbPPOrFubpxJtHSnRn59ejxJNnH9SgS6PyU/Fa0kvpwUS7TLWpmpQ69pGcdpsdFM+hW85wqb37y+dJuCYUYHSrN2Ux9h0Wn+etExA/squ8/S/IG7zoEkIOJdCQWVIJ8tmna9eVKVXc6/RBVaj8Ay9Rol7Sd9A0tTU/dvVCBA8AjnDRDH5cHDRRfyADz+mjbtNNXaqJct0DHBk+ed3V9OJwkCb6597mnz/aL0Onb9/PSRmbXjpb/LGWWMGWCNTZCS4qzdMSaMKd9E+2Hx498azbEQ2qtZpfi/tl4l634Ecdmzf9ldMDMMw0Q4/JVYI2lz3wnV0jvCUVRmGYZgIIuw9uIPwfFUPuHsJEK3ojLiSNYcFKuwpAc5mhIwfasGoPD/WXNQ9OHJu51CBlpJYxb8Onb9/PSRyD65k4B4cwzBhdHDUQIgDMPYRynIMqZWNtWigpshDjdHbJ8H1aGMYftKas1CUDu6c616oHCecJShQ3eehPO06dP7+9ZDIDq5kYAfHMEwYL1GSc3uTnNvLJBapc1OQ43JTT25wBcAfJIyPs+ZiAkWsy/UhFeJca2AYhmEikLA4OHJuN5HbecCqxUnCQcgo1i++t+398ihysH2tmhNbqLeWY6+SYRiGKT7C4uAkQIk9aIGAgw/BK2F7KjIv2vYZ14OC/xotO+TYjlOgnF+6NjAMwzAlRqEd3CF4qSn1aFpatdgRIMp7wXOFVYuMVr3HN6ft/IxWmFudIcXdvW7mk2uszjAMw5QghXZwHnDOtGKJQZ6lSMvQdsBLFd3C+w2J1Y0lJ/Dl9TOe/MIqDMMwTAlTaAfnBcxhENRiJyyXWnNDnHC/C0K0tWo2EGDuP+JaPGZVhmEYJgIoUsdQGmjb99XhIOBmq+YAbo+T7pumTLmRP+vEMAwTQbCDy4MON7x6uQB4warZUU9LOqLv8u9GpFgLwzAMEyGwg8uFDn3faCJBfEG9t9wGe0WB4v610x5bYXWGYRgmgmAHlwOd+40rj473GyGgljVlAwHeWDPj0Y+tyjAMw0QY7OBy4KSIfRtAdLRqdhDn1ziUOsxqDMMwTATCDu40OvR7Y7AAuN2q2UHYKb0x/ZOSxnishWEYholA2MEF0PGmCRcjoPqeZm6kgZT91s18JNnqTDQQHx9TvcG5varWP/utqvXPWVWl3lnTq9RrMahC7Sb1bAqGYUoh7OAsbfqMb4gSpwghYqwpGxLEkDUzRi6xKhMFoIB6Vfec+AsRvxfg3E+WdgLE9TS96Xbcf9MJzVCblGGYUgY7OKLJwNHlXG73VBBQ15qygQiT1k4b9q5VmSiBHFklAXCGVU9DuEGIf1iFYZhSBjs4osbJuq8JARdYNQdwkcfdYIhVmAineqOUG8h55fvYRhRXArSMtSrDMFFOmXdwHW96+146i7/HqtlB2OvExPTbMOVGHiEgCqjaoF03QPEpidRxyx+0QM9KtVInWpVhmCinTDu4Dre8fSF5sNetmh2EdJTQf+UXQ3ZbCxPB1K3btqJw8CN96bGACCHuqFSnSR+rMgwTxZRZB9exz9v1hYSp1KTlfklK4NA10x9ZYDUmwsmIxXuoF9bIqgVGSPx/KjAawzDRSqEdnAuwxD8yTBshrRgSLft/FYuxzlfUhOXy8IECP1w19ZEJVmGiAARxvRULS+uqdRo3tTLDMFFKoR2cBGeHFUuSv20YFEQUce4jLwsBXa0pGwj426GKBx+wKhM91LdhofFi+PJiGKZkKLSDqwvDN5ND2GzVEgBPxQD8zypBIcdWWQA+aNUcwH1ukDds/2hMmjUwUYJA2GfFQiPQG7a8GIYpGcJyD06AeMaKxQ6CeKcK5Gu4mlzvrZCj9gjh3Lx8yiOR0Ctl8gntv3DdL917LGXXFiszDBOlhMXB1YQRH0nAyVYtTn7zAI6ycqGhHsCjK756cJ5VmWhDOOoYRKMUHBTwOQX5uq/LMEzkEaYeHGBtaDKQQvX0WZFf2qMWTJJD/RQg5vL6MPK4NReWz1ZOGfyKlZko5NDfq9cD4ndWLRiIaTEe96tWYxgmign7o9DJ8GI9B0RfAaIVqbl+17EgkFOTLnC2SPDMqA2P/WHNORI/4MOPaeNuU9/YUi4Rbah09af+9Um6FnGVc9y5aPl3951Q1sLS6pr/HKbtr4ro6wSY9dPf5I2zxgywRqYIqNGk1bnocVZRdzw2c1+rnW32Odp9rmbZjwk1yeeOpex4QqVgGCa6CbuDixRCdXCkHvB6nfPXTL13m7KEA3ZwJUu1hq2fon0/JnNf+/a9+s/dwdH+2pQa520PO3eeVCkYholuyryDo3A3NXrbQGpDZjodp5tDo2vB2PTyCu3ASNaqtaskQl4gENzs4EqI+PiYaslpv9A+6Kz3iW+f6n+1g1Qis0+MUckyXUjR9eiBbctULMMw0Q87OC2qmXVG/niVgCT/ciqgHp9KY+P96XxpfboOlcgOrqSoVu/cJsJxVqDAGln2SW4ODmDosX1b+d4bw5QiwvKQCcNEGof3btxOR/etJAb90g45ui/JuY23KsMwpQR2cEyp5dDO9bPJfT1l1dxYW8E5cReFul/HMEzpgR0cU6o5vGvjc+S5vrdqFhDwGHplv+Tk5HC9asIwTATBDo4p7aDH47oLEY5Y3Y8AePxYyrZNVmUYppThsmGp44y2vftQA9bOqn7orN0LiGtIUN8aTFYTNX46pFg90Rm/1WlCY6P0Vg+Is+lJPkRTLZpOI9tVr7UpfyZ9Y2UmF2gfiafhjBiAeEiCpEJfOsw4vu94+Uq1d6HAVFLbUYYraL9OPloz7iXYv7/ER8NgGKZoKINPUcKR5Z/fXU0nChNtrn3uLarJ+/WzeJnrIZGfoswPyTC6kgsqP03i7TTVpvo6TPtwAYKYmQGnpp0BT+7XCQtI1TNadAB0VoDEt44k/6k+uK12FsMwpRS+RFlIWl3//F0gxP1WZQrIDhhXnpzbHBKH01Rb2QQIOhER15CTmxgDcbv3w0szD8DYm3bBxAoqvsDQ/qpSt8W2ynWbP12jRosq1sowTCmDHVwhaNf7+U5UgW9alSkEFQD/Q8GFRssOOTk3ObxrqMv1RRwc27sfXnx/P4zrhjA65GMYM+Ao9dlmk7iMMjyD8hud4cY1Fes0bWNSMAxTmmAHV0BaX/tMXS86X1PTG2dNTAHZAy/VIfcz2KqhUFmAc6cAnHsAKm87AC89kwKvnGvjcuXo/s1bjuzd1IOmC7woGwLiB0JAExeKH8vXbJTH6O4Mw0Qj7OAKQPy9E2McJ/ZLahwbWhNTCGKoZ1aIE4XGCOIJAO+GFBi7bB+MffgYvFrXxuXK8eSt+47u2/IvkDiOenN13S73yzaKYZhSAju4ApC+78hYahQTrMoUEpHD064F5Dw6oF9NA8/O5e7Rs/bCC7dQ77CijcuRo/vLPYGI20nsV6F2k3rGyjBMaYAdXD5p13vcACHEQ1bNiRQAPGVlJgRkmI9Ddb/uw0rre84tv/Mz6h3uPQBjP6Te3ZXzYLTbJglgQzr1xL8kwSVQ8EkLw5Qi2MHlg7Y3jO2AgJN0E5oDCOAR0rkFsegHfS1NuADV05NhI014YGrFP+GTihuVWon2y0AK57SBSjv2w0vjDsHYDioiE6mHSqIfA/fgGKYUwQ4uROKvGVsLpPgGhChvTTkgn1j7/eM/WYUJkeow8js6PZhs1ULjosPaQ6cbf7uPWYsPUV+AGOYFWEG9uvXUq3tiLzzXjOz6tQQQmO1rJwzDRC/s4EIgIWG0OyPG9Tn12860ppz4cv2M/xtrZSYfUL1iTUi9nXrHj6qXu625wMSgA60zasIuVypsilEfmckO9epaUvCMA+7N/8ioPUr1yXult/hLRzIMUypgBxcCh2pVf1YIuMKq2aBGea046eYv0hcCAWNkbRj5Ui0o34iq8W4J8DPVa4E/o9Xv+Fk6fLbqUvDmsVtmltssfo85UKFdRl1440iPn/bDS3OSYewdB+H5qjYJwzBRCju4ILS7YfyNAnCEVbNBTechdFx91vw4kr9IHwYEDE6tBSPfqwMjugnwnkk9q8fIvMbEhs4NJ1roXtyCuF0wtMY8OOqk2xiDcnnflP8DRlWZB276Gfw7tSutW7houtIF8IEXXHtTYOzn5Oy6miUYhok22MHlQZt+49oA4vsk5vZUiVcI/Of66Y9usRYmjNSCUTtrwogXa8GIdh4QbanCX6Re3d82Ok/c6MBbBy6HZp6qMKvcNri0zhfwWLUkeKvSKni+8hK4utYUGEHOTfXuXjx6GXTMyPp8CTm6chTcTM5u/n4Y+3UKjOdPejFMlMEOLhfa3DqhuoOuadTS5f4elcCn104f9YPVmCKkHgxfSz27x2pB6pkI4jJydO9TLyzPh0LqeSvCN/uugzuOtwKPQPi6/J8wtvJSeKfiatjkPgidMurDlEN9oHfa2XaJnKGzm74AGW9ZlWGYKCHnnkkpoDCjCfTv/5VrE+6ZScv3DFiOJqkDpZB92trpI25QXk6bAmh1zX8OUw+gKo8mULQgfFDuIBzsTXvldgF4Be2LGBuVjZPCAytjk2GvcxwqYgy0zqgFDbyVbWxwaCcfrwXHqqh7hdbEMEyEwz24HPgT944hB9XTqjmAG9OlHJiTc2OKDwF3ptWE4V/UhhG94iCmEZ1AjKB9s9pGZ6E8uqHLqQbQ9+TZ0D2tab6cm4IcKO9rhoky2MGdRrsbX+tNrdkTVs0O4lEpRN8/Zjx2+ktWTAlSGR5Jrg0jx9WCke0dEO3J2b1KZjUYbZgQv3HvjWGiC3ZwAcTfMvEfAsXH1JjldulWIji3r/tmxO9WZyKQGjB8NTm7oTXhWENydNfR9DWdmRT282mf2JBhmCiBHZwlvv/Eql5vxnQBIvdrVwKeWTt92LdWYyIc6nF5yNHNpKnfCXDOIEf3IE1LacrX5UZKv6smNP7UqgzDRAns4BSjRzsSPB+RczvHWrJBLeL3q9scfdqqTJTRGIYfJEc3gaYLyPWpr5i8QPt0n4nNG+rOjxNwY9YX6RiGiXjYwRHtN9R9klqx662aDWoI/xReGABj+B5MaaA2jPi9Jox4nBzXDmvKi/0ZAJOszDBMFFHmHVzHm9++WgiRe88MIRWk6Lv626GF/kYiEzmkwNjLKDjPaHnyan3gr9QwTDRSph1c+1veOgsQP6XeW871gIjCgX+tmfbIOmthSgkOoPoEWJ4g4GEHPG9alWGYKKPMOriW/d+oJFB8AyByf+lbwIurpj4yxWpMKWE/jI2XIHL9eHYAb9aAUTyEDsNEKWXUwaGIc2I+EACtrSEb1Hn7cVWrQ7m/D8dELbTfH6WJ/vMCU2Mh4xWrMAwThZRJB9fhpnceFUL0s2p2ELZlCM/N/FBJ6SMZxrVAwBusmisIMKkqPHHAqgzDRCFlzsFR41ZJOPiMVbNB8SdQiL4bpg4/aE1MKUKAHCFAuKyaG2nlwcWD1zJMlFPmHJwAoMYt1wZOPVZy7+opg1dZnSlFJMOL9RwQA62aK9Rt/7ASDNtjVYZhopQy+5BJTpB3G7966uDJVmV8kNfvNGRxlYse+rFxwqB5LdR02dCfGnQZuaCyeknepop4XOA8QoEa5y0PMMML+KJVmFJOfPy9MXXbDqjYsHO/8pCQ4LZmJjyIqk3aVatYt1md2rVbVrK2YiXIjfboJffhckjWoUpF5+papJnEeVX2JV+VlDTGo2IKQ7QPl5MwbF4tSIcr0REXU8Hjqdzqyx9qXDyhqspUmhJ0rZ6kcBOZ1Kjbi6X0zl34ds8/VKpI4hC8Us0Dnu20X/IcuJS29ePaMDJoLy9U1CfgPJh+mYNQ11i8AXMfdJxkMZweS/G+Q8lP1jQ6QUAa9EoPOs6aDd//3zKlGmv+SUgY7d5bLq2r8OJZCI4rx/UGBIbMNEaykacv6jNIG+/AAbfbmfv7/94sknufjbveWl1kYHdE5xKqkvYCQb0mVA0FOrqG6AdLwUGy/0W2TVSwlRLx112VU5ZDUlKh24VAGrS6qh0KJ14CxmpDlro5raJs/WRW8ekVSTF5La+wedC56gF3TPq8PZuWp2hDEVCjRosq3nIxo6hObxcCz6CQmmKkEuB6EsYf2bPpA0qWuTlFCDs4CqkB2QHeuPNWTb1rv7IWlmh0cGoMvOQz6l9Px+E9pF5JEzVmvnqydWZEM9P1adBxfp00xA0Oig/TXMffX/Zm34h4UCMFxj1OZXvWqjlCW6B2WCv1pRNjKRzt+715O4J8XQioYurH1pGqLi1rwYQ68NWyslsbkVm/1qYDZVV2v8GE+l/NrA1xQbo4dfOf3z+7yxhC55yrnuwiwPsxic19+flKmFm+zHXpeZZy+uyBuk/22ZVgbQQdO8cRvCO2zp/0tjUVmsYXDIx3UI6g9fWlNRiHorDl0Wv3l0GVx4Q6xsgHafoWpfejnaum/2ISFYyGLa+qIYXzKQjRU63TZKTWk5mlWa/VA8qlJa37JhNkSa8xurFYe0B+1N6dpPbp8ZStS8YbY/iofkYrNWzV/8izqJMHsqiymDhTIppL+Ppocv2bAcJ70pATZf4SJf2g0mjWL1zOLeoYPdq5+JGkfybXr/c7dc++pgO/B03BHsLIEzqxaElnwC/GeMtv73LfD89dce+PVW1UibALJlagn/VQq+YBTguXc+t4w+vXCCE/1M6tJBGiawzE/tCy/+jMhj0E/nHl462pJ/AjZdDcmooHARUFOG81u+ReckaFo2Hnu2o0ueD2jx2Qyyjfm+m4zFcdZCJq0HSnEK6fG7Xvu7phhz7UOBfk0vxoRwrXNO3cShD6fZen4NXazS6401jCRHx8DP3up2vnlgf0m7ihar09/8+qRQr34BD+pK7zfHVaofFdLtEJKEar1qbzUBrp2mTSGFlbdRpyFKqXFhvpPbhuDy84xwvwHh1wF5lto8lsoiprgK7LrgS/7qsLhY7z65mynmtZJtP8wYVvX/21MhU3KfDSYDrUX7dqjtA2UEnleXXgsRXWVCja9399NTUkbTPrTYU+Wa/PJ5hQB77Uym5tRGb9WpsOlFXZ/QYT6n8189kUZEF554ZZYz60hqCcc9Xj39Pvp5fRMvPTeWvBl39gnJqpuY3LcRmf7LMrwdqIzLLjmi3zJ7Yz1vzTpMvA9uDFb+nYbqxXY/P1l0Vhy2OifXaVzoSmLNpIKNko1r5CCjl498rpi7QxBOq16dnTQTHLn6kujxa07MPkn5nGCiat1n2TCbKk1xjdWKw9ID9fDMm7U7YtbUSSr6EqFNUbtLyHcs78bquvrL7VacHqKNMdR551aM/WUL4HW2DYwWlRzew+9serBCT5l1MBOTyVxsb70/nS+nQdKjFyHdylj8wfSK54Ah0CFWxhyWrKrdDb4td12ZXg1016g47z65mynvvy1eCEX9/qNZhO4XyGImcdjI6tC5X/pGOhsTXlCG1DYm0YGZYza3XfTUKG/nZpZr0F1AMFxq4FE+rAl1rZrY3IrF9r04GyKrvfYEL9r2Y+m4IsiO9vmPX0XdaQJ00SRpcrXy79KC0WYyyZ+em8teDLPzBOzdTcxuW4jE/22ZVgbURm2RFPZRyouHPx1JMmJnSaXzAw3iNgLp1omt6zzt7k6y+LwpbHRPvsKp0JTVm0kVCyUfx5oPSSadCu1dND+hj3GW16PUuLqkvlxqDLowUt+zDrzUxjBZNW677JBFnSa4xuLNYekJ8vxnJ2ytYlf1q5MDjVGrTaQCvIHJHFV1bfqrXg00lDHHc0efMIpRUV/BRlWQNRXDp04XO06+lsXjm34kQM6nL/9+pJxmKjHlS+NZhzU1DvLc/7c/nBk34i4k4c81Ogyq50dUnZOreSgdpGb5WjIoenJfKm6QV31aXTypm0vcVwaVhdyhdvnNHmulyH2coKRtxxES6qN2jdgzYuxHqwCLirqJ+uZAdXthCXDlusbiyPMmoJgOLR4nq14Cvorx6UCfpRZWJ+HXhsvpULjRl5AtdbNVJYaMOoQAiRtGHDlPyPwed4X6eF61utyBECYhwn+LuVGgm/WikioI7U3pStPbZYtVCgwBDucWdFgKiW5mT8y6pFAju4MkTC0EVPUjDEaCUDNQj1uu7q1MKqRUoCdOpDa/yHVXOFfmhh6735kfgU/eztxZmSBQE3npLVo2ZEckRMdbxOvi9dNe18eycK+hut+EAhmlkxT3a3rPQDHRGLrRoB4NMAhf8cYbUGrdvSb+hyq+YPIR+ieZH5IXZwZYRLHll4rQAs6JNL1FCLXTSjXg5+R3oi/VBXUkt0zETnj4wYLNRTmqFAjbqggzvox7Ip3coaMHy2VcPGyq8f+oZajvupjkp0LDnaT8sQXT03Jz58ypoiFnJskmYLhJAJfy6cUICvCTmDrRAUWtcxqpvpdAD8F1COpOOATv7kW3SM/0pxaTZZiGBoT2BPmeLFGHkdrWuetZQMCKdoOx8/sHXpRGspJPgwzQp0+ZUcY/NKdZrlOth0YSm114TzeMhEcUTLWlcmdRKjdBVQWmM0NvqX6sVJrdo4bTeS/6nLgOWEwKokikh5yCRhxJJ64PWuo4OpprEElF9jdBP6LLrMf9A0ER3P17++dmW2p53Uu3O76lTrQI7kBuqx3EkbXjczL5uVL18LSjwUU79CnaQx3Yr0HZgDMK4HbcEPVs0VCfLGOvBokQ2JdH7v12umu2UPgb66N7eV/KfNWjAaHa9UZuip68vWoULvqYB6RClHUWLz8EXA8pl4yUJ9IJDr1n331C+Uc2ZmIdD6ssfremJgb+Zu861fSdZo9P9ARvr7Wi8AafQXSMzJ2IObl75+1Kr5Qn2R5EBsegrVYRVdXF1OX1ntjMpsy/9aOXfc//2x8P0cT9DUl01i3aeuppR30UnhFVR/dIib5RWn1YESLt25anqSVUKiwbm9LkBHxqNA8/UUb+Y+NJKZO3SehiDVd1Fdem16nb7JBHqrEBfR/AtjJLw5376k7TmCnvQ5KTtWhOVTdHWatq6bkQ7bKeO4gPo1+MrqL2qgbozaJnH+0X1bLtGGMFMGHRwcWf753bmPARcGIu1F70uHLvqMgluMplD1oA8ti9FNqP7xEKmPzq8x9/1QR1RIGDivnKdixoMC5L8pA/3em87fl6+FGuenF066ZoxVi4z98NJ82gddrZobf9SEYy1FGC7ThIN2fcY9TTU1WteXrjeD3lMB9ehAXPWiHGE+VAdH53BDN/304qvGULI0ufBfdKKFK0xZfeX0ldXOdJnh3e1LP1UfMwiJRuff0Ao9zmg6ae1Hy+v2MrAOiEk7V027T+tFQUKCu95e1wlqqWPMZqi5bzKBKg+1Ne/t/3PB3cZYfFRv0OppOrGlY5bQ9WvLpfCV1V/UQN0YtY3+yY2fd2TPluXaGEb4EmUp59Lhiy6gA/BmqwZH4BohZMf5rye8m5/hgpI+6pb264Srxnm8Ga3oeM35kh/ipw0Onfiv1YqMg/DyxSE4NwJfiBTnxhQWb0hP8DnCk+f7kKfz97Kv1+9cOeVG6kZdRI3xHDq21aVedUnnTzqeh5Bzu9+kLHs0bNi5PLUtg6yaBxj0a0ZSQr4fUgkFdnClHXSeonlIPXU64VpFh1pC0vhuf1lTvlk88dpdv77VvSedlV1LvdaPqVH4kcL3JXh7/Drx6tumTLkx349+5xcJMpR7bztqQuonVmWiHAccewk4KMk2zBfbV05dtHPlN93rOn9Vhjin8s6V087euXr6GxRluiJlkBOQegs1LbWtmiNUORuopx/0qW0BeGP5Gmc1sGrYYAdXilFfKqEDJ8SXl3Gf2+W+hpxbGC59CVzwdo/vFr7dc+DCt3tdtXDi1XctevvasD/IkRP7YWw8/ai6WzVXqIc3lnpvRf4tPKZ4oH0e0oNLHojJ8zNSwVi+fHlGQV4+L4U4UoigvS46s55QASp+RmfPQcbXFDFutyfkh4RChR1cKQZdMQPpwAmp9ybQGTT3lS75/iBv5IGP0wbnuc3UGO47AeJdqzKlAIEQ0tOqjvT+m4fFKTw1GrW+nE4SW1s1R+h3djQmw/loz57lJ8gZqhEE8oTyu6d+/fph/fgEO7hSjBAY2jtBCEk/v9a1RL4TGU6o9/YP2uo+Vs0V8n7jG8NwPgsvRUiE3VbMGyGuanyy4U8NO9/axlqYAiDBCX7PDOGT/fs3pGrZ43mL5sHud9c87ikXtqGqFOzgSimXP7K0Gf2aQ3qhGhFKywCfo8h55XlM01nlEQc8b1qVKSXEoGutFYNCx0iCywurmpx/65zG5908oEm7gUX6VHVpo0aTVudSHfawam5IFzr+39nR/Zu30K8v0aq5I0C9+J3nFZj8ELaMIo2y/ppAt+GLb6Pd+7HZZDVT2+/D6NqCsKfO7l2NiuPhj6LkELxyphe8m0gM8g1FfL4WjHzcKhFFtL0mQOK/vTHuHF4WNiftviAvYl3ekxuSJoSQMjhNO9/xO7Vo5+ji6nL6ympn+pi3NoWtU/rLIHGBQEgElD/taI6r1UvZJlEJE4GvCdRo2OZtFMK8GuEvj5HVn+V/h3dtuMLKmsr1zu7pCJhlkph0Or1P9+0PAdceS96mPihRaLgHV0ohB9vWinlCB9PsaHduCnJuIykI5txOeiAmIt7bKhUI+I/Lk7HPlZGuJ0dN6adocpspxqUnEeOYyS1oAjO5YB+4cF869aibXzxoafNLHuhmcy0wQmDIwwFlRcTQyXA32p4XwBHLG20V+xvH9/+qUcf+d9Rr3y/PpwTLGpXqx9eiNuN2q+YKCpntKsmxvZvmUBD825cSw/ZBdnZwpRQ6Fwrp8qQAXGLFqGUfvKw+rhvKR1vfrwePFOgxcaaoEI4QcL5A8eNZFz9wtTUWCMfrmUDn/4Xev3RyWJ3m/Un4IMaBPY069Euk6aaWLfsXcMDU0kOs23Mf1Y8aMDVXaB/sOLKz7kyrBuKlyKC3B4QQl1Ws0zSkE/RgsIMrrSCE9EV1r5ThGAuqhPEOo1k5I+cM/egy6GB/yapMpCGoPydgAvRXI0AUjM1LJx8lR3kP7e0wvrxPfU0hulP5vjgaK/9q1KHvsIad++XZwJdaWrSIo9/Rg1bLFeoNTwRIyvkVnNi4DxHhhNVyQz36HZYXv9nBlVZEqONhxYT2odgIZReMrUVnlA9YNS8+rwEjt1uZiUhE4+Z76xR4FG/FtsUfzkQQg9RNKWsKG9Tq0kmjGAdp3o0NO/QJ9pBFqaNmeoUbqXeV94kzQprHm/GO1bJxZMfaQxRMNlruCMRbqBdX16oFhh1cKYV+5CGdCcfGiKh+2TkWYAid7VW0ao4ggBTgfd6qTAQjUFa2YoH5a/GHEyWK66insM+awosQTeigmtWgfR/12Tk6/MoE5HMcdaUkT6gypqTu3ZznSbMjMfhTzELEOSiD9haDwQ6u9JJhwzzxeot7VO/wsR9eUI1hKOPbfVsLRm20MhOh0IlIhjvOWWfVQrFj6UffZ0hsSZm+iYDhHyqIujLUmD/ZsF2fV6ylVFO1QbsE8l7trZorwgH1+bI8Obz/z9WION+quYNwHzRpkueth2Cwgyul0OlWSI+RC8gI+/ffigsB7ruokalu1RxRDx/T/3NWZSIafP/3/70Z9MO8obJ72ScH/lry8WDpymhGvbn/0rTTRoUPAQ83aNe72EcIKW4cV/B7YnQisezgzg1LrRqEzHfkckWIOpWOY6Hqlh1cKQVBhPTZLYmQ5+d2IhsZypOT/6sNI5dZmYlM1Guin4kKbjVwZtj5e+EXu7cv/eTf23s1b0Infglkeo3WqB5Xp5OfwkMnWS+36NQjxHve0UetBu3PEiCusWruhPCEpI+jNd3TyCEGHZOO1lvgwVQV7OBKKQJDezqSDqAiGWiwqNkNz9Sm0ofwuSXuvRUV5JVm0uxREvWEIB8lG00kqwlIpskXDyhpIl0vg49KlR5wiCOx/Zb5E/65OfH1oh11fMwY+deyz37ZvnTyw9uXfdZCer1nUTkeoPJMoTDFpso/AmqfTI+9w2qlDq+jvy4SxFfg/sMV0jMHXA3Ghg3pNA8+oriA1lVqN7rSavmmwJ4x0uEvmSztS+v92myymqnt92F0ZaH5KXkK6y9462L1dFPUsA/Gnk2/uD+smiO0fYtqw4guVo14eMDTkmS00+T89RdIdPUGCf2FwKam3m20lrPXgRVIxAW7Vn97sTWEjxL+kknVxm2qO+DaQW1pJWNRK/TXgJZtCV44vHN90GFxAilf85wzYtyev8gNxfjy1aFv7ssbMTE1ZUeIo6JkJWocXPy9X1V1Z0AbRFFfOOgKHOJdvT/on/uHapdqIL6LAyrJF56kM83MS1tmIS1qZIBMdr+WJV3AugOGhjcSzRHfEwgVcnBwvzpS3YQNyNcn6cDIlM6L6OzxAKzd+tMLR7Qxn1z2+KK6mC72ANJPlXI09eDD6JkWHJb0ateoulmOMDHmABzbQWI9Y8mK2kL6v6I2jJxrTREPO7iIQTTqeNOVILxP0u/HXuHIuQ6sQCKm7XLvrALLl4f0cFfIlLCDq96440gBMuBbtWqF/hrQsmo00SObH967Md+v4VSu1+ILaqBu8uWrQ988U5fohdapB7fn+0GxiHZw/ft/5dpeVdwopPruGaoRml3+jdaVrEKVkhyJ1lWUcSp+52LT+xxc9uV0LM0y0xtdJSDJv5wKpA6MHpDOl9an61CJNk8V47ebSafVUSpPZTOyNmldT15yxr9KiRM319r5ZX6/j9dt2OJltIvP8+fnx+g+C5Vt1/GT5c5ePum8YC9gRhQp8OIV1NxPJzHbawJ0YL9aE0YUySjBRQU7uMijccf+D9GWqm0UOdWBFbTsoGy2Y83MbdYYHkrSwcXHx9RIkVso80bWQqgV+mtAy9RuzTi0a/311pIvKtU+u6vjyPm+fHXomwfoxDvH9m+/18ohE7H34C6465tzd1RxL3XQ+UwIkSBCfK+rVCHApe6ROUJMPvtAw9/+kfBQPh8Icb60Qp4IAQ0qljv5tFWjhlrw6E90StCRxE/pZ6B7uvTTUw3/kzVgeNB3dhgmGDtWTHmN2tmPrZon6BKhjioeFdRKkTdQEODcckY4IuirAbmRun/Tr/SbXWPV3EEcUKl+/VpWC5mIdHCd75p6ERVsMTXsqvFiDO29jrPwrMseCfk6v/B4P6GGP8Qb9zj8kod/LtB17ty48P5ZHS68/4eHLrrvh4cvfGDW+dYcVurAiE21YMRttaBxTTrNrbkOUmuT/iydGPhP/ZiywRnn31azaeeBd515wcBnmlxw27Azu/zzHBtVKOgEe5YV80R6QxtVPEoQEkTQk0T6kf1+8O91P1m1IKCDwd+do51QHjJi7rdayEScg+t838wGQri/pQ0qtY/dFhT6oVUGidObXzws6FmVYu5rFyYDyqCfxVFQ3nQsOF8lPDRfXQouFPH3/li16wOJXznCWUGZjidf8yodxEsvuu/771ScTRZWBNzobQzDD3aDMVH9ZRamYDTpfGefWLdrKx3I79Kx/AQdzuNAujacecFtLzdJGFiol4UlBtxozwOXA8esGPVUbxzfRQAEPylFVAOZFupkspyo+BllEPSSu0AcBNAyXx+8jrwenFc+R61VqerqhxUBNYTbG/IApS50PUMHoXokNyjmSSmcnfDQLwV+0vPiBxK7lHd5l5OYfTRxIa6Og1MhXTZlmFA586I72wmBX1Kv/fSTYoeOuaHipFzZpNPtBR6OR4ATyqs08vhJ+NvKUY8jMPiL3YjHnPJpBRyiKJPk5DXHBeD7Vs0dIepXqHHsFquFREQ5uPNv+6YmNbI3W5XJnRvOThgW0vXo/73aaSs6zlirhkIFBPzkkod+nt51yC8trS0oCYPmteg6aM6HCEJ9gqe5sWaHzq67X3TvjEL3EhnGh/DCcHJuuY8FKMQ/yAHOPfP8Ad81jr/1ImUxEcFp2L6f+kSVGdwzD6ix33HgjxmlogdXtXGnphT0NlqeTD64efNRKxcOKVRP0PdUXq6Q483Xi98hJywOLrpnRk8JOEv3ePUTNCrI+enGTF1FUhqtqyj7JGLAcipR4FOMWZfTsTTLeT2Zy6mgmJ+itKF/WTW3aWh+/ZZ542doJQidhy4sXw7EbyRah2XzNQphdBP6LNpGq8GfEZxvUHgXu4TYUl6ePHnYfcxBb80qsRmiOTjeTojiWir7pdSQ0AmTLy8tWdnoGrPexxZOvDrkXmhZIQpH9J5GR+LPxuBrncxcoy/sBegae7XPb86M9yKcktK7+K9fJ662ppBoeuGdGyg412i6XLacvrLamT72tH0diV+6JM7JiMlYu3Px1JMqRSajnSbxa8+W6LqbfnsP0UlZwHtaSjKhT9cWlO/uWj3jHmsIHyXwFGXNMzu+DCioB6dzpsCuS2N0vVoQbQ79vXq9jSg0Veo0Vfc69XMAeo3+bbXo9dIfym7HD+zyH3d5EVEOrstd3w5ABz7RG2Ur1deg+zbO2E1odBVJabSuokz6wOVUotLm4Ei7a/O88cG79ZZLhi5sIxAW0Y+1oj9fG+fTTeizBOpK07JaShdAIPpvqJs4nVBrPlnPffn6IJ22eOSiidfkp1dZLByCV6p5QeY5MkGouMA5Xh3y54SizsEZISBOzdTcxuW4jE/22ZVgbYSy0fE+tVK51DvW/PjpcWvOk6ad/7WKDkg7zI7OWOejBWsyRp27NmnUehE9dDyqS4t76ZhW77CVpyTNKb8aOq0/uVneSNboLzdZELvtWv1tSI1uvihmB1ejRacqIsND9aEu9+qcKbDr0hid/n4+9PfaQo/CHkjlWs16CQe/V7Jeo39bLWa91ALhzOMHd15nrXkSWffghOTxukLEAfGXFUPil1e6rKUDZAAdHvl6ly4LgvpoIFx0VlSop8UEivA3BIVAjUqQAi9N84D3IP2KdoZj8oDn4H546ZtkeMN+AYIJFTq++h1Pq5TrmGLZEDDPSvlHgJtO+prSOi+ko/sS0s+nqYaNDQlybsuKxLmVBBnyX1QPQR/wE7LgrwbkxrGUrbPJh221aq7Q/upVuVaDs6yaJxHl4GIyDi+joyWqPhlVIiAeOSUPLbRayCSNv2g69eLuonOigju5wkJn5wsnXa0ul0YQzmv0s+lNjVzYrmiocwGa+jiQRnkzBeDm5gmDWlg5T9zoGUsHFp2clADqYwyO/iBwaYAOWTnYyrlC7cfOg7uqf2vVcOKlEkywcl64EEMa5DiyHFzSR3emUeWNtyqTCyjgje1JH6VZNV/8/GqXj1B6b6SeXLF/tYTWOTMN5ECrRgSHYUJ1+lUX4fdBcUAKjA/rKy/HTx32XfsuEtJiA26MlRwCvd6Q3p38c/HHuyQ4V1DbEdIHxsMJCvHU7pXTF1m1JAm4llcwajfq2EyAk+sDYj4E4kRqrYvkdRwRm/EB9eJOuyeaA6i/bBWUyLpEScRlHHqBAvWYOZMD5CRWZcjqaiThAvPL+Iu/oYzU02R5fqw4XKgeIx20/1lYt1fv5ZOui6jPgSGkqSfG3EYLP+Q8Yxw4daZV80SGcvWCCtzgJBRpHXaovPkgrafkr6TQtlopKNsXvb/yVHpMezrOxtFvJLzfg8wFOq5f3rVq2rNWLRqSkjx0Qhv8HTEBeY6iHQrS5QT/HSCccsdg6JeP88nRnTvVbYKg7+7SiUVIDjbiHJzqxUkpriZxhbEwmeBqr4Ae25PGFKj3FkjS+K6rUk/EdUREdXmnyBoEyn+jkHDpwom9noIxJEUYJyC94MOkhIgEV0iDeLrBNUfVmFVzhBrvn5OSivZl9in6m6cY0uepipAT5byeJCuHxJ7lk078tfjDEeQQ2lL5vyFT0RxvxvEOIec23BiKFgHmwYu8kCgSrVhgDjSpuIV+r0EcJU7Zt21dslWKBCmEuqyf975DCOnYiDgHp1jy3vXJWDm9K/2Yx5Ea0kvKpRlq8TLowHv1WIUTXbbNfS1sB5f6uPIv47uOROluRflPpqY1nA3nDspvUEy98m1/ndRrgbVFHGfAqL+phldaNezQMby0FgwPafDZldOHqq+lv2u0HEmjH+wTVi5S0iWOprKvs2qxgwKf2LD4vQLdV9u+6KPf/1r88Q1SetvQcT2Rfj/heVeLikV8J91O+50rvwn7Qxa5Ib3Of2hf5DqqCP3Ovk35c/4vVi041Fuk3HLvkSIe8Tri31YrMo7v27aWtul1q2aD9mcKuGNC+sh32G6qFxWd7v66ofDCnULIXnRwqTOz8mTWX/ZWf+pfO3utE77H6G2o7CoRLavD7MvpWJplpje6SkCSfzkVFNNrAigpOZ6knUM7Gmd53fjBljkvF/lXEhKGzGuI4BpI9XIjqW3U9TVTzMDy2pneHoMpv9aP0bI/Upknp3l3zFw+6b5iuVRUWPbBCx0FOHNoc8P8BR1M8QJeWRceXWUNQWnZf3SsK6PSa7Tv1TtV+gRU16+Ue6iKB66bOepHZSsOml3xWNUY4fyXVj6AyqPHUMw8Dnz737/vTYyWbZzfHqj7ZJ9dCdZGAh35WxwUYzYveOtTayw09ePvrVDOdfJq+qVdR9tyOTUf9XWELY9ee2YZ9L+x+2TYSctNkwjv7lr5dfAPAxcBdVte1om6aZ9TeZqZQplCEl+KcnF3J6/5MaRXKkJA1Diz47MCYSTJLlMHetoOjuvmg9tXLDbJihx35VpnvgYC1Uv2piNG5ZAot6Jw+p9I2RHSFb6Id3CB6OFzYitVRHdqBWuy5LFvs9ytCH4MZE2Rw62OoFnk5zg7La1V02JcJ7dW35qa3+FxwkmXBxec4RLpFwvhtKcDS418XJ8O86o0OYJaW2qJjpND2AdC/o0gNgrpXX7CW2sZ9QqjwqmdzlEYWysNZB8HnDq0rYX6XdjTlOQMcKY1gBEFugTa4dpxLbwu75USRRWq/03Hqh//YftHhb80XSD693edva9ldTccD/FeZdbfTai/CPTiqR0L3irqe3+iyQU3NQGvS33I/Rw6nhtRb7G2QKle53BRe64ecDhEdb4THPkHdWmW7v5t6iayUdISJj4+pu7xylfRAdaKyncC3M685I3zwvaidSB1Gp/XzCtkd/IoVagR2ni48qlEOwp3sVK5VtOzUaiTEllFSNh47EDlRIDiLwfDMAzDMAzDMAzDMAzDMAzDMAzDMAzDMAzDMAzDMAzDMAzDMAzDMAzDMAzDMAzDMAzDMAzDMAzDMAzDMAzDMAzDMAzDMAzDMAzDMAzDMAzDMEzZAuD/A5vZeIpHAtumAAAAAElFTkSuQmCC;" parent="1" vertex="1">
          <mxGeometry x="104.94" y="30" width="298.06" height="126" as="geometry" />
        </mxCell>
        <mxCell id="bVUHs7jFZVV0znrBEBwu-31" value="" style="points=[[0,0],[0.25,0],[0.5,0],[0.75,0],[1,0],[1,0.25],[1,0.5],[1,0.75],[1,1],[0.75,1],[0.5,1],[0.25,1],[0,1],[0,0.75],[0,0.5],[0,0.25]];outlineConnect=0;gradientColor=none;html=1;whiteSpace=wrap;fontSize=12;fontStyle=0;container=1;pointerEvents=0;collapsible=0;recursiveResize=0;shape=mxgraph.aws4.group;grIcon=mxgraph.aws4.group_aws_cloud_alt;strokeColor=#232F3E;fillColor=none;verticalAlign=top;align=left;spacingLeft=30;fontColor=#232F3E;dashed=0;rounded=1;" parent="1" vertex="1">
          <mxGeometry x="1087" y="10" width="585" height="730" as="geometry" />
        </mxCell>
        <mxCell id="bVUHs7jFZVV0znrBEBwu-32" value="Amazon S3" style="sketch=0;outlineConnect=0;fontColor=#232F3E;gradientColor=none;strokeColor=#ffffff;fillColor=#232F3E;dashed=0;verticalLabelPosition=middle;verticalAlign=bottom;align=center;html=1;whiteSpace=wrap;fontSize=10;fontStyle=1;spacing=3;shape=mxgraph.aws4.productIcon;prIcon=mxgraph.aws4.s3;rounded=1;" parent="bVUHs7jFZVV0znrBEBwu-31" vertex="1">
          <mxGeometry x="472" y="600" width="80" height="100" as="geometry" />
        </mxCell>
        <mxCell id="bVUHs7jFZVV0znrBEBwu-52" value="(optional)" style="text;html=1;align=center;verticalAlign=middle;resizable=0;points=[];autosize=1;strokeColor=none;fillColor=none;" parent="bVUHs7jFZVV0znrBEBwu-31" vertex="1">
          <mxGeometry x="477" y="700" width="70" height="20" as="geometry" />
        </mxCell>
        <mxCell id="bVUHs7jFZVV0znrBEBwu-41" style="edgeStyle=orthogonalEdgeStyle;rounded=0;orthogonalLoop=1;jettySize=auto;html=1;dashed=1;strokeWidth=2;fillColor=#60a917;strokeColor=#2D7600;" parent="1" source="bVUHs7jFZVV0znrBEBwu-5" target="bVUHs7jFZVV0znrBEBwu-12" edge="1">
          <mxGeometry relative="1" as="geometry">
            <Array as="points">
              <mxPoint x="440" y="339" />
              <mxPoint x="440" y="660" />
            </Array>
          </mxGeometry>
        </mxCell>
        <mxCell id="bVUHs7jFZVV0znrBEBwu-5" value="CFN Template" style="sketch=0;outlineConnect=0;fontColor=#232F3E;gradientColor=none;fillColor=#B0084D;strokeColor=none;dashed=0;verticalLabelPosition=bottom;verticalAlign=top;align=center;html=1;fontSize=12;fontStyle=0;aspect=fixed;pointerEvents=1;shape=mxgraph.aws4.template;" parent="1" vertex="1">
          <mxGeometry x="527.61" y="300" width="65" height="78" as="geometry" />
        </mxCell>
        <mxCell id="Hq9iC43GlKad3WUMeuZp-1" value="OAUTH" style="text;html=1;align=center;verticalAlign=middle;resizable=0;points=[];autosize=1;strokeColor=none;fillColor=none;" parent="1" vertex="1">
          <mxGeometry x="860" y="270" width="70" height="30" as="geometry" />
        </mxCell>
        <mxCell id="bGog2chpQkW4qfJzp0Gv-1" value="" style="shape=image;verticalLabelPosition=bottom;labelBackgroundColor=default;verticalAlign=top;aspect=fixed;imageAspect=0;image=data:image/webp,UklGRugeAABXRUJQVlA4TNseAAAv/8F/EJWK47aNJInOP+zddtVc/4iYgFwsn4nGrRzTaY76xKy3nESbVbmrNRewwIRMtT9zUm/M9Zdlt8k28kdYeTShk1Agi4aJ0RAZcnCy9f3ebW1v22bbtg0HKbezXL333q/7zs+s/5JFBPbjIO2A9F1pGbYUSZaDQNLG/p3/UaAAAHFS/e3Giu7c3GgYbXewEaO7YdhKd5fdHaPsdviUsgjj6PhKdzeHThouJgmSbFuJ+r7ef85V4dI682BHzdbeqNEkE9LD315BL6b2v6ePQcJOkF73UJBgyoBzIAgkbeyf+XxwY2tbFqERVEDsFlvE/J8rhPbO/B1QgDdAD7QAOTUQ/S/shprufNG6wIEkSYrTS/ulXxoq4MR68z8P62vpUmKaZRBVk/hl8erXMjmXCGbxSG5X/LJ49WvZZckRzOKRpV0xzSL/SFq+lruupUQ2y1wYjnK1q4sasyw+mZTra/nj6KNGM8ucM5OljYh6HNHJEmDmeg370EQuy7Iwyct1XRHehesS4b0uZgZR2nlEhPfimiO8x9GEPRcxD/vQRC4L1xLnPa7CpMR958GNaZaJ/Xp5h5HeEtn9R8E7nPz3Dr8h9A4n/71DFbzDyX/vcPLfOwQOmnBAOM7iNvj5MjnDei6Wfiy4g/OIghsMgV94vUOjihN4jzmI1EpEw2rbVVMtWDRlncTb9Bdb7/DDSD1XfAQa22IV1mLVpYJBWmK9w48j9vyTntgWq7UWTCISRLi8w+s2m/pENCMcFvqIxso7/MfJndMJPCcsFjmQIlDe4bepmspENENMidyRGkze4Q0Dq3+emBIJZAiSd3iTcTI5V0yJvNccRN7hXdozxpSdj5oHyDv8/hVMZ2BcyZSpMu/Ni3c889b7denHYgpMJUYCW9H5qDl8vENT6BEoSlPBt5ixb9a11AIFeOAVVrzvROSDaHROP3XCHALGfTBPx5pzWJDHKSw4P4jIB9HY9C7NZEETNWCtdWexoIoC+TikPaA5+bzTxBUAladaOIH18mFo9wCmV7ZLAkPoWnnqldgky/mzkP6Bi3piiiFSQPSc8HTcZLu9UuIOVHqTwUEBefPC4/ZKiT9AEc9wqQmgB5RZ4bAcTt6Eo+Yg6a+Ox6gC2LPD00wYeZMmkIh4h9ik5oIyTx/EoZEtQ7uL8VXM8/kuxtsxX/qxQNrLuTmECWTNAuIdIlEBNlIfqIhBa61fa8AAzkFR5dw5hAkkUXh4hygSwPj3A5Q+GKOv5i81YS6xLXMuLmECecLhHWJMAHylD7qYqzlbS+CeR56zuIQJ5AmGdwiJJtDxFfqAQ23dud8feh5DzvISJpAnFt4hDNW4brCEvkvtub0SVydnh0sTSKKg8A6xR43rV5cQ+pBbfe4bYLiOO4EkCgnv8CLGlSwqfaipP9v2cnK+k9IEkiggvEPYi3ElQqWPJPo3u5ycE84X56pZALxDB4lowGkVUL/F5eQMtncCec+Z7x062A+AcFXQvuJycgbbPYFEwTt8EuPSUL7ycnIGu5InkJ+JTYlyXA50r74SVydnsKt4AvmZ2NQoxuWB76ycQIItTSCJhODkc+KQj8FBcZDtPJxAyovne70RcA96TtkYHJSjgsKHEGt4tF3mybB23NKIpXIOM4F0mDSBJBIA9aTnPIzBQTnaJC6AYqPRiOWeDTSBvJPSBPJtvnk0oDkoR5vEp5I8auZBE8i38eLZgFZC6XMwCakkD0c9agJZM9Z7hz2nJqD0kURKJVmIDDeBJESaQN6zxnuHiYOC0iclgSrJ+R1wAkmINIGsGdu9Q9grKH1C9glUSc7vkBNIQqQJ5Nt071BC6BOSiPYJVEc2CTqBJESaQL4N9w41Sn1CEtEWVWSbsBNIQsQJpNneoYNCn4NENKCGzDDxCSQs3RNIo71DIa+5vgzOCAFVkA5yzmEmkAnbPYE02TsUkogGnNYczggB1Y8Ocs450ARyw9o9gTTYOxSSiAac1gLOCAFVjyXUS1KhJpAb1u4JJC7eIaDaUUC9IhlsApmw3RNIWLxDQJWjgnpB+nETSFS8Q0B1o4TqIzxwAgmKdwioatRQdZRHTiAx8Q4BVZJrYqvaSEEnkCQSJ5CQeIeAKslTj6PKaGEnkCQSJ5CIeIeAKsnjlS2KgSeQJBInkDh4hwqV5PHr6IqhJ5AOESeQ0eYdfhwxWRIMPoG84+IEMta8wyMaBINPIJuDh9vJINK8wxPuCj5gAumQXXhH/1k5zrzDFV6Cj5hAkmjn+SqXv1+IMu9whRyQkvdxAqmvrTpz+THWO9wufC15DyeQ+tpvkSCJ+eOrdzgAASUfwgkkfj66eocZQAFU8EGcQIL7yOodFgtZBe/tBPIJiNKHmsdV77AE5CDMeX8nkEiS+rDlMdU7VAsxBe/tBPI/RzJVSh9yHlG9QwmIFX8x5f5OIK9ZJKjQhzkQFk7vUC2Wq7YlcPZXSu7xBNK8VtKwZ+H0DvVi6SRlvMcTyGSbAk4vjt6hmmcfTcGULC+4SB/oVv8Ky8LpHSrGskEFOB3Vhd3KB66ol9sWTu9QMxbIoGFytob+ayThA45KzXdSXDa9Q9VYII3KydlaJ0D4AFPpu2a+bHqHurGAhPzJuTcvhWYQgAl9G+xl0ztUjgU4HMLSxNybRqUZ80Jfz3FJ9Q5JdxyvKQzuk2YK7fPEJ5AV5JhJYPjeSHmHBIZ9o394WnBl2kyBS9ySnkm9Ocgxk8DwOQ4p75DAc1dg6kz/fErP3zRM6I0kMxeGj1ikvMPzqatwDzknpriIrqm88WH4Xkh5hwSeuRL3kzPo8MM1lKIdENbHehPC8L2Q8g7PJ67Gw8oekPQmhXl7X0h5h+fz1sHDyh6Q8iakOIF5e19IeYfn09bDg8hewfG2cXxtUjdIeYcuGEWbufYQspdwvG0MX5vUC1Le4U08iu7NtYeV/bPjbevztUn9IOUd1sWj6Cc8rOyfHW8bx/eTmCDlHdbFY+gWDyv7BHK8bRwfCVyQ8g7vaOVEjtJ6MoVvbw9PS+fww8p+AEQKHB8bbLxD9VkGNAmOjw0O3qFFHdA0GD4+OHiHBnVAc9Dn4+M4bLxD/VkWKT0+IbURNt6h/ixSHOzyCXH+a2NsvEP9WYTkCnb4hOR84uAdmlQhuU2ZheQmOFx30KI2gco7NKhtoPIO7WknUHmH5rQbqLxDa9oLVN6hHsXdO9SjuHuHehR371CPxox3eM24E7NdiPTWNmaWP+pEgnc4ZpYP4N5hZZhdgLZ32ESZJgJ4e4cfZZpOvL1DF+jSJnh7h6cqbYO3d3hq0k7w9g5PRdoN3t4hAT3aC97eIQE12g/e3iEBLSqAt3dIPLnrLue+cn8cP7m3xsyyT017hxoXTe9Q46LpHWpcNL1DPfqd+XUHoQabcjmqZu7ZZamZ17tZY2Yhpf/eeofwrwQV8PYO4V8HSuDtHV6qQA28vcNLDegAb+/wUhkmFwB+3+HKMH0Av+9wZZjrYsDvO1wZ/grg9x2uC5vA4x3++tSNA51E88KqwzCEWNwu8o7MdQdfdtsFYTJi6t47iZv2XyPNSu8QhMTZCJIFOa4n8Q4/jPTnU/408h2xd70+276PmeWvss/hHerssYA3cH6fi94hqIjBuPfVCoh3GP7O9nQBdQ56h8CBh0n/mzUg3uGIH2yYvACnvncIOioiP7+R8Q4jM0LFW3nvEFz8CT18A8Y7jM2IvDpa9dNPCAEae/SOi3cYnZHze7NQvEiIPnlDxTscM6ObpdrFifBzd1DuOzxuRpvShRWQ8NENIPcdHs1EfghXudDArBslWnDnABevrUsICvcdJkSymM8H3EGL+yWKWWjUuHmEzw7xF2ehGdJs+32HPZmfcA5/ne9EXypM+OrYgOImZIKabb/uoDfzG26e9Xdt+FaXIGFEErM4ENZs+3UHQ/xXU8ms/KH9tqtt7xChkhiCVlyz7dcdDMF8m541LH8YI6SyvUPg0S8PkaE9QrPt1x0MwnyTvnyougO+rr3DxFoRGDhjNNt+3cEwzO/Amliwqmvv0DxRD5nAH6XZ9usOBmIGXwGPqto7/M+REkgQC1AYpdn26w4GYj6/qsdiH0Z66L3Dp/2H7HBtnGbbrzsYivlNzeOppr3DTqh6wgSW1GcUEYhkpLKrsr3Z/fzkQgOmnSdlWDqE9OnPcgpT2Hk431Mq8JtU5CzBUvN4qWnv0GSLeDEg9SEKy7Ga6BLRkix3YuQsL0Kf4de0d2i+tBJ4rPQhLLbFUGHpRKhZvgl9+FzT3iFaBJAotHSksRDbYqiwvEJK4IvQh5aa9g4xJACe0AKX2BbDheUscBFaXmvaO8SYALyFFpyMbTFcWHBM4F1oeRn2RiVfftIQWhAa22K4sOC4gDNhWFY9q7ETWhAa22K4sJzFLG/mDMuqZh2chRaExrYYJCw5xCxrc4Zl1bIO9j2/TEuG2BbDheVcznJA6kXJOtgPOOG/HLEthgvLuZjlgNSPjhWy30JoQWhsi+HCchazvJknJipWyH6L82ktEdticLAoiFm+uWhYIfsBu1UgtsVwYTmLWV5cNPUOX0SU8FaIbTFcWM5ilmw09Q5fyig1YlsMF5ZzOUsNTb3DlyJKB7EthgvLuZilA029w5c8Sg+xLYYLSyckn6UD51lT7/CQReng1ImIbTFcWAacVge56kVT7/DLEKWD07ETEdtisLAMOK0O8q8o6h0OaAWElk5EbIuhwjLgtDrITfT0Dgc0B6fjFrEtBgrLgNPqIDfZNPUOtyTkdBwQ22K4sHxmIbnNqql3uHIRWhAa22K4sLBhWFZNvUM2QgtCY1sMFhY+DMuqvXeI0NgWw4XlM/nvHX7L6x1iDWeQOSxzqnP65eX1cDjg8bjR4HupL1s4C9jVh6cHtV5N/mi/uHeQfvOFhaBffA3oO6B+WfYOEef4AB5NY0aDJWg4fpHi6sM/UHUGfz7FmhjrF0aR/FAc9At2JGfc0fpgBYJaTh0y7xBLYDo+sB3YiNEgzfELHay4+sD3cjFng34VIvkhMqbvBWSVs4DWB7bM/o/qmHmH+OT5wMO4PgxeRXH0ocLXh01eLhYDaMivRCS/fUwfylXOCkKfg3L8WR0077AT6PiAEoRhfYmb4xfBvg/88nNBacSvRig/TIb0IVnokyj1OSjHr4DmHSYz30nZ8YGIqD5UOH6hiDnfB8L8XOAc8OsglB+ehfRha6lPo9DnoBxNUPMOzWPHBwC0xPQBuWLu+MVz3wdWIOvnAgLGx/lNjEP5pXgRfRB+E6HQ50DrA1v/iyGweYfJAcdHsjemz9xz/MI64OMtkgtOj/N7xSyU312MiD68j+W80/qepV+nApt3iB6QHR/mVURfAn0nZe0XVAwEfOBAJBfQgY7ye80slp/pDujrRMZyHtAEpF9Sxs07xBnHx1c2JAsBfZ1Qxy8uB3ygD7hQLigd5fcSy28X0HfNJJbzLn4uQcq4eYdYB8vx0ZXg6zMt/zhZ+4U5kIAPJMdygdMIv1vE8uu5+fqsieME2/NZ+iVl4LxDVAOnfdxGRKerb8NS+wWAhoAPIFCL5QIA42P8XjGL5deRAeLqM88jOQ9oGtLvjpx3iJOOD3A8fUbg+EVUxAeKorng1Bi/iXEwP9S6+jqHgjnjjgPpd0fOO8Q/7zsHBFpfsnyXpvaLDViM+IBTNBezIUFH+IWR/D+yKM044+q7i3FS4lQuDhKO9LtD5x3ineMDdCxJfZ3Tjl+URDRjEoRwLqY07lcDtI6s0Ix9nr6kR/mAqczZQc9a+t2x8w7h7PhAqtJnjfwkSe0XXiHNuCAzwH7Iylx6bmG/Dixmz0X4BfHi6MM9eRqqcnaQ7yT7vt+x8w5fvp+s9gESeoW+jo/zD7NjKqQZOjIDvDjLXP5xcjIW9OvgdJu2uaH84pOjD27qISwEImcHuU2Z+wHPOzR3HR/glvrMd8cbckOa8V1mAEkso0bngqyY3wzyo7Ayv5RfxGp9QCErgE0oK705yG3KzAQ87zBBr+x0fKCoeGcOE7NVAnuAhTSnAmQG4LUGXZkLaEAjfh2cjp+QoN9JUfiFmdaHxlUAcSgrvDnITWqizFzQ8w6T1tuIqwQ0sbofgPurBEjoDGnG358kmWUg6gg4q3NBccCvg9Nxi0SUOAljwGFG6sNFBZSa8tybg9zGYTMb+K47iCTHhzkzAH8gr4GsmGZzX2YAGrDWMKL/rX44+n41cn23aTfcUM7wSuoDR+COWDI/4LRK9PkI5QPfdQexAm3t42eXsoa3WhC2SiSGyVpM85UtMgMkDkpgKXMBgNEJeocWs+GXAg4rfVgFRWSwsXNvysO9QyFOBb/rDqLM8dHz2De0gSDxq+MtMKbZ/K8zQPsAPNG5IGuC3iEYDRjkBCyG0odKlUEn+ROWZe/QhwVBjjd8brDU3jong5o7YTIDWLQByeKPLitzeQUyvncIRmtwUflZ/UIfUlQG5vMnLMveoQ8LIChob9DFS+3tq2iJMKY5Wf5eijIDXM+1dA7pXFA8unc4ADdVfiZb6MM2VWJPFvcoW5a9Qy8WPHW8QUx7MwVBzea5zAAETOVazDedCxzG9g4z4LfKr+dZ6sM/AELLVbv3DWXLsnfox/Ic99ZziWredEDqA7fQkmAWc1UAgNFxvcMcwCAv8vtOikALoFBlalJbQ9my7R02CfSBEvX2o8tao0HNSa/Wh5elD6Rpzcgc1Tss0OCq8kNDAYSrTPFli2XbO3QWLkS9mdtRzUhcFSCF5dIH+rTmW8wEGdE7FMAtlR/Ol/91DlWDwVJrKFt0vcPgD2n1mkXM25XtCRrUDBgqEghWPrBLazYl8d6hAlpVfrAsXstWmWJn22JZ9g59WUz9h5Ei3v58ivkd1YwPqwQqlA/k6lx6LuHeoQQwoyjyAwnLGfBMZYrUAcuyd+jN0omKeOskhzXDQbeMEkz5wD9QZC5/Oxmjwd6hRuvzVPnhawYEq0xRPgA37/Axr78DNN/bbbrJclQzxgFIfV0p2gd8dC7IjPUOHex3Kj8kZABdZAoilgdg6R36s6DQ92a+hjXjrNZnOrUPfNK5QANIQDOMJNz/ECY2DkCvyhR72gAsvcMALHDzvHV4YX3AoCX1Xdnq+AAKNZ0LinzNHoajiq+pivyAB7QF7qtMkZ4BS+8wAMsTpLW3byhjNqwPFToDc8vzgXjnP70/sneYaUk8lBC83aLPS2WKygxYeochWHBFe0NOXB989TOTZNrzgXadCwCMjOsdZlpwVwHHWkvQ76QiNIOM1ezNYcXSOwzBAoH2BjCsD38uMoOek+/jqm06F2SM6x1mWtChAK22N82FZtFFB9M79GER0N4AhvXhts7gDj3ZjE16vVy17ZvUdS7QADKqd5hrgZLKNBncmytKM7IyYOwd7puC9gYwrA+mk+aCwnG9wzYAnkqzyU9Em+yUZnzPALJ3KKG8bRHVh8aJb3txXO8wA+4rzT3fZO3HlxKaQcFa5hdj71BDewMYPqWbNhcAGBnTO8yBTqF5+8kIK82wzPxi7B060N4ABvVhCVIT52KyRvUO8wUVeZNcSjBOZ34h9g49aG8Ag/rwaOpcvoqRIPHeYQl4BzUDzPwi7B16MAXaG8CgPuyePBdTHO4dCoAf0wwq1jK/aHqHIVjMO+0NYPBzfp4+l57jiN5h6SSmGZzM7+LsHYZguWhvAGP6EDd9Lt8PwMiI3mGxjFpIM85lfhdn79CfpcnWm0JIH9ahfA+5ID3UO3TQ8Q9ptmoyv4uzdxiCxRQ4D/1C+vBOZwDN+I3iQl/nAnUggd6hg73JjWT6w6QTOPO7rHuHuQ0Eq0ZIH7g6A5TEfeCXkws+hHuHpRarN5LpJrvMx/LsHYZg8RDRh1H994ChBHiED1joXMAN9w6F5jv0QKZdlzIfi7t3mFN6196sqog+nNZ+ET7GB+5qfcBjONo7FJoT30Cmpi7zsbh7h6mJ9maqAvqA3dDRftEwxkfy5xeX1FkhLdo7FJqR62f6g+QSuA2YrncISfCKleJ1Dg1rdxmW1FL1AtR9hyGQ3gY0D6Zc+4X+OB89f50V1IAEe4dCM3r9THsObcDY3mHQj1EFQbrvcCfa21tAX89P+8XZcT5MmZMV3gd7h0oz1IMflfHY3mHQj5GDGN13uBvtzary9SXQry4h/QKHoXE+EsxirBLgBnuHY95HKDRkmK53OMVttkDkHfaivQH09Zlb2i/2jvWBTI3vByTDsd6h0ow8L1NIAckwWe9wkttsgdE7vGau/SJ3rA8MAaez6mTGe4c50OdkWtSVR/cOg36MNhS9Q1Ov/YIM4WgfYDv/pEUCR3uH5QLNyRRXM0zVO5zoNltQ9A47x7VfeIz3gRdOVuZDsHcogAAnUzRlmKh3ONVttoDoHSaLfVKrBAp9H753JEu4sd6hAvK1X8gAzXxM1Duc6jZbQPQO8WCVgALWJ/CBEJ0V8BiK9A4lMKD9wjHzMb53GPRjtAHlHaJEf8jbqPf0weMoFxKm8IFm50PjxvUcsFRasE1LTjZLv+BLHwaUH0I3HmpvV9DN6iZ30/evOxAm79AwFpi8Q8NZYPAODWcx2Tuc/P+/Q9D4v0Mm/73Db3m9Q4Q8qnuHGBFRwlcAvNgWw4UlxROzhK/AW017h+gWUSJUIDGIbTFcWK4ZhY7rku6a9g6tahElril9pji2xVBhMYVqlrgu9JnqmvYOzUsRJUCl7zupmObYFlsmWqzm99g/tWle1rR32MkQUWId0krfLxJHBH5iAEPsch6qHvZ9LTRg3RkD0NeQPv1Zzs4WI1/D+S7vnejfXlzN8gnrYh6djJr2Djc5qK8kHB6n2fbnDh2K+U3No2df097hd5MHLIBW4EZptv25AwZiBu6sPrDmjkxV33dAfJvqHTk1/7kDBn66que6vu+ACFHAlFEco9n25w4YhhkKmFJfju91fd8BIYsVlbD5/I+TR2i2/bkDBmEGgE+KL5Atc1Hy9BNy5RMr8/DDSHHNtj93wBDMwCNf/jB+rSxXaOl/AdS82aCGNdv+3AEDMIOCV5KA3yrKfOGufiKJFphGNdv+3AH9mWGKFv1QHHeqyxVymNKxAUEONGOabX/ugL7MT8gBoueGKcjVk2LBxXkm0YCiHKEwBcnXbPtzB/Rh3sEUoYezdygNl3pSLtwKnKkDe8bYi/Nc9bLv29pdBFF47oAE15X/eDwDC7wmca4y19uIpjz8Mgso+w7i9zFCGcSqzNPx+8mbxigB2XcQ76IBUjk/y97ho1m+l6JVEyQg+w7iW1RDpuLvO/QGFW9jBGTfQTyLt6BU/X2HBg7RWI0QkH0H8erTrvrvOzRYAAMEZN9BfAoQrDl436HhiU6XgOw7yPCiE54z8b5DAw9HFAPWD60A2XeQoS+k+wIH4GfkfYc2Cp2D5pnVn2BlvIDsO8iAJpjVb56lgiA/P587yI8vlZiAA3f4wv88yR6ZfQdZz/OS+PZ5bbK9Zv6TpB8PnzvINNW+A3+LuO/AyZp5sl145K1ZfxbyCc6+g5h4nSFw9h3ExIKz7yAmFpx9BzGx4Ow7iIkFZ9/hTCw4+w5nYmHYdzhwxRiSRaUPNbPLdlHzwKIAbOexd4g9agxXyGsJ5M4u26uYB0hN4DyPvUMYqjFAT+Ayu2wXMY+zAgznsXcICTUGeAkAh9q55fEk5vGs0JMsaN3pJ4yJMYCvxCR6ydy8EnPyDXJ4VvfQMJNcUSTGgHHglb5r5lb/nBJ9MFbzAP5JwBTPGqO3hQobqe8nSXfFo3UueUYsqHIeO6WvkzKTPF7ZpsaAMk8fxGP/T197WJ68eaBMbc8vM8njxxGtMXmzNjG/trKAo/j2ccR55HaZK00APaDMPUF5Vz+czrPJY6ILTF3Im3muO8UEu8lgNnnSd//bED3v3MmHpqZ4y3nsHZ7WFZslEqwTMedE2EE+M0m2bDmPvcPyho5F5Oba306eawLAFYgk8XbgLPYO8/cAAws6ctSANc8E6+LcYjvoA2exd5gvnHSOZADjPhjzSzD2zj2SFW+30gz2DtWNH3knckBRimDQ5pSvX17OzeF7zhnsHQpAGh2BA1lMAYQAz57Mi2E96WUPCwSnFjiURgekc85f71AuMDAZe1lprrUcjgUr0zt8epZrxsnkgiAMyplXpnf4/Cw3DKz+pUD0QUfMvC69wzGwfJMKKpYBUQEFNfOq9A7HwQIAmYDnn4APz5851zBHwwJz1M09X3eRmdt5+ikvnMIH3XPOpCfxAW7WWSzg4YSPQOeZCWo+9Vy/H7DOOuWCCk6YD8nc3HJnCjuhX0f7tMWqxZHKaLfp9pwRjrO4Db5cJmdYz8tiD8sBZxGeON7Q/Tji8VgxYszyvxP42fcOI70lJjp67zACqpJ3iDWLAt4h+h29dxgBHb93CH/H7h1GQJXyDpFmGbt3GAEdv3cY62US/aef/q/b6U/vcPLfO/xHwTucGuzkv3c4+e8dXp1fSaKXxavtKrHL4tWlnUaWCGYZnqVdMcwyPHlZlhzdLKXwFkruoUY0S+FSWAspplmYlGYxWNHMwqPwVHHNMgMA;" vertex="1" parent="1">
          <mxGeometry x="518" y="410" width="82" height="82" as="geometry" />
        </mxCell>
        <mxCell id="bGog2chpQkW4qfJzp0Gv-2" value="" style="shape=image;verticalLabelPosition=bottom;labelBackgroundColor=default;verticalAlign=top;aspect=fixed;imageAspect=0;image=data:image/webp,UklGRugeAABXRUJQVlA4TNseAAAv/8F/EJWK47aNJInOP+zddtVc/4iYgFwsn4nGrRzTaY76xKy3nESbVbmrNRewwIRMtT9zUm/M9Zdlt8k28kdYeTShk1Agi4aJ0RAZcnCy9f3ebW1v22bbtg0HKbezXL333q/7zs+s/5JFBPbjIO2A9F1pGbYUSZaDQNLG/p3/UaAAAHFS/e3Giu7c3GgYbXewEaO7YdhKd5fdHaPsdviUsgjj6PhKdzeHThouJgmSbFuJ+r7ef85V4dI682BHzdbeqNEkE9LD315BL6b2v6ePQcJOkF73UJBgyoBzIAgkbeyf+XxwY2tbFqERVEDsFlvE/J8rhPbO/B1QgDdAD7QAOTUQ/S/shprufNG6wIEkSYrTS/ulXxoq4MR68z8P62vpUmKaZRBVk/hl8erXMjmXCGbxSG5X/LJ49WvZZckRzOKRpV0xzSL/SFq+lruupUQ2y1wYjnK1q4sasyw+mZTra/nj6KNGM8ucM5OljYh6HNHJEmDmeg370EQuy7Iwyct1XRHehesS4b0uZgZR2nlEhPfimiO8x9GEPRcxD/vQRC4L1xLnPa7CpMR958GNaZaJ/Xp5h5HeEtn9R8E7nPz3Dr8h9A4n/71DFbzDyX/vcPLfOwQOmnBAOM7iNvj5MjnDei6Wfiy4g/OIghsMgV94vUOjihN4jzmI1EpEw2rbVVMtWDRlncTb9Bdb7/DDSD1XfAQa22IV1mLVpYJBWmK9w48j9vyTntgWq7UWTCISRLi8w+s2m/pENCMcFvqIxso7/MfJndMJPCcsFjmQIlDe4bepmspENENMidyRGkze4Q0Dq3+emBIJZAiSd3iTcTI5V0yJvNccRN7hXdozxpSdj5oHyDv8/hVMZ2BcyZSpMu/Ni3c889b7denHYgpMJUYCW9H5qDl8vENT6BEoSlPBt5ixb9a11AIFeOAVVrzvROSDaHROP3XCHALGfTBPx5pzWJDHKSw4P4jIB9HY9C7NZEETNWCtdWexoIoC+TikPaA5+bzTxBUAladaOIH18mFo9wCmV7ZLAkPoWnnqldgky/mzkP6Bi3piiiFSQPSc8HTcZLu9UuIOVHqTwUEBefPC4/ZKiT9AEc9wqQmgB5RZ4bAcTt6Eo+Yg6a+Ox6gC2LPD00wYeZMmkIh4h9ik5oIyTx/EoZEtQ7uL8VXM8/kuxtsxX/qxQNrLuTmECWTNAuIdIlEBNlIfqIhBa61fa8AAzkFR5dw5hAkkUXh4hygSwPj3A5Q+GKOv5i81YS6xLXMuLmECecLhHWJMAHylD7qYqzlbS+CeR56zuIQJ5AmGdwiJJtDxFfqAQ23dud8feh5DzvISJpAnFt4hDNW4brCEvkvtub0SVydnh0sTSKKg8A6xR43rV5cQ+pBbfe4bYLiOO4EkCgnv8CLGlSwqfaipP9v2cnK+k9IEkiggvEPYi3ElQqWPJPo3u5ycE84X56pZALxDB4lowGkVUL/F5eQMtncCec+Z7x062A+AcFXQvuJycgbbPYFEwTt8EuPSUL7ycnIGu5InkJ+JTYlyXA50r74SVydnsKt4AvmZ2NQoxuWB76ycQIItTSCJhODkc+KQj8FBcZDtPJxAyovne70RcA96TtkYHJSjgsKHEGt4tF3mybB23NKIpXIOM4F0mDSBJBIA9aTnPIzBQTnaJC6AYqPRiOWeDTSBvJPSBPJtvnk0oDkoR5vEp5I8auZBE8i38eLZgFZC6XMwCakkD0c9agJZM9Z7hz2nJqD0kURKJVmIDDeBJESaQN6zxnuHiYOC0iclgSrJ+R1wAkmINIGsGdu9Q9grKH1C9glUSc7vkBNIQqQJ5Nt071BC6BOSiPYJVEc2CTqBJESaQL4N9w41Sn1CEtEWVWSbsBNIQsQJpNneoYNCn4NENKCGzDDxCSQs3RNIo71DIa+5vgzOCAFVkA5yzmEmkAnbPYE02TsUkogGnNYczggB1Y8Ocs450ARyw9o9gTTYOxSSiAac1gLOCAFVjyXUS1KhJpAb1u4JJC7eIaDaUUC9IhlsApmw3RNIWLxDQJWjgnpB+nETSFS8Q0B1o4TqIzxwAgmKdwioatRQdZRHTiAx8Q4BVZJrYqvaSEEnkCQSJ5CQeIeAKslTj6PKaGEnkCQSJ5CIeIeAKsnjlS2KgSeQJBInkDh4hwqV5PHr6IqhJ5AOESeQ0eYdfhwxWRIMPoG84+IEMta8wyMaBINPIJuDh9vJINK8wxPuCj5gAumQXXhH/1k5zrzDFV6Cj5hAkmjn+SqXv1+IMu9whRyQkvdxAqmvrTpz+THWO9wufC15DyeQ+tpvkSCJ+eOrdzgAASUfwgkkfj66eocZQAFU8EGcQIL7yOodFgtZBe/tBPIJiNKHmsdV77AE5CDMeX8nkEiS+rDlMdU7VAsxBe/tBPI/RzJVSh9yHlG9QwmIFX8x5f5OIK9ZJKjQhzkQFk7vUC2Wq7YlcPZXSu7xBNK8VtKwZ+H0DvVi6SRlvMcTyGSbAk4vjt6hmmcfTcGULC+4SB/oVv8Ky8LpHSrGskEFOB3Vhd3KB66ol9sWTu9QMxbIoGFytob+ayThA45KzXdSXDa9Q9VYII3KydlaJ0D4AFPpu2a+bHqHurGAhPzJuTcvhWYQgAl9G+xl0ztUjgU4HMLSxNybRqUZ80Jfz3FJ9Q5JdxyvKQzuk2YK7fPEJ5AV5JhJYPjeSHmHBIZ9o394WnBl2kyBS9ySnkm9Ocgxk8DwOQ4p75DAc1dg6kz/fErP3zRM6I0kMxeGj1ikvMPzqatwDzknpriIrqm88WH4Xkh5hwSeuRL3kzPo8MM1lKIdENbHehPC8L2Q8g7PJ67Gw8oekPQmhXl7X0h5h+fz1sHDyh6Q8iakOIF5e19IeYfn09bDg8hewfG2cXxtUjdIeYcuGEWbufYQspdwvG0MX5vUC1Le4U08iu7NtYeV/bPjbevztUn9IOUd1sWj6Cc8rOyfHW8bx/eTmCDlHdbFY+gWDyv7BHK8bRwfCVyQ8g7vaOVEjtJ6MoVvbw9PS+fww8p+AEQKHB8bbLxD9VkGNAmOjw0O3qFFHdA0GD4+OHiHBnVAc9Dn4+M4bLxD/VkWKT0+IbURNt6h/ixSHOzyCXH+a2NsvEP9WYTkCnb4hOR84uAdmlQhuU2ZheQmOFx30KI2gco7NKhtoPIO7WknUHmH5rQbqLxDa9oLVN6hHsXdO9SjuHuHehR371CPxox3eM24E7NdiPTWNmaWP+pEgnc4ZpYP4N5hZZhdgLZ32ESZJgJ4e4cfZZpOvL1DF+jSJnh7h6cqbYO3d3hq0k7w9g5PRdoN3t4hAT3aC97eIQE12g/e3iEBLSqAt3dIPLnrLue+cn8cP7m3xsyyT017hxoXTe9Q46LpHWpcNL1DPfqd+XUHoQabcjmqZu7ZZamZ17tZY2Yhpf/eeofwrwQV8PYO4V8HSuDtHV6qQA28vcNLDegAb+/wUhkmFwB+3+HKMH0Av+9wZZjrYsDvO1wZ/grg9x2uC5vA4x3++tSNA51E88KqwzCEWNwu8o7MdQdfdtsFYTJi6t47iZv2XyPNSu8QhMTZCJIFOa4n8Q4/jPTnU/408h2xd70+276PmeWvss/hHerssYA3cH6fi94hqIjBuPfVCoh3GP7O9nQBdQ56h8CBh0n/mzUg3uGIH2yYvACnvncIOioiP7+R8Q4jM0LFW3nvEFz8CT18A8Y7jM2IvDpa9dNPCAEae/SOi3cYnZHze7NQvEiIPnlDxTscM6ObpdrFifBzd1DuOzxuRpvShRWQ8NENIPcdHs1EfghXudDArBslWnDnABevrUsICvcdJkSymM8H3EGL+yWKWWjUuHmEzw7xF2ehGdJs+32HPZmfcA5/ne9EXypM+OrYgOImZIKabb/uoDfzG26e9Xdt+FaXIGFEErM4ENZs+3UHQ/xXU8ms/KH9tqtt7xChkhiCVlyz7dcdDMF8m541LH8YI6SyvUPg0S8PkaE9QrPt1x0MwnyTvnyougO+rr3DxFoRGDhjNNt+3cEwzO/Amliwqmvv0DxRD5nAH6XZ9usOBmIGXwGPqto7/M+REkgQC1AYpdn26w4GYj6/qsdiH0Z66L3Dp/2H7HBtnGbbrzsYivlNzeOppr3DTqh6wgSW1GcUEYhkpLKrsr3Z/fzkQgOmnSdlWDqE9OnPcgpT2Hk431Mq8JtU5CzBUvN4qWnv0GSLeDEg9SEKy7Ga6BLRkix3YuQsL0Kf4de0d2i+tBJ4rPQhLLbFUGHpRKhZvgl9+FzT3iFaBJAotHSksRDbYqiwvEJK4IvQh5aa9g4xJACe0AKX2BbDheUscBFaXmvaO8SYALyFFpyMbTFcWHBM4F1oeRn2RiVfftIQWhAa22K4sOC4gDNhWFY9q7ETWhAa22K4sJzFLG/mDMuqZh2chRaExrYYJCw5xCxrc4Zl1bIO9j2/TEuG2BbDheVcznJA6kXJOtgPOOG/HLEthgvLuZjlgNSPjhWy30JoQWhsi+HCchazvJknJipWyH6L82ktEdticLAoiFm+uWhYIfsBu1UgtsVwYTmLWV5cNPUOX0SU8FaIbTFcWM5ilmw09Q5fyig1YlsMF5ZzOUsNTb3DlyJKB7EthgvLuZilA029w5c8Sg+xLYYLSyckn6UD51lT7/CQReng1ImIbTFcWAacVge56kVT7/DLEKWD07ETEdtisLAMOK0O8q8o6h0OaAWElk5EbIuhwjLgtDrITfT0Dgc0B6fjFrEtBgrLgNPqIDfZNPUOtyTkdBwQ22K4sHxmIbnNqql3uHIRWhAa22K4sLBhWFZNvUM2QgtCY1sMFhY+DMuqvXeI0NgWw4XlM/nvHX7L6x1iDWeQOSxzqnP65eX1cDjg8bjR4HupL1s4C9jVh6cHtV5N/mi/uHeQfvOFhaBffA3oO6B+WfYOEef4AB5NY0aDJWg4fpHi6sM/UHUGfz7FmhjrF0aR/FAc9At2JGfc0fpgBYJaTh0y7xBLYDo+sB3YiNEgzfELHay4+sD3cjFng34VIvkhMqbvBWSVs4DWB7bM/o/qmHmH+OT5wMO4PgxeRXH0ocLXh01eLhYDaMivRCS/fUwfylXOCkKfg3L8WR0077AT6PiAEoRhfYmb4xfBvg/88nNBacSvRig/TIb0IVnokyj1OSjHr4DmHSYz30nZ8YGIqD5UOH6hiDnfB8L8XOAc8OsglB+ehfRha6lPo9DnoBxNUPMOzWPHBwC0xPQBuWLu+MVz3wdWIOvnAgLGx/lNjEP5pXgRfRB+E6HQ50DrA1v/iyGweYfJAcdHsjemz9xz/MI64OMtkgtOj/N7xSyU312MiD68j+W80/qepV+nApt3iB6QHR/mVURfAn0nZe0XVAwEfOBAJBfQgY7ye80slp/pDujrRMZyHtAEpF9Sxs07xBnHx1c2JAsBfZ1Qxy8uB3ygD7hQLigd5fcSy28X0HfNJJbzLn4uQcq4eYdYB8vx0ZXg6zMt/zhZ+4U5kIAPJMdygdMIv1vE8uu5+fqsieME2/NZ+iVl4LxDVAOnfdxGRKerb8NS+wWAhoAPIFCL5QIA42P8XjGL5deRAeLqM88jOQ9oGtLvjpx3iJOOD3A8fUbg+EVUxAeKorng1Bi/iXEwP9S6+jqHgjnjjgPpd0fOO8Q/7zsHBFpfsnyXpvaLDViM+IBTNBezIUFH+IWR/D+yKM044+q7i3FS4lQuDhKO9LtD5x3ineMDdCxJfZ3Tjl+URDRjEoRwLqY07lcDtI6s0Ix9nr6kR/mAqczZQc9a+t2x8w7h7PhAqtJnjfwkSe0XXiHNuCAzwH7Iylx6bmG/Dixmz0X4BfHi6MM9eRqqcnaQ7yT7vt+x8w5fvp+s9gESeoW+jo/zD7NjKqQZOjIDvDjLXP5xcjIW9OvgdJu2uaH84pOjD27qISwEImcHuU2Z+wHPOzR3HR/glvrMd8cbckOa8V1mAEkso0bngqyY3wzyo7Ayv5RfxGp9QCErgE0oK705yG3KzAQ87zBBr+x0fKCoeGcOE7NVAnuAhTSnAmQG4LUGXZkLaEAjfh2cjp+QoN9JUfiFmdaHxlUAcSgrvDnITWqizFzQ8w6T1tuIqwQ0sbofgPurBEjoDGnG358kmWUg6gg4q3NBccCvg9Nxi0SUOAljwGFG6sNFBZSa8tybg9zGYTMb+K47iCTHhzkzAH8gr4GsmGZzX2YAGrDWMKL/rX44+n41cn23aTfcUM7wSuoDR+COWDI/4LRK9PkI5QPfdQexAm3t42eXsoa3WhC2SiSGyVpM85UtMgMkDkpgKXMBgNEJeocWs+GXAg4rfVgFRWSwsXNvysO9QyFOBb/rDqLM8dHz2De0gSDxq+MtMKbZ/K8zQPsAPNG5IGuC3iEYDRjkBCyG0odKlUEn+ROWZe/QhwVBjjd8brDU3jong5o7YTIDWLQByeKPLitzeQUyvncIRmtwUflZ/UIfUlQG5vMnLMveoQ8LIChob9DFS+3tq2iJMKY5Wf5eijIDXM+1dA7pXFA8unc4ADdVfiZb6MM2VWJPFvcoW5a9Qy8WPHW8QUx7MwVBzea5zAAETOVazDedCxzG9g4z4LfKr+dZ6sM/AELLVbv3DWXLsnfox/Ic99ZziWredEDqA7fQkmAWc1UAgNFxvcMcwCAv8vtOikALoFBlalJbQ9my7R02CfSBEvX2o8tao0HNSa/Wh5elD6Rpzcgc1Tss0OCq8kNDAYSrTPFli2XbO3QWLkS9mdtRzUhcFSCF5dIH+rTmW8wEGdE7FMAtlR/Ol/91DlWDwVJrKFt0vcPgD2n1mkXM25XtCRrUDBgqEghWPrBLazYl8d6hAlpVfrAsXstWmWJn22JZ9g59WUz9h5Ei3v58ivkd1YwPqwQqlA/k6lx6LuHeoQQwoyjyAwnLGfBMZYrUAcuyd+jN0omKeOskhzXDQbeMEkz5wD9QZC5/Oxmjwd6hRuvzVPnhawYEq0xRPgA37/Axr78DNN/bbbrJclQzxgFIfV0p2gd8dC7IjPUOHex3Kj8kZABdZAoilgdg6R36s6DQ92a+hjXjrNZnOrUPfNK5QANIQDOMJNz/ECY2DkCvyhR72gAsvcMALHDzvHV4YX3AoCX1Xdnq+AAKNZ0LinzNHoajiq+pivyAB7QF7qtMkZ4BS+8wAMsTpLW3byhjNqwPFToDc8vzgXjnP70/sneYaUk8lBC83aLPS2WKygxYeochWHBFe0NOXB989TOTZNrzgXadCwCMjOsdZlpwVwHHWkvQ76QiNIOM1ezNYcXSOwzBAoH2BjCsD38uMoOek+/jqm06F2SM6x1mWtChAK22N82FZtFFB9M79GER0N4AhvXhts7gDj3ZjE16vVy17ZvUdS7QADKqd5hrgZLKNBncmytKM7IyYOwd7puC9gYwrA+mk+aCwnG9wzYAnkqzyU9Em+yUZnzPALJ3KKG8bRHVh8aJb3txXO8wA+4rzT3fZO3HlxKaQcFa5hdj71BDewMYPqWbNhcAGBnTO8yBTqF5+8kIK82wzPxi7B060N4ABvVhCVIT52KyRvUO8wUVeZNcSjBOZ34h9g49aG8Ag/rwaOpcvoqRIPHeYQl4BzUDzPwi7B16MAXaG8CgPuyePBdTHO4dCoAf0wwq1jK/aHqHIVjMO+0NYPBzfp4+l57jiN5h6SSmGZzM7+LsHYZguWhvAGP6EDd9Lt8PwMiI3mGxjFpIM85lfhdn79CfpcnWm0JIH9ahfA+5ID3UO3TQ8Q9ptmoyv4uzdxiCxRQ4D/1C+vBOZwDN+I3iQl/nAnUggd6hg73JjWT6w6QTOPO7rHuHuQ0Eq0ZIH7g6A5TEfeCXkws+hHuHpRarN5LpJrvMx/LsHYZg8RDRh1H994ChBHiED1joXMAN9w6F5jv0QKZdlzIfi7t3mFN6196sqog+nNZ+ET7GB+5qfcBjONo7FJoT30Cmpi7zsbh7h6mJ9maqAvqA3dDRftEwxkfy5xeX1FkhLdo7FJqR62f6g+QSuA2YrncISfCKleJ1Dg1rdxmW1FL1AtR9hyGQ3gY0D6Zc+4X+OB89f50V1IAEe4dCM3r9THsObcDY3mHQj1EFQbrvcCfa21tAX89P+8XZcT5MmZMV3gd7h0oz1IMflfHY3mHQj5GDGN13uBvtzary9SXQry4h/QKHoXE+EsxirBLgBnuHY95HKDRkmK53OMVttkDkHfaivQH09Zlb2i/2jvWBTI3vByTDsd6h0ow8L1NIAckwWe9wkttsgdE7vGau/SJ3rA8MAaez6mTGe4c50OdkWtSVR/cOg36MNhS9Q1Ov/YIM4WgfYDv/pEUCR3uH5QLNyRRXM0zVO5zoNltQ9A47x7VfeIz3gRdOVuZDsHcogAAnUzRlmKh3ONVttoDoHSaLfVKrBAp9H753JEu4sd6hAvK1X8gAzXxM1Duc6jZbQPQO8WCVgALWJ/CBEJ0V8BiK9A4lMKD9wjHzMb53GPRjtAHlHaJEf8jbqPf0weMoFxKm8IFm50PjxvUcsFRasE1LTjZLv+BLHwaUH0I3HmpvV9DN6iZ30/evOxAm79AwFpi8Q8NZYPAODWcx2Tuc/P+/Q9D4v0Mm/73Db3m9Q4Q8qnuHGBFRwlcAvNgWw4UlxROzhK/AW017h+gWUSJUIDGIbTFcWK4ZhY7rku6a9g6tahElril9pji2xVBhMYVqlrgu9JnqmvYOzUsRJUCl7zupmObYFlsmWqzm99g/tWle1rR32MkQUWId0krfLxJHBH5iAEPsch6qHvZ9LTRg3RkD0NeQPv1Zzs4WI1/D+S7vnejfXlzN8gnrYh6djJr2Djc5qK8kHB6n2fbnDh2K+U3No2df097hd5MHLIBW4EZptv25AwZiBu6sPrDmjkxV33dAfJvqHTk1/7kDBn66que6vu+ACFHAlFEco9n25w4YhhkKmFJfju91fd8BIYsVlbD5/I+TR2i2/bkDBmEGgE+KL5Atc1Hy9BNy5RMr8/DDSHHNtj93wBDMwCNf/jB+rSxXaOl/AdS82aCGNdv+3AEDMIOCV5KA3yrKfOGufiKJFphGNdv+3AH9mWGKFv1QHHeqyxVymNKxAUEONGOabX/ugL7MT8gBoueGKcjVk2LBxXkm0YCiHKEwBcnXbPtzB/Rh3sEUoYezdygNl3pSLtwKnKkDe8bYi/Nc9bLv29pdBFF47oAE15X/eDwDC7wmca4y19uIpjz8Mgso+w7i9zFCGcSqzNPx+8mbxigB2XcQ76IBUjk/y97ho1m+l6JVEyQg+w7iW1RDpuLvO/QGFW9jBGTfQTyLt6BU/X2HBg7RWI0QkH0H8erTrvrvOzRYAAMEZN9BfAoQrDl436HhiU6XgOw7yPCiE54z8b5DAw9HFAPWD60A2XeQoS+k+wIH4GfkfYc2Cp2D5pnVn2BlvIDsO8iAJpjVb56lgiA/P587yI8vlZiAA3f4wv88yR6ZfQdZz/OS+PZ5bbK9Zv6TpB8PnzvINNW+A3+LuO/AyZp5sl145K1ZfxbyCc6+g5h4nSFw9h3ExIKz7yAmFpx9BzGx4Ow7iIkFZ9/hTCw4+w5nYmHYdzhwxRiSRaUPNbPLdlHzwKIAbOexd4g9agxXyGsJ5M4u26uYB0hN4DyPvUMYqjFAT+Ayu2wXMY+zAgznsXcICTUGeAkAh9q55fEk5vGs0JMsaN3pJ4yJMYCvxCR6ydy8EnPyDXJ4VvfQMJNcUSTGgHHglb5r5lb/nBJ9MFbzAP5JwBTPGqO3hQobqe8nSXfFo3UueUYsqHIeO6WvkzKTPF7ZpsaAMk8fxGP/T197WJ68eaBMbc8vM8njxxGtMXmzNjG/trKAo/j2ccR55HaZK00APaDMPUF5Vz+czrPJY6ILTF3Im3muO8UEu8lgNnnSd//bED3v3MmHpqZ4y3nsHZ7WFZslEqwTMedE2EE+M0m2bDmPvcPyho5F5Oba306eawLAFYgk8XbgLPYO8/cAAws6ctSANc8E6+LcYjvoA2exd5gvnHSOZADjPhjzSzD2zj2SFW+30gz2DtWNH3knckBRimDQ5pSvX17OzeF7zhnsHQpAGh2BA1lMAYQAz57Mi2E96WUPCwSnFjiURgekc85f71AuMDAZe1lprrUcjgUr0zt8epZrxsnkgiAMyplXpnf4/Cw3DKz+pUD0QUfMvC69wzGwfJMKKpYBUQEFNfOq9A7HwQIAmYDnn4APz5851zBHwwJz1M09X3eRmdt5+ikvnMIH3XPOpCfxAW7WWSzg4YSPQOeZCWo+9Vy/H7DOOuWCCk6YD8nc3HJnCjuhX0f7tMWqxZHKaLfp9pwRjrO4Db5cJmdYz8tiD8sBZxGeON7Q/Tji8VgxYszyvxP42fcOI70lJjp67zACqpJ3iDWLAt4h+h29dxgBHb93CH/H7h1GQJXyDpFmGbt3GAEdv3cY62US/aef/q/b6U/vcPLfO/xHwTucGuzkv3c4+e8dXp1fSaKXxavtKrHL4tWlnUaWCGYZnqVdMcwyPHlZlhzdLKXwFkruoUY0S+FSWAspplmYlGYxWNHMwqPwVHHNMgMA;" vertex="1" parent="1">
          <mxGeometry x="582.5" y="410" width="82" height="82" as="geometry" />
        </mxCell>
        <mxCell id="bGog2chpQkW4qfJzp0Gv-3" value="" style="shape=image;verticalLabelPosition=bottom;labelBackgroundColor=default;verticalAlign=top;aspect=fixed;imageAspect=0;image=data:image/webp,UklGRugeAABXRUJQVlA4TNseAAAv/8F/EJWK47aNJInOP+zddtVc/4iYgFwsn4nGrRzTaY76xKy3nESbVbmrNRewwIRMtT9zUm/M9Zdlt8k28kdYeTShk1Agi4aJ0RAZcnCy9f3ebW1v22bbtg0HKbezXL333q/7zs+s/5JFBPbjIO2A9F1pGbYUSZaDQNLG/p3/UaAAAHFS/e3Giu7c3GgYbXewEaO7YdhKd5fdHaPsdviUsgjj6PhKdzeHThouJgmSbFuJ+r7ef85V4dI682BHzdbeqNEkE9LD315BL6b2v6ePQcJOkF73UJBgyoBzIAgkbeyf+XxwY2tbFqERVEDsFlvE/J8rhPbO/B1QgDdAD7QAOTUQ/S/shprufNG6wIEkSYrTS/ulXxoq4MR68z8P62vpUmKaZRBVk/hl8erXMjmXCGbxSG5X/LJ49WvZZckRzOKRpV0xzSL/SFq+lruupUQ2y1wYjnK1q4sasyw+mZTra/nj6KNGM8ucM5OljYh6HNHJEmDmeg370EQuy7Iwyct1XRHehesS4b0uZgZR2nlEhPfimiO8x9GEPRcxD/vQRC4L1xLnPa7CpMR958GNaZaJ/Xp5h5HeEtn9R8E7nPz3Dr8h9A4n/71DFbzDyX/vcPLfOwQOmnBAOM7iNvj5MjnDei6Wfiy4g/OIghsMgV94vUOjihN4jzmI1EpEw2rbVVMtWDRlncTb9Bdb7/DDSD1XfAQa22IV1mLVpYJBWmK9w48j9vyTntgWq7UWTCISRLi8w+s2m/pENCMcFvqIxso7/MfJndMJPCcsFjmQIlDe4bepmspENENMidyRGkze4Q0Dq3+emBIJZAiSd3iTcTI5V0yJvNccRN7hXdozxpSdj5oHyDv8/hVMZ2BcyZSpMu/Ni3c889b7denHYgpMJUYCW9H5qDl8vENT6BEoSlPBt5ixb9a11AIFeOAVVrzvROSDaHROP3XCHALGfTBPx5pzWJDHKSw4P4jIB9HY9C7NZEETNWCtdWexoIoC+TikPaA5+bzTxBUAladaOIH18mFo9wCmV7ZLAkPoWnnqldgky/mzkP6Bi3piiiFSQPSc8HTcZLu9UuIOVHqTwUEBefPC4/ZKiT9AEc9wqQmgB5RZ4bAcTt6Eo+Yg6a+Ox6gC2LPD00wYeZMmkIh4h9ik5oIyTx/EoZEtQ7uL8VXM8/kuxtsxX/qxQNrLuTmECWTNAuIdIlEBNlIfqIhBa61fa8AAzkFR5dw5hAkkUXh4hygSwPj3A5Q+GKOv5i81YS6xLXMuLmECecLhHWJMAHylD7qYqzlbS+CeR56zuIQJ5AmGdwiJJtDxFfqAQ23dud8feh5DzvISJpAnFt4hDNW4brCEvkvtub0SVydnh0sTSKKg8A6xR43rV5cQ+pBbfe4bYLiOO4EkCgnv8CLGlSwqfaipP9v2cnK+k9IEkiggvEPYi3ElQqWPJPo3u5ycE84X56pZALxDB4lowGkVUL/F5eQMtncCec+Z7x062A+AcFXQvuJycgbbPYFEwTt8EuPSUL7ycnIGu5InkJ+JTYlyXA50r74SVydnsKt4AvmZ2NQoxuWB76ycQIItTSCJhODkc+KQj8FBcZDtPJxAyovne70RcA96TtkYHJSjgsKHEGt4tF3mybB23NKIpXIOM4F0mDSBJBIA9aTnPIzBQTnaJC6AYqPRiOWeDTSBvJPSBPJtvnk0oDkoR5vEp5I8auZBE8i38eLZgFZC6XMwCakkD0c9agJZM9Z7hz2nJqD0kURKJVmIDDeBJESaQN6zxnuHiYOC0iclgSrJ+R1wAkmINIGsGdu9Q9grKH1C9glUSc7vkBNIQqQJ5Nt071BC6BOSiPYJVEc2CTqBJESaQL4N9w41Sn1CEtEWVWSbsBNIQsQJpNneoYNCn4NENKCGzDDxCSQs3RNIo71DIa+5vgzOCAFVkA5yzmEmkAnbPYE02TsUkogGnNYczggB1Y8Ocs450ARyw9o9gTTYOxSSiAac1gLOCAFVjyXUS1KhJpAb1u4JJC7eIaDaUUC9IhlsApmw3RNIWLxDQJWjgnpB+nETSFS8Q0B1o4TqIzxwAgmKdwioatRQdZRHTiAx8Q4BVZJrYqvaSEEnkCQSJ5CQeIeAKslTj6PKaGEnkCQSJ5CIeIeAKsnjlS2KgSeQJBInkDh4hwqV5PHr6IqhJ5AOESeQ0eYdfhwxWRIMPoG84+IEMta8wyMaBINPIJuDh9vJINK8wxPuCj5gAumQXXhH/1k5zrzDFV6Cj5hAkmjn+SqXv1+IMu9whRyQkvdxAqmvrTpz+THWO9wufC15DyeQ+tpvkSCJ+eOrdzgAASUfwgkkfj66eocZQAFU8EGcQIL7yOodFgtZBe/tBPIJiNKHmsdV77AE5CDMeX8nkEiS+rDlMdU7VAsxBe/tBPI/RzJVSh9yHlG9QwmIFX8x5f5OIK9ZJKjQhzkQFk7vUC2Wq7YlcPZXSu7xBNK8VtKwZ+H0DvVi6SRlvMcTyGSbAk4vjt6hmmcfTcGULC+4SB/oVv8Ky8LpHSrGskEFOB3Vhd3KB66ol9sWTu9QMxbIoGFytob+ayThA45KzXdSXDa9Q9VYII3KydlaJ0D4AFPpu2a+bHqHurGAhPzJuTcvhWYQgAl9G+xl0ztUjgU4HMLSxNybRqUZ80Jfz3FJ9Q5JdxyvKQzuk2YK7fPEJ5AV5JhJYPjeSHmHBIZ9o394WnBl2kyBS9ySnkm9Ocgxk8DwOQ4p75DAc1dg6kz/fErP3zRM6I0kMxeGj1ikvMPzqatwDzknpriIrqm88WH4Xkh5hwSeuRL3kzPo8MM1lKIdENbHehPC8L2Q8g7PJ67Gw8oekPQmhXl7X0h5h+fz1sHDyh6Q8iakOIF5e19IeYfn09bDg8hewfG2cXxtUjdIeYcuGEWbufYQspdwvG0MX5vUC1Le4U08iu7NtYeV/bPjbevztUn9IOUd1sWj6Cc8rOyfHW8bx/eTmCDlHdbFY+gWDyv7BHK8bRwfCVyQ8g7vaOVEjtJ6MoVvbw9PS+fww8p+AEQKHB8bbLxD9VkGNAmOjw0O3qFFHdA0GD4+OHiHBnVAc9Dn4+M4bLxD/VkWKT0+IbURNt6h/ixSHOzyCXH+a2NsvEP9WYTkCnb4hOR84uAdmlQhuU2ZheQmOFx30KI2gco7NKhtoPIO7WknUHmH5rQbqLxDa9oLVN6hHsXdO9SjuHuHehR371CPxox3eM24E7NdiPTWNmaWP+pEgnc4ZpYP4N5hZZhdgLZ32ESZJgJ4e4cfZZpOvL1DF+jSJnh7h6cqbYO3d3hq0k7w9g5PRdoN3t4hAT3aC97eIQE12g/e3iEBLSqAt3dIPLnrLue+cn8cP7m3xsyyT017hxoXTe9Q46LpHWpcNL1DPfqd+XUHoQabcjmqZu7ZZamZ17tZY2Yhpf/eeofwrwQV8PYO4V8HSuDtHV6qQA28vcNLDegAb+/wUhkmFwB+3+HKMH0Av+9wZZjrYsDvO1wZ/grg9x2uC5vA4x3++tSNA51E88KqwzCEWNwu8o7MdQdfdtsFYTJi6t47iZv2XyPNSu8QhMTZCJIFOa4n8Q4/jPTnU/408h2xd70+276PmeWvss/hHerssYA3cH6fi94hqIjBuPfVCoh3GP7O9nQBdQ56h8CBh0n/mzUg3uGIH2yYvACnvncIOioiP7+R8Q4jM0LFW3nvEFz8CT18A8Y7jM2IvDpa9dNPCAEae/SOi3cYnZHze7NQvEiIPnlDxTscM6ObpdrFifBzd1DuOzxuRpvShRWQ8NENIPcdHs1EfghXudDArBslWnDnABevrUsICvcdJkSymM8H3EGL+yWKWWjUuHmEzw7xF2ehGdJs+32HPZmfcA5/ne9EXypM+OrYgOImZIKabb/uoDfzG26e9Xdt+FaXIGFEErM4ENZs+3UHQ/xXU8ms/KH9tqtt7xChkhiCVlyz7dcdDMF8m541LH8YI6SyvUPg0S8PkaE9QrPt1x0MwnyTvnyougO+rr3DxFoRGDhjNNt+3cEwzO/Amliwqmvv0DxRD5nAH6XZ9usOBmIGXwGPqto7/M+REkgQC1AYpdn26w4GYj6/qsdiH0Z66L3Dp/2H7HBtnGbbrzsYivlNzeOppr3DTqh6wgSW1GcUEYhkpLKrsr3Z/fzkQgOmnSdlWDqE9OnPcgpT2Hk431Mq8JtU5CzBUvN4qWnv0GSLeDEg9SEKy7Ga6BLRkix3YuQsL0Kf4de0d2i+tBJ4rPQhLLbFUGHpRKhZvgl9+FzT3iFaBJAotHSksRDbYqiwvEJK4IvQh5aa9g4xJACe0AKX2BbDheUscBFaXmvaO8SYALyFFpyMbTFcWHBM4F1oeRn2RiVfftIQWhAa22K4sOC4gDNhWFY9q7ETWhAa22K4sJzFLG/mDMuqZh2chRaExrYYJCw5xCxrc4Zl1bIO9j2/TEuG2BbDheVcznJA6kXJOtgPOOG/HLEthgvLuZjlgNSPjhWy30JoQWhsi+HCchazvJknJipWyH6L82ktEdticLAoiFm+uWhYIfsBu1UgtsVwYTmLWV5cNPUOX0SU8FaIbTFcWM5ilmw09Q5fyig1YlsMF5ZzOUsNTb3DlyJKB7EthgvLuZilA029w5c8Sg+xLYYLSyckn6UD51lT7/CQReng1ImIbTFcWAacVge56kVT7/DLEKWD07ETEdtisLAMOK0O8q8o6h0OaAWElk5EbIuhwjLgtDrITfT0Dgc0B6fjFrEtBgrLgNPqIDfZNPUOtyTkdBwQ22K4sHxmIbnNqql3uHIRWhAa22K4sLBhWFZNvUM2QgtCY1sMFhY+DMuqvXeI0NgWw4XlM/nvHX7L6x1iDWeQOSxzqnP65eX1cDjg8bjR4HupL1s4C9jVh6cHtV5N/mi/uHeQfvOFhaBffA3oO6B+WfYOEef4AB5NY0aDJWg4fpHi6sM/UHUGfz7FmhjrF0aR/FAc9At2JGfc0fpgBYJaTh0y7xBLYDo+sB3YiNEgzfELHay4+sD3cjFng34VIvkhMqbvBWSVs4DWB7bM/o/qmHmH+OT5wMO4PgxeRXH0ocLXh01eLhYDaMivRCS/fUwfylXOCkKfg3L8WR0077AT6PiAEoRhfYmb4xfBvg/88nNBacSvRig/TIb0IVnokyj1OSjHr4DmHSYz30nZ8YGIqD5UOH6hiDnfB8L8XOAc8OsglB+ehfRha6lPo9DnoBxNUPMOzWPHBwC0xPQBuWLu+MVz3wdWIOvnAgLGx/lNjEP5pXgRfRB+E6HQ50DrA1v/iyGweYfJAcdHsjemz9xz/MI64OMtkgtOj/N7xSyU312MiD68j+W80/qepV+nApt3iB6QHR/mVURfAn0nZe0XVAwEfOBAJBfQgY7ye80slp/pDujrRMZyHtAEpF9Sxs07xBnHx1c2JAsBfZ1Qxy8uB3ygD7hQLigd5fcSy28X0HfNJJbzLn4uQcq4eYdYB8vx0ZXg6zMt/zhZ+4U5kIAPJMdygdMIv1vE8uu5+fqsieME2/NZ+iVl4LxDVAOnfdxGRKerb8NS+wWAhoAPIFCL5QIA42P8XjGL5deRAeLqM88jOQ9oGtLvjpx3iJOOD3A8fUbg+EVUxAeKorng1Bi/iXEwP9S6+jqHgjnjjgPpd0fOO8Q/7zsHBFpfsnyXpvaLDViM+IBTNBezIUFH+IWR/D+yKM044+q7i3FS4lQuDhKO9LtD5x3ineMDdCxJfZ3Tjl+URDRjEoRwLqY07lcDtI6s0Ix9nr6kR/mAqczZQc9a+t2x8w7h7PhAqtJnjfwkSe0XXiHNuCAzwH7Iylx6bmG/Dixmz0X4BfHi6MM9eRqqcnaQ7yT7vt+x8w5fvp+s9gESeoW+jo/zD7NjKqQZOjIDvDjLXP5xcjIW9OvgdJu2uaH84pOjD27qISwEImcHuU2Z+wHPOzR3HR/glvrMd8cbckOa8V1mAEkso0bngqyY3wzyo7Ayv5RfxGp9QCErgE0oK705yG3KzAQ87zBBr+x0fKCoeGcOE7NVAnuAhTSnAmQG4LUGXZkLaEAjfh2cjp+QoN9JUfiFmdaHxlUAcSgrvDnITWqizFzQ8w6T1tuIqwQ0sbofgPurBEjoDGnG358kmWUg6gg4q3NBccCvg9Nxi0SUOAljwGFG6sNFBZSa8tybg9zGYTMb+K47iCTHhzkzAH8gr4GsmGZzX2YAGrDWMKL/rX44+n41cn23aTfcUM7wSuoDR+COWDI/4LRK9PkI5QPfdQexAm3t42eXsoa3WhC2SiSGyVpM85UtMgMkDkpgKXMBgNEJeocWs+GXAg4rfVgFRWSwsXNvysO9QyFOBb/rDqLM8dHz2De0gSDxq+MtMKbZ/K8zQPsAPNG5IGuC3iEYDRjkBCyG0odKlUEn+ROWZe/QhwVBjjd8brDU3jong5o7YTIDWLQByeKPLitzeQUyvncIRmtwUflZ/UIfUlQG5vMnLMveoQ8LIChob9DFS+3tq2iJMKY5Wf5eijIDXM+1dA7pXFA8unc4ADdVfiZb6MM2VWJPFvcoW5a9Qy8WPHW8QUx7MwVBzea5zAAETOVazDedCxzG9g4z4LfKr+dZ6sM/AELLVbv3DWXLsnfox/Ic99ZziWredEDqA7fQkmAWc1UAgNFxvcMcwCAv8vtOikALoFBlalJbQ9my7R02CfSBEvX2o8tao0HNSa/Wh5elD6Rpzcgc1Tss0OCq8kNDAYSrTPFli2XbO3QWLkS9mdtRzUhcFSCF5dIH+rTmW8wEGdE7FMAtlR/Ol/91DlWDwVJrKFt0vcPgD2n1mkXM25XtCRrUDBgqEghWPrBLazYl8d6hAlpVfrAsXstWmWJn22JZ9g59WUz9h5Ei3v58ivkd1YwPqwQqlA/k6lx6LuHeoQQwoyjyAwnLGfBMZYrUAcuyd+jN0omKeOskhzXDQbeMEkz5wD9QZC5/Oxmjwd6hRuvzVPnhawYEq0xRPgA37/Axr78DNN/bbbrJclQzxgFIfV0p2gd8dC7IjPUOHex3Kj8kZABdZAoilgdg6R36s6DQ92a+hjXjrNZnOrUPfNK5QANIQDOMJNz/ECY2DkCvyhR72gAsvcMALHDzvHV4YX3AoCX1Xdnq+AAKNZ0LinzNHoajiq+pivyAB7QF7qtMkZ4BS+8wAMsTpLW3byhjNqwPFToDc8vzgXjnP70/sneYaUk8lBC83aLPS2WKygxYeochWHBFe0NOXB989TOTZNrzgXadCwCMjOsdZlpwVwHHWkvQ76QiNIOM1ezNYcXSOwzBAoH2BjCsD38uMoOek+/jqm06F2SM6x1mWtChAK22N82FZtFFB9M79GER0N4AhvXhts7gDj3ZjE16vVy17ZvUdS7QADKqd5hrgZLKNBncmytKM7IyYOwd7puC9gYwrA+mk+aCwnG9wzYAnkqzyU9Em+yUZnzPALJ3KKG8bRHVh8aJb3txXO8wA+4rzT3fZO3HlxKaQcFa5hdj71BDewMYPqWbNhcAGBnTO8yBTqF5+8kIK82wzPxi7B060N4ABvVhCVIT52KyRvUO8wUVeZNcSjBOZ34h9g49aG8Ag/rwaOpcvoqRIPHeYQl4BzUDzPwi7B16MAXaG8CgPuyePBdTHO4dCoAf0wwq1jK/aHqHIVjMO+0NYPBzfp4+l57jiN5h6SSmGZzM7+LsHYZguWhvAGP6EDd9Lt8PwMiI3mGxjFpIM85lfhdn79CfpcnWm0JIH9ahfA+5ID3UO3TQ8Q9ptmoyv4uzdxiCxRQ4D/1C+vBOZwDN+I3iQl/nAnUggd6hg73JjWT6w6QTOPO7rHuHuQ0Eq0ZIH7g6A5TEfeCXkws+hHuHpRarN5LpJrvMx/LsHYZg8RDRh1H994ChBHiED1joXMAN9w6F5jv0QKZdlzIfi7t3mFN6196sqog+nNZ+ET7GB+5qfcBjONo7FJoT30Cmpi7zsbh7h6mJ9maqAvqA3dDRftEwxkfy5xeX1FkhLdo7FJqR62f6g+QSuA2YrncISfCKleJ1Dg1rdxmW1FL1AtR9hyGQ3gY0D6Zc+4X+OB89f50V1IAEe4dCM3r9THsObcDY3mHQj1EFQbrvcCfa21tAX89P+8XZcT5MmZMV3gd7h0oz1IMflfHY3mHQj5GDGN13uBvtzary9SXQry4h/QKHoXE+EsxirBLgBnuHY95HKDRkmK53OMVttkDkHfaivQH09Zlb2i/2jvWBTI3vByTDsd6h0ow8L1NIAckwWe9wkttsgdE7vGau/SJ3rA8MAaez6mTGe4c50OdkWtSVR/cOg36MNhS9Q1Ov/YIM4WgfYDv/pEUCR3uH5QLNyRRXM0zVO5zoNltQ9A47x7VfeIz3gRdOVuZDsHcogAAnUzRlmKh3ONVttoDoHSaLfVKrBAp9H753JEu4sd6hAvK1X8gAzXxM1Duc6jZbQPQO8WCVgALWJ/CBEJ0V8BiK9A4lMKD9wjHzMb53GPRjtAHlHaJEf8jbqPf0weMoFxKm8IFm50PjxvUcsFRasE1LTjZLv+BLHwaUH0I3HmpvV9DN6iZ30/evOxAm79AwFpi8Q8NZYPAODWcx2Tuc/P+/Q9D4v0Mm/73Db3m9Q4Q8qnuHGBFRwlcAvNgWw4UlxROzhK/AW017h+gWUSJUIDGIbTFcWK4ZhY7rku6a9g6tahElril9pji2xVBhMYVqlrgu9JnqmvYOzUsRJUCl7zupmObYFlsmWqzm99g/tWle1rR32MkQUWId0krfLxJHBH5iAEPsch6qHvZ9LTRg3RkD0NeQPv1Zzs4WI1/D+S7vnejfXlzN8gnrYh6djJr2Djc5qK8kHB6n2fbnDh2K+U3No2df097hd5MHLIBW4EZptv25AwZiBu6sPrDmjkxV33dAfJvqHTk1/7kDBn66que6vu+ACFHAlFEco9n25w4YhhkKmFJfju91fd8BIYsVlbD5/I+TR2i2/bkDBmEGgE+KL5Atc1Hy9BNy5RMr8/DDSHHNtj93wBDMwCNf/jB+rSxXaOl/AdS82aCGNdv+3AEDMIOCV5KA3yrKfOGufiKJFphGNdv+3AH9mWGKFv1QHHeqyxVymNKxAUEONGOabX/ugL7MT8gBoueGKcjVk2LBxXkm0YCiHKEwBcnXbPtzB/Rh3sEUoYezdygNl3pSLtwKnKkDe8bYi/Nc9bLv29pdBFF47oAE15X/eDwDC7wmca4y19uIpjz8Mgso+w7i9zFCGcSqzNPx+8mbxigB2XcQ76IBUjk/y97ho1m+l6JVEyQg+w7iW1RDpuLvO/QGFW9jBGTfQTyLt6BU/X2HBg7RWI0QkH0H8erTrvrvOzRYAAMEZN9BfAoQrDl436HhiU6XgOw7yPCiE54z8b5DAw9HFAPWD60A2XeQoS+k+wIH4GfkfYc2Cp2D5pnVn2BlvIDsO8iAJpjVb56lgiA/P587yI8vlZiAA3f4wv88yR6ZfQdZz/OS+PZ5bbK9Zv6TpB8PnzvINNW+A3+LuO/AyZp5sl145K1ZfxbyCc6+g5h4nSFw9h3ExIKz7yAmFpx9BzGx4Ow7iIkFZ9/hTCw4+w5nYmHYdzhwxRiSRaUPNbPLdlHzwKIAbOexd4g9agxXyGsJ5M4u26uYB0hN4DyPvUMYqjFAT+Ayu2wXMY+zAgznsXcICTUGeAkAh9q55fEk5vGs0JMsaN3pJ4yJMYCvxCR6ydy8EnPyDXJ4VvfQMJNcUSTGgHHglb5r5lb/nBJ9MFbzAP5JwBTPGqO3hQobqe8nSXfFo3UueUYsqHIeO6WvkzKTPF7ZpsaAMk8fxGP/T197WJ68eaBMbc8vM8njxxGtMXmzNjG/trKAo/j2ccR55HaZK00APaDMPUF5Vz+czrPJY6ILTF3Im3muO8UEu8lgNnnSd//bED3v3MmHpqZ4y3nsHZ7WFZslEqwTMedE2EE+M0m2bDmPvcPyho5F5Oba306eawLAFYgk8XbgLPYO8/cAAws6ctSANc8E6+LcYjvoA2exd5gvnHSOZADjPhjzSzD2zj2SFW+30gz2DtWNH3knckBRimDQ5pSvX17OzeF7zhnsHQpAGh2BA1lMAYQAz57Mi2E96WUPCwSnFjiURgekc85f71AuMDAZe1lprrUcjgUr0zt8epZrxsnkgiAMyplXpnf4/Cw3DKz+pUD0QUfMvC69wzGwfJMKKpYBUQEFNfOq9A7HwQIAmYDnn4APz5851zBHwwJz1M09X3eRmdt5+ikvnMIH3XPOpCfxAW7WWSzg4YSPQOeZCWo+9Vy/H7DOOuWCCk6YD8nc3HJnCjuhX0f7tMWqxZHKaLfp9pwRjrO4Db5cJmdYz8tiD8sBZxGeON7Q/Tji8VgxYszyvxP42fcOI70lJjp67zACqpJ3iDWLAt4h+h29dxgBHb93CH/H7h1GQJXyDpFmGbt3GAEdv3cY62US/aef/q/b6U/vcPLfO/xHwTucGuzkv3c4+e8dXp1fSaKXxavtKrHL4tWlnUaWCGYZnqVdMcwyPHlZlhzdLKXwFkruoUY0S+FSWAspplmYlGYxWNHMwqPwVHHNMgMA;" vertex="1" parent="1">
          <mxGeometry x="544.5" y="488" width="82" height="82" as="geometry" />
        </mxCell>
        <mxCell id="bGog2chpQkW4qfJzp0Gv-5" value="GitHub" style="outlineConnect=0;gradientColor=none;html=1;whiteSpace=wrap;fontSize=12;fontStyle=0;strokeColor=#879196;fillColor=none;verticalAlign=top;align=center;fontColor=#879196;spacingTop=3;strokeWidth=2;" vertex="1" parent="1">
          <mxGeometry x="770" y="20" width="260" height="560" as="geometry" />
        </mxCell>
        <mxCell id="bGog2chpQkW4qfJzp0Gv-6" value="" style="shape=image;verticalLabelPosition=bottom;labelBackgroundColor=default;verticalAlign=top;aspect=fixed;imageAspect=0;image=data:image/png,iVBORw0KGgoAAAANSUhEUgAAARgAAAEYCAYAAACHjumMAAAydklEQVR4nOydDYgdV3bnT82IpRIEWwKz8wxGLtUYRmaGdos4WGJadDWuME9kBrUYZ2WPO0hiJm2JJFgGx6omztZ9xLNd9jpIZj1Y7jhYYtuxRBzUghn0ZrdCV6c1SCYe1O51kMKa55IwzAsYpnZXJJVFUMvtvs9qtfrj3Vv31sd75wdNHM2rW7f7X+/Uueeee84W6AFMPzUAYDf7+QYA1Og/s5+1SADgKvvvGwDwzwDQjFztao7TRpCeRyt6AjwYjrcTAB7TLXtQt2z634+wH13ibT4HgE8BIEpa4adJK/wEAD6Og0Yk8R4I0heU3sBQo2I45AQA2Bt4JHmwAACnIlc7W+AcEKRSlM7A6NbwVt2yn9Qt26Y/APAtACjTUi6my6qkFQZJK/xZ0go/Slpzd4qeFIKUkVIZGNNPDwPAJIuhVAXq2bwQuVpY9EQQpGwUamB0a3iLbtlDhkMOAcDTkmMpeXM1Dsg5AJiLg8ZC0ZNBkDJQmIFhOz/vA0C9qDko5EzkakeKngSCFM1Xirip4Xi7AeCzHjUulMOmn84ajldkUBpBCic3D4Yth75vOKTeA8uhbvkCAN5pT9k/SVpznxc9GQTJm9wMjOmn7zPD0o+0AWBf5GoYm0H6CuVLpNr47PdNP/2sj40LsF2xa2zZ9O2iJ4MgeaHUgzH99CQAHFd5jw1YeRxgNTsL3Aqn83omcrWZgu6PILmhxMAYjmcaDnlLcRA3BoBP6E8ckPaKM0VRt2n9huMZzNDQn68bDnmEGZ9B1VnDSSt8M2mFfxIHjUTlfRCkSKQbGJYs967scVewAACNPDwA00+fZx6YKmMTxQHZEweNtqLxEaRQpBoYw/G+YzikKXPMFVDDMhG5mqrx18X000MAQBQZmtORqx1TMC6CFI4UA7NiC/qUxNgGXTo0k1b406QV/m0cNGJJ4wpjON6w4ZBRVhbicYlnpGbigDQwAxjpNaQYGLaUOCVjLAZdOhwo8xfO9NM6y0Q2ZI0ZB2RXmX9nBOHlq1kupp7LQyeiPwaAVwDg32WcC/VYgjggL7anRo4lrblSxyXioPEpALxBjeGWbeZ2GZ4bOz3+i7L/7gjSLZk8GMPxDhrO0gG/rNC39kjkaoUvg0Qx/XQSAFwZY6Eng/QKwh4MC+ieBoCtGe7/OQD85/aU/cdf/M2RyhoXWPZo/g4A5nTLTthWt7BHxzyZv01ac7flzhJB8kXIg5G0FR2zLdobGccpHZJ20+jf51HcwkaqDPdRAXZCOKtxoV+aHb1oXGDZm/k5ABxgcSVRDMMhByVOC0FyR8DALGXoZmGmPWXbVY63dEPkajNJK6yzDGNRXjYcz5Y4LQTJFa4lUsazRX17Bsf002vs+IEoI1iSE6kiXXswtfHZ72cxLkkrHOtH40JpT9nfo55bhiEuGY73mMQpIUgudO3BsJILIqny1HPZg7VQMgfHZyJXOyB5SgiilE09GN0a3mL66QVR48I8l743LrAclzmTtELRXJnvmn76nOQpIYhSujAwNl0ajQqO/0x7auRvBa/tSdpTI68CwBmBS7cAwGnW3RJBKsGmSyTTT6lLf1hgbOkuPTv/89yKei0xywKeiwNypkrtXTMsOd3I1V5VMCUEkc6GHgyr/i9S6rLdnrKlpM0bjvckXaKZfvorALjEvKnOF9NgLWU9wyH/y/TT2dr47CEZ91VN0gp/JJgnc5QVykKQ0rOuB8P6Fn0mcFqYehU7ZOS5mH5KqPEQuHSBncYutUeTIeiLfZeQSrCmB6Nbw1sESxF8HgdkjwzjUhufPSloXCiDhkPmTT89UeaYReRqZwBgWuDSw1g8HKkC6xgYe0iwnu6bMtL/TT89qVt21mLhDwGAbzjkepl3X+KA/JnIdYZDfiR/NggilzUNDOsVzctCe8p+O+uEDMf7joJOBG+afnrJcLxhyeNmhi3jRgXiMXWMxSBlZ80YjOmn/8rZeZF+OR6UFHe5kGFbvBsacUD8slXzF4zHYCwGKTX3eTDsQedt6xpKPLyo+nCfZzhkUvE9uGHxGN6g9CgLxiNIKbnHwOjW8FYA4P7yxcFS4anMmH76tMwatxtw3PTT66afero1/FAO9+uKpBW+w3kJ/VtlPd2OIMpYZWDsJwVqy0Zx0LgoaT55BmN3AgCpjYfzpp8qbbLWLUkr/InAZU+zGj0IUjpWGxje5UkSB0Rmtu5uiWN1C/1yflYbn32r6C8qa81yVODSJxVMB0Eyc0+QV6BuidTjAKafprLGysDTkaudL3ICAscIzkWu9ozCKSGIEF96MCwh7Vs8Fyet8KdKZtUdYdIKxzJWjFuLadNP3zcc75BuDfMGu6WQtMIPOC8ZUjQVBMnECgNDTvB2KkxaYaEnpdtTI+9FrvYoAIywIwoy2LIc1yBnauPhBUljcpG0wp9xXvKQ6acqt/YRRIiVMRje+MtCGdq5wvIWbyh44nsz6nTZaDierHa43SJSP6d0SYQIsmRg2PKIN8A5oWZKYkSudjEOyINJKzyVsZr/agYNh/yD6acndGv4AYnjrgsz3Lw1Yw4XtaRDkPXoeDC89V4XIlfL2vdHOnHQaLenRl4AgEclx2aWzjXlvKXd4Py8oVt2aQ92Iv3JkoHRLZu34j3vw58rkatF7Sl7LwAQALgqcWj6Bb7OzjUpPc1MfwcA+ITzsm8qmg6CCNExMDxvvrgK3QGS1twXkas1IlfbQ70PiUPrywcNyWXTT4nheCqXJR9xfv4RRfNAECE6SySeB5P3rVo4katNxAEZAQDZ2+qe4ZBZw/EOsho6UokDwhXsNRzClWaAIKrpCwMDy/GZMHK17wHAEclB4N2GQ87VxsP/JnHMDh9zfr4056oQhPIVdhq3azc/Dkilm7GzU8sqtrSfZrWDZR7W5P1b572djiAb8hWB8z+Vb1gfudr5OCA74oAcFyiRsBGjAHC9Nj4rJQCctELeuaGBQUqFiIH5Z0VzyZU4aERx0HgjDsgeAJDZ97mmW/abMgZKWnMJ59x000+z9MBGEKlQA/MNzmtKXamflzhotCNXG5F8rmnQ9NO3JAV+eeeEXgxSGr7C+0CWvRWIKCvONZ2SNORR3bIflzDOP3F+voiSFwiyJl/hPCJQqjq2KmhP2X8SB6QOAKcB4HaWsXTL/l0JU8K+3khl4TUwMrNiS0nSmrsTB42fR652LA7I72Q5pc3av+TNwwXcE0HWZNPm9/1MHDSoQd2VIe4k49wSrweD5TOR0oAGZhPYuabfZueaPue8PHPAVWK3BgTJHTQwXdA518SWTDxg+QSkr5F+fqYX0a3hrbplf99wyIucl95RNCUEqQRoYDaBpf5fEGwIx7ukWuv+GFNBKssWtvXcrSvfNwWNDMczdMv+QwB4MUMzOBmJe7wGpud3+pDqsIU9kN2+nfsiS9T00+MA4GXtMhkHRMYRBN45/JuEeyKIFLiDvPTNrmYq5cD0U2pYTkpqYSsjSQ7PFiGV5St41mWZ2vjsftNPr7DtaBk0k1Y4J2Ec3sQ5mQc3ESQTWwROR9d6oWRDB+qRGQ4RDeKuRztytX2SxuL1YPBoAVIaqIFpsnhDt3y9F96SrA/1d9jWs8xatknSCkX6S9+Hbg1v5TQwtzExDykTWyJXu2r63beENhzySByUuqnApph+ehAAzikYmnoPR9pTI1K8CN2yeQ3fFzLuiyCy6AR5efI1KrtVbTjeE6af0uXQtOSh20krfDEOyJ7I1WQuUXhr9fTM0hXpDTqJdp9yFIyu5K6G6aeEcynYLU2J8ZZ7MBzC+7fuyVo9SHXpGBieB7NymaWmn54EgOMKhg7jgDyjYNwOXH/rqhdkR3qPpSVS0go/5bnI9NPnlc1IEro1/JDpp57pp9cVGJerSSscjVxthPWRVgVvdTrcQUJKxZIHk7TCT3SLa5eWfmHfUDarjLDC1xcUeFvUQ9gnOc6yJux34J0/bx8lBFFKJ8j7S87rTNNPDymYTyYMx9tp+um7AHBNsnH5AgBIe8r+7TyMC2OS8/NRr9ZLRqrLkgcTB43PDWepTSlPUJEAwFl1U+PD9NPnWB1d2URxQEby/PKyHJ0652Wl9SiR/mXlWSTeavqm4XjDkufDhW4NG4bjPWf66SUAkNKLaAVR0gr/KA7Io3l7BgLFwpM4ICryehAkE9rK/8f0019zHvI7FbnaC7ImY/pp9xl/ywHNREGbDjrmMdZithCYweTxYK5GrrZH4ZQQRIjVBaducH5hi+zBoyof53DkaucVjd0tuHuE9AT3lGtIWmHAef3jpp/yxgo2orBzNEkrPB0HZEfRxoUFqblKRUiqO4Mg0lltYH7GeT31gN43HE9WcesivigRAOxoT40cK3oXxnA86pUdFrj05wqmgyCZWW1gPhJwtw3dsp+VNJ+3JY3TDVdXbD2XYntXt2yRrX9fcbIfggijrf4H009tAJjlHGchcrVdMiZk+ulnORxH8CNXm1B8Dy5YcfFfcbY6iSJX26FwWgiSiftKZkauFgoUjh40/ZQ3MWxNklaocrt1hp14LpVxMRyvxjKPeYzLHQA4onBaCJKZr67z71t1y+YN3g4BwFzSmsu03NiyzfxH3bJ5+w9tBl1CPBO5WiNpzWVuJSKb2ng4L7Bz9Pf091E0JQSRwnpFv4VqyRoOOZhtOktZxW0Fb+bDkavNSB5TCobj2YJb7rhzhJSeNQ1MHDQWAEAk0WzMcLzvZJ1U5GpnklboZxzmRhyQw3FAHoxc7WLWOanAcDzdcIhIjZokDsh7CqaEIFK5L8i7EtNPZwWLYR+Q4TGYfjoKAO8L9HieiQPyTBw0kqxzUAnLeRHZlm5Eriar+wGCKGO9GEyHOd2yxwDgNznHHdUt+/LtX569mWFu1JO6QY2Fbtn/jxmZBzZY1n0BAP89Dsjx9tTIj5PWXKn7QtfGZ3+4ZZv5nwQu/ShyNVlpAQiilA09GFh+y04CgCsw9o3I1R4Vm9baGI5nGg6hb/zHWLYr9VA+BICFOCDNsnssHVi/6esCnhksL/sapTnFjiAbsamB0a3hh2rj4T8INlxbaE/Z3yvjzk1R1MZnv61b9geCf8+wPWXvS1pzlTCkCLKpgYG71dWuCd5jJnK1A4LX9hwZEgnbkas9qGBKCKKMrnpTsypuotuio6afigQyew4W1BXNUi7lNjuCbMRmQd6VfKpb9g/WKPHQDaO6ZSe3f3n2FwLXVh66LHrg9878fYb2tFF7yj5y59c3/4/kqSGIUrpaInVg28YXMtzvTORqfZXezgK6VwRjLsCykHdgS1ikinS1ROoQudpM0gqzlKY8bPrpZ7Xx2SczjFEZauOzP2S7RaLG5dM4ILvQuCBVhcvAwPJhxD/J2EHQ1C37p70clzEcTzf99F3dst8R2YruEAfkxaJr1CBIFnhiMEuwBLbzumVvBYDHBe+7BQBGDYc8AgDXktZcz7yhDcezDYf8Jf39MgxzGwBeak+NYL4LUmm4YjCrYY3ks3yROoyW9bxQtxiOVzMccklSreDS1atBEBG4l0griQMiq1zAuSovmUw/NQyHvC/JuMRxQLDHEdITcC+RVpK05toAcFG3bJudExKls2Q6rFu2vmWb+Y9VyFY1HG/QcMiJLdvMcwDwiIQhL8cBGWYlKxCk8mRaInVgXzTRTN/1OBq5Wp41ernIcBJ6PWLW5A2NC9IzSDEwcNfI0GXCTlljsu6KH7BuBwtFFrc2HM/ULft3dcv+Lqs+x9VaZANuA8CbdFmExgXpNaQZGLgb6Lwu8cu3mjOsFkpuW7fsHNakQK/objkeuRrGXJCeRKqBgbtG5iAAvJwxLrMRnwDAR3Gw1LD/YwBoJ60wyhK30a3hrbplPwIA3zAcMsjODO1W2OHgU5bnUundMwTZCOkGpgPLB+Ftf5KVkLW//acV/Z0WVmbCstR9k3lZ1JA8zP6vqla0axHHAdmFSXRIr6PMwMDdHkuXsmSz9iDUqJQi/Z/pY68o4LV7Ha2osW6z4l4Ra7Z/o4Ap9x1V10ipgYFlT+YxwyEEAL4reBK7V6Diz7Sn7B/nXYCL9V36tuGQx5mntlPC0i9mS9VP4oBcpQ82K3GKCNCrGik3MB1MP30OAE7ndb+SEUauNpL3Tdly8KSkbOtuoA80waB19/S6RrkZGFi20jsNh+wHgKM5tIctAx/FAXkzaYXn80ocNBxvULfsZ3XLfqrAvzF9iD+IA/JB0grnqpA0mSf9pFGuBqaD4XiG4ZCTkhPVygQV69W8W4soSP6TAXXN95Uh5lQG+k2jQgxMB8Px6JrzRyzHRLRmSlm4AwCX6XIoDsh7cdD4NI+bUmOtW/bzumUfV5h/lBVqcK8mrfD19tTIz4qeTN70s0aFGpgOKzya0RILsBERAByJXC3Xdq6mn9IH1qvY36wSTfFk0e8alcLAdDD9lIrwFgA8XfRcOCiktILpp88DwKm87yuJviidihqVzMB0MBzPBIAnDYc4ADAEAA8VPSdGwvINFuKAUG/l53mfj9Kt4a/XxsNXAOCpim/7X40DcjwOGh8WPRHZoEZ3KaWBWQ0rNj7MgmNFuJp0CfRGHJBzRR5IZB7etR7agaMGew9ri9MToEb3UgkD00G3hnXdsncCwDeZdyMzGn+b9be+QQ1KHJA281Y+LkNKf218dr9u2ad7IBi+GvoAN9tT9jFWX6iyoEb3UykDsxKWQs171ulqJ1oOAP/G/i1cfV6pbLAT3VdyOHIRrVHQvSa5BMd6VLoDKGq0Nn1lYOKA1OOg8XN1s5KLbg1vrY2Hf84SE2U9uJ04UsTSx5dOo2+WQs5S2elD/DXdsgfpD4uPbZU0L2BHKSrlyaBGG9NvBsaNg8ar6mYlF9NPTwCAL2k4+tCeiwPSkLXkY+kFxwHgeYmxsUp5MqjRxvSVgQGA05GrHVM0JamwYGGWpm0rocu/ZyJXa0oY6z7YEZC3MrTGXUllAr+o0eYaZeoqUEGcoifQDbo1nLXdbIerSSs8HAfkQVUPLix5ho0bkauNxAHZkbRCnz2AotBlxhXD8Z6QOEXpoEbdadRvHgxlJO+MW14knFdps7MlhXgB7M1+idUuEeVq5Gp7JE5LKqjREptq1G8eDOWkbg2XtgCW6aeHAGBM8PI7AHCmPWUXusSIXC1uT9nfAwDCtv9F2E2/xIbjlU4r1OhLNtWoHw3MoG7Z3yl6EmtB18mssLlo9ufLkasdSVpzheftJK25LyJXa8QBEf0iUg6zThWlATW6jw016kcDA4ZDynZcfgnDIX8qeOkXAHC8PWX/heQpZSYOGhfjgFA3ekZwiNHa+Ox+ydMSBjVak3U16scYTIddZdqpYJXNPhO5Ng7I4TholL5RfoZe5oVUBFwNarQha2rUlx4M42TRE1jFu4LXUSN5XvJclBAHRDQHaTcLShYNarQ+a2rUzwbGptZat4ZlZjkKYfqpJ5CfcAcAfOraVqW2Shw0rsYBGRUIKurUWy0yOI8abcqaGvWzgYHltWP4wyInwEpTiJTW/GnkahNVeXA7sEZzrwtcOqhb9rCCKW0KatQ192nU7waG4hqOlyUXIBO6ZYsEMOM4IC8rmE4utKfsn7ADp1wYDnlKzYw2BjXqntUaoYEBqBkOuWI4Xp6dHb9Et2yRgNqROGj8o4Lp5ELSmvsCAPYJZJMWZWBQo+65R6N+3kVazQ1WhzS3nSV2PuQa5yncZuRq+xROq2tW1Od5mP3T/05a4UdJa66r9XttfHZSt2yX87bH8+y7hBpl06jK5fxk03mQduVlZAyHnOA94h8HpBTN69iOwewaPb0jADjQTQpA0grfFnh4CQDkaGBQoywa4RJpFYZDRLciRRBxvecUzIMLVnfk2hoPLrBSkbPdLDlZSQLec2EGy6bNC9Qog0ZoYO5n0PTTX5l+6unW8AOqbsJOovLmdhzPu8j4auiDazjkbzapOWsYDnmrm3NEcUCOsVIFPORy0ho1WiaLRmhg1oZaf1IbD+cVJnjxBpXbRfd8Nv100HDIdVYlbTN2Gw7ZtP0Mq9LG9XsZDslr1w81yqgRGpiNoW7er2rjs2/J3mUyHMI7XiDz/rzUxme/z+qf8Bhcr5sPxQE5xZnY9S2OzwqDGt1FVCM0MJuj65Z91HDINdNPL0j0aLjiCHFALku6Lzf0rahb9rRAzdmuWnewJQXP75eLgUGN7iKqERoYPkYB4Nemn16vjc/+V8PxDmYIOPJ+SQppULbirSiSpt918e6kFfLs3Bmmn+YR6EWNViCiEW5Ti7FTt2z680ew7EoDO+r+MTvY1k1AjCuAnGd+TgfWikPkrdjhXLcfpA+vbnEd9amzHlYqQY1WIKJRPxmYBgDsFwjcdcuo4JZmN+T+4LJtztmMrTh4AoP/zDn2SdNPy3QiHjW6H6OfDAy0p+yna+PhOYVGRhVd5yEYjrdbt+z9rCeOzrypG3FAprtNXV+xzSkcb0pa4en21AhP1TbV3ohqUKP7eaKfjgo0IlcjkK2oTlEciFxt02pjpp8+DwCn1vmfu2o1wVzu2Yw9dBZEShSYfppmuGfRoEZr3KMvg7ztKfv3WTpz4XVRu2TTmI7pp3UAeGWDjyy1mmABwTUR3OZczQcZ6p9U2YtBje5nsC8NTNKaux25GvVodmSoQ5obm7VZYdmYl7poEarrlj3N3oD3kGGbcyX0rfj7GeqfVKZl7GpQo7XpSwOzkvaU/UwcLBUB/6TouWTg2xyfXXpLmn56slPNL+M2J7AErONVqtxWAH2pUV8Fedciac0lSWvuLACcNxwySUUoek4CPMT5efqQHq+NL710z2bc5gTWiqPQFPkK0Jca9b0H04Fa9cjVXsjYrU8JCs9DHZWwzUld7rclzqmSoEZrgwZmFZGrnY0Dso0VPn5H4BSpCjbbVv9UcFy9wGDhWnSVtl5SUKM1QAOzBnHQiOOgcTFytT+IXG0b82qKNDSbifrLAuaXNVi4FlU2MKjR/YRoYLqAejXU0MQBGYwDQl1WHwB+yra57+QwhQ3rn9AHKA7Ivhx3YWS/FSHnIlIqQI3uJ+77IC8PcdD4GAA+joPGl/9mOJ7Oal8MMlf2sS5dWp5DHfUu5naVrtcNh6jedlfxVgRWg4eHKIc8JtToXng1+hgNTEaW30yNkLesoOmn/7eLnIgvP244Xi0OGhu+/Vg/m1HDWaoJy/swbMZtAHg5DsjbirY5H+P8/JHNck+yghrdB69GIRqY4vics94IdcEvbvYh9gCDgrek0m1O3ip1qo0LAzVagYhGGIMpDt61eNfBNfYAn+Gf0rrksc3JEzzM64gHanQv3BqhgSkIzuI99O3BVYgjcrUjbKs9a1BRerBwNaw1K88J91zOLKFGdxHVCA1MQfA+vN0EEVdD35Js10sUVcHCezAc4nEmkuVSewU1uouoRmhgioO3vKJu+ulbvDdhD7DIW1L5WxHunjDetLL9SuKAfKRuRveAGmXUCA1MQbBWELyxhKPMVeW9F+9b8kzkar+n/q24dML4fYE0+F8omtI9oEbZNUIDUyy8LTlBt+wfityoy7dkm34mcrUjIvfgRbfsgwJp8DObbQVLBjXKoBEamAKJXO08r1vcKTQuAnuAR9Z5K8dxQA50tlDzQLdskdjDCwqmsi6oUTaN0MAUz1XOzxumnxLRm1G3nxXaOgAAp1nBrWPLRyEavHMRhhVU4u3QGEWuVkQVQtSoe+7RCBPtCiZphTO6ZfPWB/Zq47Pz7amRvxO9L6sfW0g1P90aNll1Ny6SVviBmhltel/UqEtWa4QeTMEkrfC8yHW6Zb8ufzb5UBsPPZE0+aQVvqdmRpveFzXqktUaoYEpGLYLcJhVlOdh0PTTC6w3TiXQreEtpp+eAIAxgcvPFNHYDFAjHu7TCA1MCYhc7SwAvCpw6ajhkOtVeYBr4+EfslIXvEvzOK9dk/VAjTZlTY3QwJSEOCC+YOFxw3DI35T5AV4uaeEdEtnyhWW3e70+QrmCGq3PehphkLckMDf8dcMhIgfghuhbEgAezTlHZFNYvZwrGbppxkkrLEVBcdRoXdbVCD2YcnExQ1lF+pbkTlNXDTvDkqVVbyMOGmWoi9wBNbqfdTVCA1MilmsBL5VVFH2AR00/vVYbn31S8tS4MRzvm6xF74uCQ9wBgOORq5ViedQBNbqHTTVCA1MyWCJVli/VoG7ZQZZEr6yYfjpqOOQy6/8tugz/oKy9llCjL9lUIzQwJaQ9Zf+FhAQrz/TTX9fGZ/9c5PAdL4bjGYbj7Tf99BIAXMjYaiNqT9kvS5yedFCj7jTSMtygUEw/tVlDqm5pRK5W2BtDBOpKZ1wbr+R05GrHJI11D6afPp/xjb6SNgA8GrlameIu64IabQwamBKjW8PfqI2HocTi0AkANOOAhOww3YciOxqG49Ev1BOGQ4YAwJE5v6QVPt2eGsntMF9WUKONQQNTclhL0lmJb8nV0Ie4yYor0f9eWPlmMv10N3s4h1kbD1XzoF+sPZGrFZKtmwXUaH3QwFQA9gBfV9DmokycYr3BKwlqtDYY5K0A9G3VnrLtvGrR5gx1/0l7yv6zoieSBdRobdDAVISkNfdPkavtKur4viJusGBhI2nN3S56MllBje4HDUzFaE/Zv0/fJgU348/KHQA4056y91Vlt4gH1OguaGAqBn2L0LdJxmzSovlR5GpHktZcEdXplIMa3QUPO1YUlk26AwD2Gw55EQC+VfScumA6DsiPWbX+ngc1QgNTadgBs7MAcN5wiAsAJwTaS+RByJrV96THshH9rhFuU/cQpp8ektzvWAaELheKnkRZ6DeNMAbTQ0SudjYOyG8krfAw28koou5IAgBXk1b4YhyQHWhc7qXfNEIPpscx/fQgK4Go+jBdvNxwi7zaLzEWWfSyRhiD6XFY47DzhuPtBIAndMsepD8s4/QhANgqMOwXrHTkjTggC8sN2Bu8fZwRRi9rhB5Mn8Oaa+1kP/9+jXMsEQDcZP83ilwtLGiqfUuVNUIPps9hB9d6Mb29Z6iyRhjkRRBEGWhgEARRBhoYBEGUgQYGQRBloIFBEEQZaGAQBFEGGhgEQZSBBgZBEGWggUEQRBloYBAEUQYeFehzqnzOpV+YaPJpNFkvj0ZoYPoEWSd1TT+FspzU7TWGxpY12j5gDz48IK7RRPNejeanlzW6PI2nqbsGT1N3Ry/XGukVJpr5ajQ/TV69PJ2PRv1kYJQ1Fi8ThuPpumUf1C17FAB2F9BpsFMtbSZphRfjoNF3dXg3Y2jM07cP2AcfHihWo5uL4cytxfDi5Wl1GlXZwBgA8GuOS8LI1UYUTqlw+q3eaxWZaJZTo8m6Go0qa2Bg+QuVcnw8jlxtm8LpFAb1WvqxYn2VoF7L3rHyazRZl6vRV2UOljeGQ45yBMCoqD9JWnP/onhauWE4nkGXQ4ZD6BvxP5Y4aG8CwHHDIY8AwPWkNfdF0RPKi6Exz6DLob1j1dBo79iyRrcW5WhUdQ/m2hpbdusSB2QPa4ZVeQzH22045BL9z6LnIsDhyNXOFj0J1QyNebv3jlVXo8l6do2qnmjH6849pmgeuaFbw1tNP/UqbFwo75h++q5uDaveNSmE7QPDWyeaqVdh40J5Z6KZvrt9IJtGVfdgJgHA5bik8jtJpp9eAIDRouchiRsAsKfXGuBPNHtPo8m6mEaV9mDigPDu5e9WNBXl6NbwN9iSsFceXGCZqddNPz1BPbOiJ5OV7QPD35ho9qZGE830BPXMeC+utAdjON6g4ZBrnJftqNpuBtuSv15AvkSenIpc7YWiJyHKRLM/NJqs82lUaQ9GIAYDVXu7MOMyq/DBpX/D0wBwBABGAGBb5Gpa54f92wH6cClunXGUnYuqHMy45KrRZF3TOj95asTORXVNpT0YWP4CXgKAOsclcXvK3pG05kq/7qfLotp4GEp8cBMAaMYBCdlD+2EcNLh7I1PPEQCeMBwyBACOzPklrfDp9tTIRUnjKYcui559Tb5G89N3Nbo8za/R0NiyRnvH5Gt0czF8+q9f6k6jXjAw1CO5wHNNHJDDcdAo/TYp7zb8JigLcJt++jx7e8qAfpkerUrgl8VcpGk0WVej0URTvkbdBH6rvkSCyNVmAIArt8VwSKmXSWwr+oKEBzdOWuErcUB2qNw9i1ztjTgg2+Jg6e/azDgcfdNe063hr0uanhLYVrQUjW4uhq/MT5MdqowLZbKuvTE/TbbNT8vTaPvA5hpV3oOBuzVNeIO9u1hLztJh+qkHAFlPfhd2epx5le9mzAE5F7naMxKnJZWJphyNJuvFaDTRlKPRZH1jjSrvwcDd3r2fcF52wXC80iV6GY63GwCOZxhiIWmFTpGlKahXGQdLa3/qXd4RHOYptvQqHUNj2TW6uRg6RRkXWPZoZuans2vEll7r0hMeDIi/9aM4II/GQSNRNC0uDMczDId8luGtMhO52gHJ08qEQDLkal6IXE1W7CAzQ2OesXcsm0aT9XJpNNHMrtFkfW2NesKDgeXArchyh3owwwqmI8r+DA9uHAekdFnKcUAaGbdOPWp4JU4pK5k0mp8un0bz09k1ooZ3rf+h0qepV3Fz628d/i7vdpxu2Y8AwHtJa07UTZQCK7lwBgD+g8Dll+OADItsOauG/V3PJq3wU92yqUv+m5xD6HSY2788O6doil3DSi4IazQ/TYZFtpxVc2txWaNbi+GnDw+Ia/Q//8f9GvXMEgmW3XHqkXwmcGnhSwvTT+nyzhO4NGbLvNI9uKvJsJ1dilo+E01xjeanyaNlNC6rybCdHU/W79eoZ5ZIsBxcjFjQipfR2vhsYQFFVonuhMClM1UxLpT2lP0Tttbn9RYN00/fVTStrmCV6IQ0qopxobz3krhGE837NeopDwaWlxq24RCeWr0dEnayN9eta7Y0+leBSxciV9ulYErKYcbiMO91cUB2xUEj99QCtjQS0miyXk2NmLHg1mh+muy6PH1Xo57yYGBpzR9eZuc2eKHryCu18dnvK5jW+je17IMi1yWt8EX5s8mH9pTdYNmgXOiW/ayaGW3M9gExjW4uVlej914S02j7wL0a9aCBmbvDslZF2jLoumVP53nojlX/56XRnhr5OwXTyYWkNUeXsvt4r9Mt+yk1M9oYVv2fl8Zfv1RdjW4timn08MC9GvWcgVnBOcHrqCczm6OR4a1RE/dCfye2FOUtX2qyQH7ecGtUZBKdLCbrYhpNNO9q1LMGhgUURdfrBgBcq43P/qnkad0Da4rGta2etMI31c0oX5JWKLKUPalgKuvCmqJxaXRzsXc0urmYTaOeNTCscv1IlgQi3bJfMf10VmGil897QdIK/0rNVPInaYXnWbdBHkYNx8uzqBO3RrcWe0ejW4tiGg2NLWvUswYGlt3wOA7IvoxZiku7UobjHdStYWn9bFivaF53/3QvdUpkRzSeYTt4PHxb0ZTugfWK5tZIZafEvLk8nU2jnjYwsPwQtyWk0A8aDjlXGw+56s5swhOcn0+qXrB8LSJXa/LGywyHPK5uRvfArZHKkgtFMVnn12jv2LJGPW9gYNnIXGW1SrImO9VNP/216acXDMfbn2Ug3bJ5g8hZa3iUFnZeiecNmUsAfvsAatSBnVfi1qgvDAwsG5mLcUBkRPaN5TgAmTH99DNW+4QbXgPDylz2JGzZx7OM3alwOl/yMKeBYWUuexK27OPWqG8MDOOs5KLIdH1+gXo0pp/ybmXyBip7Zl2/Djy/X15b1ajRvXBr1FcGJg4aSRyQPYLboxtBvZgrpp9eN/30Um18dtJwvEOG4z2+QVGrhzjv8aGEeZaWOCBc+Ramn9rqZvMlqNEK5qf5NJpopnZZG3ErY3nnonHM9FNd5KzFJlC3cKdu2XXduvv8G87Syixa9QbgaWIViR5onGimdQB4ji3tYgB4mwXtMjM05g3uHSPPr/Ao5uanyWnBg30fc36e/oGFlyTsfNFuptlqT+Vr7N+5NKrKgcYMcGvUdwamQ+RqRwzHe8NwyF8CQB67EmYG157LIGwfGN6yfcD+4d4xcniNLNTRiWZ6dX6anLm1GP4VqwXCxfaB4a8/+1r4CvPcVm7d29Tg7B0jp997yf7xrcW52xzD8n45hfqMM6NIDe5TAPCAyBjr0LMB3hVwa9RXS6TVxEFjIQ7I7yhuViUDLtd7+4D9LP2Sb5Divpv+76sPpnXLs6+FrwPA06uMSwfqKbnPvhZyZUHHQYP37Bh38iMzLtcA4Khk4wK9vjyC5UAvt0Z9bWBg+cGOI1fblbTC4wIZi3nBFTzcO0a6Kkjd7edWwlLnv9vFR492sjk54Pk9uWMwe8fIf+G9hoNeD/B24NKo7w1Mh/bUyBsAsEPgcFcedO1hsdae3W6vDvK2AmWp890srY29Y+Qo59jKvqTsAJ6javwKeMGy4NIIDcwK2NGCA1mChyrg7HLI+2bn/TxPHKlMBdWVJud10+WwH0EDs4o4aLQjVxuJA7ILAN4ROINRNLyxia4/PzTmSTuLVQCVbKxfddDArEMcNBYiV/sDAHiwYjsEvN5X159nB9943tRlikv0yxKmVKCB2QS6PIlcbR/1aJJW6LMHNVevhiepjCVDfd7lxz/nTZ7iKF+QzE+TNzjHVlaGgaXxK1vGTDRzSfwrA1waoYHpEurRtKdGJlih7QdF6oRkoOtlDPMy3uny4++wz3fNZF17tctypDMriz93Cc8ZI66xL0834gxVDruhTM3hVMKlERoYAZhXMxEH5DfigAzFwdJ27xn20KvI5uQKlr73kv0XrLfNem9s+u+n2Oe4ubkY/mgDI3OHGpf3XrJf5hlToIgU99+ZFbIWaWvTDWUKaCtBIO2g3beZvDJgBZN+QX/ioPHlv9Mvi+EspaE/wZLdjIxBRi73+9bi3O3JuvYCALww0UzfYollHU5nrVny1y+N0N/50YlmeoL10Om8vSP6/0/WtfMCw/KekOZObLu1ONeerGsH2Nb8+5JPZffDEolbIzQwClguctWY2ehtafppyjGksHFixkRJESS2XHpV0nBf4/y8cDxlsq4tDI15u9hZJH2tmNpkXQsnmvloVCG4NUIDUxxf8KSrG443WETTsbzIuwDX5elGcnm6sdkOGpdGQ2PeoEDcqTKIFODCGExxfML5ed7yjZWC08DEkauJ9L3iBTVaAWcBrniyrt1AA1McXF8QwyFD6qZSLKxrA8/vx/vFF4VLo71jvavR0JiYRmhgCiIOCK8rrfIcTaEYztIuHE/tlVwMzPw0atSBHYzl1ggNTHHwPrw100+fVzSXwmDtW7h+L97qdxng1mii2XsasfYtXL9XJ4ETDUxBxEHjQ4GdkFMKm8AVguGQtwSS1HKpvXJ5WkwjtpzoGfaOiWuEBqZYRJK+eiahi9Ur5s0fiQWKU2WhrzUaGhPTqFOcCg1MgcQBeZX3XJPhcNdYKS26ZT8ncFmuTeXnp/k1EqiDU1q2D2TTSJM7HYQX00+vbFDacj0ORK6mKuU9F0w/pS73r9Ypu7keceRq2xROa00mmmIaTdarrdFEU0yjyfpdjdCDKZikFYocwHvXcLxvKphOLujW8AMAcInzwaV8oGhKG3JzUUyjobHqarR9QI5GaGAKJmmFFwUuMwyHvKJgOrlQGw//UMAjoEvKQgzMrUUxjfaOVVejZ18T02h+mqCBKROsbapIXOG7pp9OGk61qsyxnt4vCly6kLTCOQVT2hTWNlVIo4lmOlm1SoBDY+Ia3Vq8VyOMwZQE009nBU/kLsQB2cNOdpcaw/F2Gw65InAp/d0e5KxNLJ2JprhG89NkD2/tnSIYGvN27x0T12h1bWL0YMrDEcHrBgHgoOS5KMFwyAnBS68WbVwYPa/R3jFxjdYqfI4GpiRErkbd8GmRaw2HvG766fO6NVzK0/HUczH99ALrBMlN0gpPyZ8VP5N1cY32jpHXJ5rp89sHyqkR9VwmmuIa3VxcW6OvZp4ZIpPrumX/kcB1vwkA9a2/dfhf4qDxCwXzEsZwvP2GQ4IMxZ1mPn91R0PytLJw/eEBcY0Gfufwv1yeLpdGQ2Pe/r1j2TR669DaGqEHUyJYhuphVnZShFdMP31Xt4ZFe2BLQ7eGHzD91DMcIvTGZ5yJA/KMxGllhmWoZtJoopm+u32geI22Dww/MNFMvb1j2TSan15fIwzylhBqJNhDLEobAPZFrlZI8SOWRHdJZJtzBVcjV9sjcVpSoUZChkaT9WI0Ykl0mTWarG+sEXowJaQ9tVScOst5mxoAXDP99EptfPZQXlvZhuOZtfHZSZb9meXBTVgh9dLCCohn1miimV75wWuzh/Layh4a88wfvCZHo/npzTVCD6akMC/guqReQTEAPBO5mpIGcobj7WSnomUUvk4AYE9R3hcPzAuQqtFkXY1GQ2PeTnYqWppG3Xhf6MGUFLYtK2v3hH4RLtClFzvBLGdQxzNMPyUst0VWVf1mFYwL3O1HLVUjuvRiJ5ilMDTmGRPNlLDcFmkadbu0Qw+mxOjW8NbaePjnrO2ILBc6YYWUIla46WO6KtusBALrW7QTAL6mW/Ygq6E7xFnlbDNm2lP2saQ1p6K3lBK2DwxvffY1dRqxwk1LGnVKIKwH61u0pNH2AXuQ1dCVrtF7L9nHbi12pxEamApg+kt9fK5IfIDXI1qjn3RNcv+g9ZiJXO1ADvdRAuu11PMaTdb5NEIDUxFq47P7dcs+rbJ/c0HQt3Wzap7LWvzgtdn9Dw/0rkY8nksHNDAVggV+r9H/LHoukqhMQLdbWOC35zQS3U7HIG+FiFwtbk/ZDmviLproVRauxgGxe8m4AAv8vvdS72g0P03sLLk66MFUFNZhoBRndAQ4E7ma6MHBysA6DFRWo8l6do3Qg6kokau9AQAvZOnRXBAzcUCU9MouG5P16mo0Py1HIzzsWGHioHEVAN6m6+Qt28zBHHYwRKHr+MtJKzz++as7GklrrupLh665PH1XI+Nr5dfo5mJ4/K1DOxq3FuVohEukHkLCGSYV0PX7SEnquRSOhDNMKljSaK16LllBA9NjGI43qFv2s7plP1XgTgZ9UD+IA/JB0grnktZc6Su55cnQmDe4fcB+9uGB4jWanyYf3FoM524tqtEIDUwPY/opfXhPihYREoA+tITFh5AumGgWoxGLDykHDUwfwNL8v2045HFWvnGnhDdnzBqcf8KOHHyYc8fFnoKl+X9775gajdiRgw83O24gGzQwfYzppzY7APcYO2y33mG4BVa/pNOruRm5GhqTHJhoims0WS9eo/8fAAD//7BDnqfZ2hPbAAAAAElFTkSuQmCC;" vertex="1" parent="1">
          <mxGeometry x="930" y="110.00000000000001" width="84" height="84" as="geometry" />
        </mxCell>
        <mxCell id="bGog2chpQkW4qfJzp0Gv-7" value="" style="shape=image;verticalLabelPosition=bottom;labelBackgroundColor=default;verticalAlign=top;aspect=fixed;imageAspect=0;image=data:image/png,iVBORw0KGgoAAAANSUhEUgAAARgAAAEYCAYAAACHjumMAAAydklEQVR4nOydDYgdV3bnT82IpRIEWwKz8wxGLtUYRmaGdos4WGJadDWuME9kBrUYZ2WPO0hiJm2JJFgGx6omztZ9xLNd9jpIZj1Y7jhYYtuxRBzUghn0ZrdCV6c1SCYe1O51kMKa55IwzAsYpnZXJJVFUMvtvs9qtfrj3Vv31sd75wdNHM2rW7f7X+/Uueeee84W6AFMPzUAYDf7+QYA1Og/s5+1SADgKvvvGwDwzwDQjFztao7TRpCeRyt6AjwYjrcTAB7TLXtQt2z634+wH13ibT4HgE8BIEpa4adJK/wEAD6Og0Yk8R4I0heU3sBQo2I45AQA2Bt4JHmwAACnIlc7W+AcEKRSlM7A6NbwVt2yn9Qt26Y/APAtACjTUi6my6qkFQZJK/xZ0go/Slpzd4qeFIKUkVIZGNNPDwPAJIuhVAXq2bwQuVpY9EQQpGwUamB0a3iLbtlDhkMOAcDTkmMpeXM1Dsg5AJiLg8ZC0ZNBkDJQmIFhOz/vA0C9qDko5EzkakeKngSCFM1Xirip4Xi7AeCzHjUulMOmn84ajldkUBpBCic3D4Yth75vOKTeA8uhbvkCAN5pT9k/SVpznxc9GQTJm9wMjOmn7zPD0o+0AWBf5GoYm0H6CuVLpNr47PdNP/2sj40LsF2xa2zZ9O2iJ4MgeaHUgzH99CQAHFd5jw1YeRxgNTsL3Aqn83omcrWZgu6PILmhxMAYjmcaDnlLcRA3BoBP6E8ckPaKM0VRt2n9huMZzNDQn68bDnmEGZ9B1VnDSSt8M2mFfxIHjUTlfRCkSKQbGJYs967scVewAACNPDwA00+fZx6YKmMTxQHZEweNtqLxEaRQpBoYw/G+YzikKXPMFVDDMhG5mqrx18X000MAQBQZmtORqx1TMC6CFI4UA7NiC/qUxNgGXTo0k1b406QV/m0cNGJJ4wpjON6w4ZBRVhbicYlnpGbigDQwAxjpNaQYGLaUOCVjLAZdOhwo8xfO9NM6y0Q2ZI0ZB2RXmX9nBOHlq1kupp7LQyeiPwaAVwDg32WcC/VYgjggL7anRo4lrblSxyXioPEpALxBjeGWbeZ2GZ4bOz3+i7L/7gjSLZk8GMPxDhrO0gG/rNC39kjkaoUvg0Qx/XQSAFwZY6Eng/QKwh4MC+ieBoCtGe7/OQD85/aU/cdf/M2RyhoXWPZo/g4A5nTLTthWt7BHxzyZv01ac7flzhJB8kXIg5G0FR2zLdobGccpHZJ20+jf51HcwkaqDPdRAXZCOKtxoV+aHb1oXGDZm/k5ABxgcSVRDMMhByVOC0FyR8DALGXoZmGmPWXbVY63dEPkajNJK6yzDGNRXjYcz5Y4LQTJFa4lUsazRX17Bsf002vs+IEoI1iSE6kiXXswtfHZ72cxLkkrHOtH40JpT9nfo55bhiEuGY73mMQpIUgudO3BsJILIqny1HPZg7VQMgfHZyJXOyB5SgiilE09GN0a3mL66QVR48I8l743LrAclzmTtELRXJnvmn76nOQpIYhSujAwNl0ajQqO/0x7auRvBa/tSdpTI68CwBmBS7cAwGnW3RJBKsGmSyTTT6lLf1hgbOkuPTv/89yKei0xywKeiwNypkrtXTMsOd3I1V5VMCUEkc6GHgyr/i9S6rLdnrKlpM0bjvckXaKZfvorALjEvKnOF9NgLWU9wyH/y/TT2dr47CEZ91VN0gp/JJgnc5QVykKQ0rOuB8P6Fn0mcFqYehU7ZOS5mH5KqPEQuHSBncYutUeTIeiLfZeQSrCmB6Nbw1sESxF8HgdkjwzjUhufPSloXCiDhkPmTT89UeaYReRqZwBgWuDSw1g8HKkC6xgYe0iwnu6bMtL/TT89qVt21mLhDwGAbzjkepl3X+KA/JnIdYZDfiR/NggilzUNDOsVzctCe8p+O+uEDMf7joJOBG+afnrJcLxhyeNmhi3jRgXiMXWMxSBlZ80YjOmn/8rZeZF+OR6UFHe5kGFbvBsacUD8slXzF4zHYCwGKTX3eTDsQedt6xpKPLyo+nCfZzhkUvE9uGHxGN6g9CgLxiNIKbnHwOjW8FYA4P7yxcFS4anMmH76tMwatxtw3PTT66afero1/FAO9+uKpBW+w3kJ/VtlPd2OIMpYZWDsJwVqy0Zx0LgoaT55BmN3AgCpjYfzpp8qbbLWLUkr/InAZU+zGj0IUjpWGxje5UkSB0Rmtu5uiWN1C/1yflYbn32r6C8qa81yVODSJxVMB0Eyc0+QV6BuidTjAKafprLGysDTkaudL3ICAscIzkWu9ozCKSGIEF96MCwh7Vs8Fyet8KdKZtUdYdIKxzJWjFuLadNP3zcc75BuDfMGu6WQtMIPOC8ZUjQVBMnECgNDTvB2KkxaYaEnpdtTI+9FrvYoAIywIwoy2LIc1yBnauPhBUljcpG0wp9xXvKQ6acqt/YRRIiVMRje+MtCGdq5wvIWbyh44nsz6nTZaDierHa43SJSP6d0SYQIsmRg2PKIN8A5oWZKYkSudjEOyINJKzyVsZr/agYNh/yD6acndGv4AYnjrgsz3Lw1Yw4XtaRDkPXoeDC89V4XIlfL2vdHOnHQaLenRl4AgEclx2aWzjXlvKXd4Py8oVt2aQ92Iv3JkoHRLZu34j3vw58rkatF7Sl7LwAQALgqcWj6Bb7OzjUpPc1MfwcA+ITzsm8qmg6CCNExMDxvvrgK3QGS1twXkas1IlfbQ70PiUPrywcNyWXTT4nheCqXJR9xfv4RRfNAECE6SySeB5P3rVo4katNxAEZAQDZ2+qe4ZBZw/EOsho6UokDwhXsNRzClWaAIKrpCwMDy/GZMHK17wHAEclB4N2GQ87VxsP/JnHMDh9zfr4056oQhPIVdhq3azc/Dkilm7GzU8sqtrSfZrWDZR7W5P1b572djiAb8hWB8z+Vb1gfudr5OCA74oAcFyiRsBGjAHC9Nj4rJQCctELeuaGBQUqFiIH5Z0VzyZU4aERx0HgjDsgeAJDZ97mmW/abMgZKWnMJ59x000+z9MBGEKlQA/MNzmtKXamflzhotCNXG5F8rmnQ9NO3JAV+eeeEXgxSGr7C+0CWvRWIKCvONZ2SNORR3bIflzDOP3F+voiSFwiyJl/hPCJQqjq2KmhP2X8SB6QOAKcB4HaWsXTL/l0JU8K+3khl4TUwMrNiS0nSmrsTB42fR652LA7I72Q5pc3av+TNwwXcE0HWZNPm9/1MHDSoQd2VIe4k49wSrweD5TOR0oAGZhPYuabfZueaPue8PHPAVWK3BgTJHTQwXdA518SWTDxg+QSkr5F+fqYX0a3hrbplf99wyIucl95RNCUEqQRoYDaBpf5fEGwIx7ukWuv+GFNBKssWtvXcrSvfNwWNDMczdMv+QwB4MUMzOBmJe7wGpud3+pDqsIU9kN2+nfsiS9T00+MA4GXtMhkHRMYRBN45/JuEeyKIFLiDvPTNrmYq5cD0U2pYTkpqYSsjSQ7PFiGV5St41mWZ2vjsftNPr7DtaBk0k1Y4J2Ec3sQ5mQc3ESQTWwROR9d6oWRDB+qRGQ4RDeKuRztytX2SxuL1YPBoAVIaqIFpsnhDt3y9F96SrA/1d9jWs8xatknSCkX6S9+Hbg1v5TQwtzExDykTWyJXu2r63beENhzySByUuqnApph+ehAAzikYmnoPR9pTI1K8CN2yeQ3fFzLuiyCy6AR5efI1KrtVbTjeE6af0uXQtOSh20krfDEOyJ7I1WQuUXhr9fTM0hXpDTqJdp9yFIyu5K6G6aeEcynYLU2J8ZZ7MBzC+7fuyVo9SHXpGBieB7NymaWmn54EgOMKhg7jgDyjYNwOXH/rqhdkR3qPpSVS0go/5bnI9NPnlc1IEro1/JDpp57pp9cVGJerSSscjVxthPWRVgVvdTrcQUJKxZIHk7TCT3SLa5eWfmHfUDarjLDC1xcUeFvUQ9gnOc6yJux34J0/bx8lBFFKJ8j7S87rTNNPDymYTyYMx9tp+um7AHBNsnH5AgBIe8r+7TyMC2OS8/NRr9ZLRqrLkgcTB43PDWepTSlPUJEAwFl1U+PD9NPnWB1d2URxQEby/PKyHJ0652Wl9SiR/mXlWSTeavqm4XjDkufDhW4NG4bjPWf66SUAkNKLaAVR0gr/KA7Io3l7BgLFwpM4ICryehAkE9rK/8f0019zHvI7FbnaC7ImY/pp9xl/ywHNREGbDjrmMdZithCYweTxYK5GrrZH4ZQQRIjVBaducH5hi+zBoyof53DkaucVjd0tuHuE9AT3lGtIWmHAef3jpp/yxgo2orBzNEkrPB0HZEfRxoUFqblKRUiqO4Mg0lltYH7GeT31gN43HE9WcesivigRAOxoT40cK3oXxnA86pUdFrj05wqmgyCZWW1gPhJwtw3dsp+VNJ+3JY3TDVdXbD2XYntXt2yRrX9fcbIfggijrf4H009tAJjlHGchcrVdMiZk+ulnORxH8CNXm1B8Dy5YcfFfcbY6iSJX26FwWgiSiftKZkauFgoUjh40/ZQ3MWxNklaocrt1hp14LpVxMRyvxjKPeYzLHQA4onBaCJKZr67z71t1y+YN3g4BwFzSmsu03NiyzfxH3bJ5+w9tBl1CPBO5WiNpzWVuJSKb2ng4L7Bz9Pf091E0JQSRwnpFv4VqyRoOOZhtOktZxW0Fb+bDkavNSB5TCobj2YJb7rhzhJSeNQ1MHDQWAEAk0WzMcLzvZJ1U5GpnklboZxzmRhyQw3FAHoxc7WLWOanAcDzdcIhIjZokDsh7CqaEIFK5L8i7EtNPZwWLYR+Q4TGYfjoKAO8L9HieiQPyTBw0kqxzUAnLeRHZlm5Eriar+wGCKGO9GEyHOd2yxwDgNznHHdUt+/LtX569mWFu1JO6QY2Fbtn/jxmZBzZY1n0BAP89Dsjx9tTIj5PWXKn7QtfGZ3+4ZZv5nwQu/ShyNVlpAQiilA09GFh+y04CgCsw9o3I1R4Vm9baGI5nGg6hb/zHWLYr9VA+BICFOCDNsnssHVi/6esCnhksL/sapTnFjiAbsamB0a3hh2rj4T8INlxbaE/Z3yvjzk1R1MZnv61b9geCf8+wPWXvS1pzlTCkCLKpgYG71dWuCd5jJnK1A4LX9hwZEgnbkas9qGBKCKKMrnpTsypuotuio6afigQyew4W1BXNUi7lNjuCbMRmQd6VfKpb9g/WKPHQDaO6ZSe3f3n2FwLXVh66LHrg9878fYb2tFF7yj5y59c3/4/kqSGIUrpaInVg28YXMtzvTORqfZXezgK6VwRjLsCykHdgS1ikinS1ROoQudpM0gqzlKY8bPrpZ7Xx2SczjFEZauOzP2S7RaLG5dM4ILvQuCBVhcvAwPJhxD/J2EHQ1C37p70clzEcTzf99F3dst8R2YruEAfkxaJr1CBIFnhiMEuwBLbzumVvBYDHBe+7BQBGDYc8AgDXktZcz7yhDcezDYf8Jf39MgxzGwBeak+NYL4LUmm4YjCrYY3ks3yROoyW9bxQtxiOVzMccklSreDS1atBEBG4l0griQMiq1zAuSovmUw/NQyHvC/JuMRxQLDHEdITcC+RVpK05toAcFG3bJudExKls2Q6rFu2vmWb+Y9VyFY1HG/QcMiJLdvMcwDwiIQhL8cBGWYlKxCk8mRaInVgXzTRTN/1OBq5Wp41ernIcBJ6PWLW5A2NC9IzSDEwcNfI0GXCTlljsu6KH7BuBwtFFrc2HM/ULft3dcv+Lqs+x9VaZANuA8CbdFmExgXpNaQZGLgb6Lwu8cu3mjOsFkpuW7fsHNakQK/objkeuRrGXJCeRKqBgbtG5iAAvJwxLrMRnwDAR3Gw1LD/YwBoJ60wyhK30a3hrbplPwIA3zAcMsjODO1W2OHgU5bnUundMwTZCOkGpgPLB+Ftf5KVkLW//acV/Z0WVmbCstR9k3lZ1JA8zP6vqla0axHHAdmFSXRIr6PMwMDdHkuXsmSz9iDUqJQi/Z/pY68o4LV7Ha2osW6z4l4Ra7Z/o4Ap9x1V10ipgYFlT+YxwyEEAL4reBK7V6Diz7Sn7B/nXYCL9V36tuGQx5mntlPC0i9mS9VP4oBcpQ82K3GKCNCrGik3MB1MP30OAE7ndb+SEUauNpL3Tdly8KSkbOtuoA80waB19/S6RrkZGFi20jsNh+wHgKM5tIctAx/FAXkzaYXn80ocNBxvULfsZ3XLfqrAvzF9iD+IA/JB0grnqpA0mSf9pFGuBqaD4XiG4ZCTkhPVygQV69W8W4soSP6TAXXN95Uh5lQG+k2jQgxMB8Px6JrzRyzHRLRmSlm4AwCX6XIoDsh7cdD4NI+bUmOtW/bzumUfV5h/lBVqcK8mrfD19tTIz4qeTN70s0aFGpgOKzya0RILsBERAByJXC3Xdq6mn9IH1qvY36wSTfFk0e8alcLAdDD9lIrwFgA8XfRcOCiktILpp88DwKm87yuJviidihqVzMB0MBzPBIAnDYc4ADAEAA8VPSdGwvINFuKAUG/l53mfj9Kt4a/XxsNXAOCpim/7X40DcjwOGh8WPRHZoEZ3KaWBWQ0rNj7MgmNFuJp0CfRGHJBzRR5IZB7etR7agaMGew9ri9MToEb3UgkD00G3hnXdsncCwDeZdyMzGn+b9be+QQ1KHJA281Y+LkNKf218dr9u2ad7IBi+GvoAN9tT9jFWX6iyoEb3UykDsxKWQs171ulqJ1oOAP/G/i1cfV6pbLAT3VdyOHIRrVHQvSa5BMd6VLoDKGq0Nn1lYOKA1OOg8XN1s5KLbg1vrY2Hf84SE2U9uJ04UsTSx5dOo2+WQs5S2elD/DXdsgfpD4uPbZU0L2BHKSrlyaBGG9NvBsaNg8ar6mYlF9NPTwCAL2k4+tCeiwPSkLXkY+kFxwHgeYmxsUp5MqjRxvSVgQGA05GrHVM0JamwYGGWpm0rocu/ZyJXa0oY6z7YEZC3MrTGXUllAr+o0eYaZeoqUEGcoifQDbo1nLXdbIerSSs8HAfkQVUPLix5ho0bkauNxAHZkbRCnz2AotBlxhXD8Z6QOEXpoEbdadRvHgxlJO+MW14knFdps7MlhXgB7M1+idUuEeVq5Gp7JE5LKqjREptq1G8eDOWkbg2XtgCW6aeHAGBM8PI7AHCmPWUXusSIXC1uT9nfAwDCtv9F2E2/xIbjlU4r1OhLNtWoHw3MoG7Z3yl6EmtB18mssLlo9ufLkasdSVpzheftJK25LyJXa8QBEf0iUg6zThWlATW6jw016kcDA4ZDynZcfgnDIX8qeOkXAHC8PWX/heQpZSYOGhfjgFA3ekZwiNHa+Ox+ydMSBjVak3U16scYTIddZdqpYJXNPhO5Ng7I4TholL5RfoZe5oVUBFwNarQha2rUlx4M42TRE1jFu4LXUSN5XvJclBAHRDQHaTcLShYNarQ+a2rUzwbGptZat4ZlZjkKYfqpJ5CfcAcAfOraVqW2Shw0rsYBGRUIKurUWy0yOI8abcqaGvWzgYHltWP4wyInwEpTiJTW/GnkahNVeXA7sEZzrwtcOqhb9rCCKW0KatQ192nU7waG4hqOlyUXIBO6ZYsEMOM4IC8rmE4utKfsn7ADp1wYDnlKzYw2BjXqntUaoYEBqBkOuWI4Xp6dHb9Et2yRgNqROGj8o4Lp5ELSmvsCAPYJZJMWZWBQo+65R6N+3kVazQ1WhzS3nSV2PuQa5yncZuRq+xROq2tW1Od5mP3T/05a4UdJa66r9XttfHZSt2yX87bH8+y7hBpl06jK5fxk03mQduVlZAyHnOA94h8HpBTN69iOwewaPb0jADjQTQpA0grfFnh4CQDkaGBQoywa4RJpFYZDRLciRRBxvecUzIMLVnfk2hoPLrBSkbPdLDlZSQLec2EGy6bNC9Qog0ZoYO5n0PTTX5l+6unW8AOqbsJOovLmdhzPu8j4auiDazjkbzapOWsYDnmrm3NEcUCOsVIFPORy0ho1WiaLRmhg1oZaf1IbD+cVJnjxBpXbRfd8Nv100HDIdVYlbTN2Gw7ZtP0Mq9LG9XsZDslr1w81yqgRGpiNoW7er2rjs2/J3mUyHMI7XiDz/rzUxme/z+qf8Bhcr5sPxQE5xZnY9S2OzwqDGt1FVCM0MJuj65Z91HDINdNPL0j0aLjiCHFALku6Lzf0rahb9rRAzdmuWnewJQXP75eLgUGN7iKqERoYPkYB4Nemn16vjc/+V8PxDmYIOPJ+SQppULbirSiSpt918e6kFfLs3Bmmn+YR6EWNViCiEW5Ti7FTt2z680ew7EoDO+r+MTvY1k1AjCuAnGd+TgfWikPkrdjhXLcfpA+vbnEd9amzHlYqQY1WIKJRPxmYBgDsFwjcdcuo4JZmN+T+4LJtztmMrTh4AoP/zDn2SdNPy3QiHjW6H6OfDAy0p+yna+PhOYVGRhVd5yEYjrdbt+z9rCeOzrypG3FAprtNXV+xzSkcb0pa4en21AhP1TbV3ohqUKP7eaKfjgo0IlcjkK2oTlEciFxt02pjpp8+DwCn1vmfu2o1wVzu2Yw9dBZEShSYfppmuGfRoEZr3KMvg7ztKfv3WTpz4XVRu2TTmI7pp3UAeGWDjyy1mmABwTUR3OZczQcZ6p9U2YtBje5nsC8NTNKaux25GvVodmSoQ5obm7VZYdmYl7poEarrlj3N3oD3kGGbcyX0rfj7GeqfVKZl7GpQo7XpSwOzkvaU/UwcLBUB/6TouWTg2xyfXXpLmn56slPNL+M2J7AErONVqtxWAH2pUV8Fedciac0lSWvuLACcNxwySUUoek4CPMT5efqQHq+NL710z2bc5gTWiqPQFPkK0Jca9b0H04Fa9cjVXsjYrU8JCs9DHZWwzUld7rclzqmSoEZrgwZmFZGrnY0Dso0VPn5H4BSpCjbbVv9UcFy9wGDhWnSVtl5SUKM1QAOzBnHQiOOgcTFytT+IXG0b82qKNDSbifrLAuaXNVi4FlU2MKjR/YRoYLqAejXU0MQBGYwDQl1WHwB+yra57+QwhQ3rn9AHKA7Ivhx3YWS/FSHnIlIqQI3uJ+77IC8PcdD4GAA+joPGl/9mOJ7Oal8MMlf2sS5dWp5DHfUu5naVrtcNh6jedlfxVgRWg4eHKIc8JtToXng1+hgNTEaW30yNkLesoOmn/7eLnIgvP244Xi0OGhu+/Vg/m1HDWaoJy/swbMZtAHg5DsjbirY5H+P8/JHNck+yghrdB69GIRqY4vics94IdcEvbvYh9gCDgrek0m1O3ip1qo0LAzVagYhGGIMpDt61eNfBNfYAn+Gf0rrksc3JEzzM64gHanQv3BqhgSkIzuI99O3BVYgjcrUjbKs9a1BRerBwNaw1K88J91zOLKFGdxHVCA1MQfA+vN0EEVdD35Js10sUVcHCezAc4nEmkuVSewU1uouoRmhgioO3vKJu+ulbvDdhD7DIW1L5WxHunjDetLL9SuKAfKRuRveAGmXUCA1MQbBWELyxhKPMVeW9F+9b8kzkar+n/q24dML4fYE0+F8omtI9oEbZNUIDUyy8LTlBt+wfityoy7dkm34mcrUjIvfgRbfsgwJp8DObbQVLBjXKoBEamAKJXO08r1vcKTQuAnuAR9Z5K8dxQA50tlDzQLdskdjDCwqmsi6oUTaN0MAUz1XOzxumnxLRm1G3nxXaOgAAp1nBrWPLRyEavHMRhhVU4u3QGEWuVkQVQtSoe+7RCBPtCiZphTO6ZfPWB/Zq47Pz7amRvxO9L6sfW0g1P90aNll1Ny6SVviBmhltel/UqEtWa4QeTMEkrfC8yHW6Zb8ufzb5UBsPPZE0+aQVvqdmRpveFzXqktUaoYEpGLYLcJhVlOdh0PTTC6w3TiXQreEtpp+eAIAxgcvPFNHYDFAjHu7TCA1MCYhc7SwAvCpw6ajhkOtVeYBr4+EfslIXvEvzOK9dk/VAjTZlTY3QwJSEOCC+YOFxw3DI35T5AV4uaeEdEtnyhWW3e70+QrmCGq3PehphkLckMDf8dcMhIgfghuhbEgAezTlHZFNYvZwrGbppxkkrLEVBcdRoXdbVCD2YcnExQ1lF+pbkTlNXDTvDkqVVbyMOGmWoi9wBNbqfdTVCA1MilmsBL5VVFH2AR00/vVYbn31S8tS4MRzvm6xF74uCQ9wBgOORq5ViedQBNbqHTTVCA1MyWCJVli/VoG7ZQZZEr6yYfjpqOOQy6/8tugz/oKy9llCjL9lUIzQwJaQ9Zf+FhAQrz/TTX9fGZ/9c5PAdL4bjGYbj7Tf99BIAXMjYaiNqT9kvS5yedFCj7jTSMtygUEw/tVlDqm5pRK5W2BtDBOpKZ1wbr+R05GrHJI11D6afPp/xjb6SNgA8GrlameIu64IabQwamBKjW8PfqI2HocTi0AkANOOAhOww3YciOxqG49Ev1BOGQ4YAwJE5v6QVPt2eGsntMF9WUKONQQNTclhL0lmJb8nV0Ie4yYor0f9eWPlmMv10N3s4h1kbD1XzoF+sPZGrFZKtmwXUaH3QwFQA9gBfV9DmokycYr3BKwlqtDYY5K0A9G3VnrLtvGrR5gx1/0l7yv6zoieSBdRobdDAVISkNfdPkavtKur4viJusGBhI2nN3S56MllBje4HDUzFaE/Zv0/fJgU348/KHQA4056y91Vlt4gH1OguaGAqBn2L0LdJxmzSovlR5GpHktZcEdXplIMa3QUPO1YUlk26AwD2Gw55EQC+VfScumA6DsiPWbX+ngc1QgNTadgBs7MAcN5wiAsAJwTaS+RByJrV96THshH9rhFuU/cQpp8ektzvWAaELheKnkRZ6DeNMAbTQ0SudjYOyG8krfAw28koou5IAgBXk1b4YhyQHWhc7qXfNEIPpscx/fQgK4Go+jBdvNxwi7zaLzEWWfSyRhiD6XFY47DzhuPtBIAndMsepD8s4/QhANgqMOwXrHTkjTggC8sN2Bu8fZwRRi9rhB5Mn8Oaa+1kP/9+jXMsEQDcZP83ilwtLGiqfUuVNUIPps9hB9d6Mb29Z6iyRhjkRRBEGWhgEARRBhoYBEGUgQYGQRBloIFBEEQZaGAQBFEGGhgEQZSBBgZBEGWggUEQRBloYBAEUQYeFehzqnzOpV+YaPJpNFkvj0ZoYPoEWSd1TT+FspzU7TWGxpY12j5gDz48IK7RRPNejeanlzW6PI2nqbsGT1N3Ry/XGukVJpr5ajQ/TV69PJ2PRv1kYJQ1Fi8ThuPpumUf1C17FAB2F9BpsFMtbSZphRfjoNF3dXg3Y2jM07cP2AcfHihWo5uL4cytxfDi5Wl1GlXZwBgA8GuOS8LI1UYUTqlw+q3eaxWZaJZTo8m6Go0qa2Bg+QuVcnw8jlxtm8LpFAb1WvqxYn2VoF7L3rHyazRZl6vRV2UOljeGQ45yBMCoqD9JWnP/onhauWE4nkGXQ4ZD6BvxP5Y4aG8CwHHDIY8AwPWkNfdF0RPKi6Exz6DLob1j1dBo79iyRrcW5WhUdQ/m2hpbdusSB2QPa4ZVeQzH22045BL9z6LnIsDhyNXOFj0J1QyNebv3jlVXo8l6do2qnmjH6849pmgeuaFbw1tNP/UqbFwo75h++q5uDaveNSmE7QPDWyeaqVdh40J5Z6KZvrt9IJtGVfdgJgHA5bik8jtJpp9eAIDRouchiRsAsKfXGuBPNHtPo8m6mEaV9mDigPDu5e9WNBXl6NbwN9iSsFceXGCZqddNPz1BPbOiJ5OV7QPD35ho9qZGE830BPXMeC+utAdjON6g4ZBrnJftqNpuBtuSv15AvkSenIpc7YWiJyHKRLM/NJqs82lUaQ9GIAYDVXu7MOMyq/DBpX/D0wBwBABGAGBb5Gpa54f92wH6cClunXGUnYuqHMy45KrRZF3TOj95asTORXVNpT0YWP4CXgKAOsclcXvK3pG05kq/7qfLotp4GEp8cBMAaMYBCdlD+2EcNLh7I1PPEQCeMBwyBACOzPklrfDp9tTIRUnjKYcui559Tb5G89N3Nbo8za/R0NiyRnvH5Gt0czF8+q9f6k6jXjAw1CO5wHNNHJDDcdAo/TYp7zb8JigLcJt++jx7e8qAfpkerUrgl8VcpGk0WVej0URTvkbdBH6rvkSCyNVmAIArt8VwSKmXSWwr+oKEBzdOWuErcUB2qNw9i1ztjTgg2+Jg6e/azDgcfdNe063hr0uanhLYVrQUjW4uhq/MT5MdqowLZbKuvTE/TbbNT8vTaPvA5hpV3oOBuzVNeIO9u1hLztJh+qkHAFlPfhd2epx5le9mzAE5F7naMxKnJZWJphyNJuvFaDTRlKPRZH1jjSrvwcDd3r2fcF52wXC80iV6GY63GwCOZxhiIWmFTpGlKahXGQdLa3/qXd4RHOYptvQqHUNj2TW6uRg6RRkXWPZoZuans2vEll7r0hMeDIi/9aM4II/GQSNRNC0uDMczDId8luGtMhO52gHJ08qEQDLkal6IXE1W7CAzQ2OesXcsm0aT9XJpNNHMrtFkfW2NesKDgeXArchyh3owwwqmI8r+DA9uHAekdFnKcUAaGbdOPWp4JU4pK5k0mp8un0bz09k1ooZ3rf+h0qepV3Fz628d/i7vdpxu2Y8AwHtJa07UTZQCK7lwBgD+g8Dll+OADItsOauG/V3PJq3wU92yqUv+m5xD6HSY2788O6doil3DSi4IazQ/TYZFtpxVc2txWaNbi+GnDw+Ia/Q//8f9GvXMEgmW3XHqkXwmcGnhSwvTT+nyzhO4NGbLvNI9uKvJsJ1dilo+E01xjeanyaNlNC6rybCdHU/W79eoZ5ZIsBxcjFjQipfR2vhsYQFFVonuhMClM1UxLpT2lP0Tttbn9RYN00/fVTStrmCV6IQ0qopxobz3krhGE837NeopDwaWlxq24RCeWr0dEnayN9eta7Y0+leBSxciV9ulYErKYcbiMO91cUB2xUEj99QCtjQS0miyXk2NmLHg1mh+muy6PH1Xo57yYGBpzR9eZuc2eKHryCu18dnvK5jW+je17IMi1yWt8EX5s8mH9pTdYNmgXOiW/ayaGW3M9gExjW4uVlej914S02j7wL0a9aCBmbvDslZF2jLoumVP53nojlX/56XRnhr5OwXTyYWkNUeXsvt4r9Mt+yk1M9oYVv2fl8Zfv1RdjW4timn08MC9GvWcgVnBOcHrqCczm6OR4a1RE/dCfye2FOUtX2qyQH7ecGtUZBKdLCbrYhpNNO9q1LMGhgUURdfrBgBcq43P/qnkad0Da4rGta2etMI31c0oX5JWKLKUPalgKuvCmqJxaXRzsXc0urmYTaOeNTCscv1IlgQi3bJfMf10VmGil897QdIK/0rNVPInaYXnWbdBHkYNx8uzqBO3RrcWe0ejW4tiGg2NLWvUswYGlt3wOA7IvoxZiku7UobjHdStYWn9bFivaF53/3QvdUpkRzSeYTt4PHxb0ZTugfWK5tZIZafEvLk8nU2jnjYwsPwQtyWk0A8aDjlXGw+56s5swhOcn0+qXrB8LSJXa/LGywyHPK5uRvfArZHKkgtFMVnn12jv2LJGPW9gYNnIXGW1SrImO9VNP/216acXDMfbn2Ug3bJ5g8hZa3iUFnZeiecNmUsAfvsAatSBnVfi1qgvDAwsG5mLcUBkRPaN5TgAmTH99DNW+4QbXgPDylz2JGzZx7OM3alwOl/yMKeBYWUuexK27OPWqG8MDOOs5KLIdH1+gXo0pp/ybmXyBip7Zl2/Djy/X15b1ajRvXBr1FcGJg4aSRyQPYLboxtBvZgrpp9eN/30Um18dtJwvEOG4z2+QVGrhzjv8aGEeZaWOCBc+Ramn9rqZvMlqNEK5qf5NJpopnZZG3ErY3nnonHM9FNd5KzFJlC3cKdu2XXduvv8G87Syixa9QbgaWIViR5onGimdQB4ji3tYgB4mwXtMjM05g3uHSPPr/Ao5uanyWnBg30fc36e/oGFlyTsfNFuptlqT+Vr7N+5NKrKgcYMcGvUdwamQ+RqRwzHe8NwyF8CQB67EmYG157LIGwfGN6yfcD+4d4xcniNLNTRiWZ6dX6anLm1GP4VqwXCxfaB4a8/+1r4CvPcVm7d29Tg7B0jp997yf7xrcW52xzD8n45hfqMM6NIDe5TAPCAyBjr0LMB3hVwa9RXS6TVxEFjIQ7I7yhuViUDLtd7+4D9LP2Sb5Divpv+76sPpnXLs6+FrwPA06uMSwfqKbnPvhZyZUHHQYP37Bh38iMzLtcA4Khk4wK9vjyC5UAvt0Z9bWBg+cGOI1fblbTC4wIZi3nBFTzcO0a6Kkjd7edWwlLnv9vFR492sjk54Pk9uWMwe8fIf+G9hoNeD/B24NKo7w1Mh/bUyBsAsEPgcFcedO1hsdae3W6vDvK2AmWp890srY29Y+Qo59jKvqTsAJ6javwKeMGy4NIIDcwK2NGCA1mChyrg7HLI+2bn/TxPHKlMBdWVJud10+WwH0EDs4o4aLQjVxuJA7ILAN4ROINRNLyxia4/PzTmSTuLVQCVbKxfddDArEMcNBYiV/sDAHiwYjsEvN5X159nB9943tRlikv0yxKmVKCB2QS6PIlcbR/1aJJW6LMHNVevhiepjCVDfd7lxz/nTZ7iKF+QzE+TNzjHVlaGgaXxK1vGTDRzSfwrA1waoYHpEurRtKdGJlih7QdF6oRkoOtlDPMy3uny4++wz3fNZF17tctypDMriz93Cc8ZI66xL0834gxVDruhTM3hVMKlERoYAZhXMxEH5DfigAzFwdJ27xn20KvI5uQKlr73kv0XrLfNem9s+u+n2Oe4ubkY/mgDI3OHGpf3XrJf5hlToIgU99+ZFbIWaWvTDWUKaCtBIO2g3beZvDJgBZN+QX/ioPHlv9Mvi+EspaE/wZLdjIxBRi73+9bi3O3JuvYCALww0UzfYollHU5nrVny1y+N0N/50YlmeoL10Om8vSP6/0/WtfMCw/KekOZObLu1ONeerGsH2Nb8+5JPZffDEolbIzQwClguctWY2ehtafppyjGksHFixkRJESS2XHpV0nBf4/y8cDxlsq4tDI15u9hZJH2tmNpkXQsnmvloVCG4NUIDUxxf8KSrG443WETTsbzIuwDX5elGcnm6sdkOGpdGQ2PeoEDcqTKIFODCGExxfML5ed7yjZWC08DEkauJ9L3iBTVaAWcBrniyrt1AA1McXF8QwyFD6qZSLKxrA8/vx/vFF4VLo71jvavR0JiYRmhgCiIOCK8rrfIcTaEYztIuHE/tlVwMzPw0atSBHYzl1ggNTHHwPrw100+fVzSXwmDtW7h+L97qdxng1mii2XsasfYtXL9XJ4ETDUxBxEHjQ4GdkFMKm8AVguGQtwSS1HKpvXJ5WkwjtpzoGfaOiWuEBqZYRJK+eiahi9Ur5s0fiQWKU2WhrzUaGhPTqFOcCg1MgcQBeZX3XJPhcNdYKS26ZT8ncFmuTeXnp/k1EqiDU1q2D2TTSJM7HYQX00+vbFDacj0ORK6mKuU9F0w/pS73r9Ypu7keceRq2xROa00mmmIaTdarrdFEU0yjyfpdjdCDKZikFYocwHvXcLxvKphOLujW8AMAcInzwaV8oGhKG3JzUUyjobHqarR9QI5GaGAKJmmFFwUuMwyHvKJgOrlQGw//UMAjoEvKQgzMrUUxjfaOVVejZ18T02h+mqCBKROsbapIXOG7pp9OGk61qsyxnt4vCly6kLTCOQVT2hTWNlVIo4lmOlm1SoBDY+Ia3Vq8VyOMwZQE009nBU/kLsQB2cNOdpcaw/F2Gw65InAp/d0e5KxNLJ2JprhG89NkD2/tnSIYGvN27x0T12h1bWL0YMrDEcHrBgHgoOS5KMFwyAnBS68WbVwYPa/R3jFxjdYqfI4GpiRErkbd8GmRaw2HvG766fO6NVzK0/HUczH99ALrBMlN0gpPyZ8VP5N1cY32jpHXJ5rp89sHyqkR9VwmmuIa3VxcW6OvZp4ZIpPrumX/kcB1vwkA9a2/dfhf4qDxCwXzEsZwvP2GQ4IMxZ1mPn91R0PytLJw/eEBcY0Gfufwv1yeLpdGQ2Pe/r1j2TR669DaGqEHUyJYhuphVnZShFdMP31Xt4ZFe2BLQ7eGHzD91DMcIvTGZ5yJA/KMxGllhmWoZtJoopm+u32geI22Dww/MNFMvb1j2TSan15fIwzylhBqJNhDLEobAPZFrlZI8SOWRHdJZJtzBVcjV9sjcVpSoUZChkaT9WI0Ykl0mTWarG+sEXowJaQ9tVScOst5mxoAXDP99EptfPZQXlvZhuOZtfHZSZb9meXBTVgh9dLCCohn1miimV75wWuzh/Layh4a88wfvCZHo/npzTVCD6akMC/guqReQTEAPBO5mpIGcobj7WSnomUUvk4AYE9R3hcPzAuQqtFkXY1GQ2PeTnYqWppG3Xhf6MGUFLYtK2v3hH4RLtClFzvBLGdQxzNMPyUst0VWVf1mFYwL3O1HLVUjuvRiJ5ilMDTmGRPNlLDcFmkadbu0Qw+mxOjW8NbaePjnrO2ILBc6YYWUIla46WO6KtusBALrW7QTAL6mW/Ygq6E7xFnlbDNm2lP2saQ1p6K3lBK2DwxvffY1dRqxwk1LGnVKIKwH61u0pNH2AXuQ1dCVrtF7L9nHbi12pxEamApg+kt9fK5IfIDXI1qjn3RNcv+g9ZiJXO1ADvdRAuu11PMaTdb5NEIDUxFq47P7dcs+rbJ/c0HQt3Wzap7LWvzgtdn9Dw/0rkY8nksHNDAVggV+r9H/LHoukqhMQLdbWOC35zQS3U7HIG+FiFwtbk/ZDmviLproVRauxgGxe8m4AAv8vvdS72g0P03sLLk66MFUFNZhoBRndAQ4E7ma6MHBysA6DFRWo8l6do3Qg6kokau9AQAvZOnRXBAzcUCU9MouG5P16mo0Py1HIzzsWGHioHEVAN6m6+Qt28zBHHYwRKHr+MtJKzz++as7GklrrupLh665PH1XI+Nr5dfo5mJ4/K1DOxq3FuVohEukHkLCGSYV0PX7SEnquRSOhDNMKljSaK16LllBA9NjGI43qFv2s7plP1XgTgZ9UD+IA/JB0grnktZc6Su55cnQmDe4fcB+9uGB4jWanyYf3FoM524tqtEIDUwPY/opfXhPihYREoA+tITFh5AumGgWoxGLDykHDUwfwNL8v2045HFWvnGnhDdnzBqcf8KOHHyYc8fFnoKl+X9775gajdiRgw83O24gGzQwfYzppzY7APcYO2y33mG4BVa/pNOruRm5GhqTHJhoims0WS9eo/8fAAD//7BDnqfZ2hPbAAAAAElFTkSuQmCC;" vertex="1" parent="1">
          <mxGeometry x="930" y="263" width="84" height="84" as="geometry" />
        </mxCell>
        <mxCell id="bGog2chpQkW4qfJzp0Gv-8" value="" style="shape=image;verticalLabelPosition=bottom;labelBackgroundColor=default;verticalAlign=top;aspect=fixed;imageAspect=0;image=data:image/png,iVBORw0KGgoAAAANSUhEUgAAARgAAAEYCAYAAACHjumMAAAydklEQVR4nOydDYgdV3bnT82IpRIEWwKz8wxGLtUYRmaGdos4WGJadDWuME9kBrUYZ2WPO0hiJm2JJFgGx6omztZ9xLNd9jpIZj1Y7jhYYtuxRBzUghn0ZrdCV6c1SCYe1O51kMKa55IwzAsYpnZXJJVFUMvtvs9qtfrj3Vv31sd75wdNHM2rW7f7X+/Uueeee84W6AFMPzUAYDf7+QYA1Og/s5+1SADgKvvvGwDwzwDQjFztao7TRpCeRyt6AjwYjrcTAB7TLXtQt2z634+wH13ibT4HgE8BIEpa4adJK/wEAD6Og0Yk8R4I0heU3sBQo2I45AQA2Bt4JHmwAACnIlc7W+AcEKRSlM7A6NbwVt2yn9Qt26Y/APAtACjTUi6my6qkFQZJK/xZ0go/Slpzd4qeFIKUkVIZGNNPDwPAJIuhVAXq2bwQuVpY9EQQpGwUamB0a3iLbtlDhkMOAcDTkmMpeXM1Dsg5AJiLg8ZC0ZNBkDJQmIFhOz/vA0C9qDko5EzkakeKngSCFM1Xirip4Xi7AeCzHjUulMOmn84ajldkUBpBCic3D4Yth75vOKTeA8uhbvkCAN5pT9k/SVpznxc9GQTJm9wMjOmn7zPD0o+0AWBf5GoYm0H6CuVLpNr47PdNP/2sj40LsF2xa2zZ9O2iJ4MgeaHUgzH99CQAHFd5jw1YeRxgNTsL3Aqn83omcrWZgu6PILmhxMAYjmcaDnlLcRA3BoBP6E8ckPaKM0VRt2n9huMZzNDQn68bDnmEGZ9B1VnDSSt8M2mFfxIHjUTlfRCkSKQbGJYs967scVewAACNPDwA00+fZx6YKmMTxQHZEweNtqLxEaRQpBoYw/G+YzikKXPMFVDDMhG5mqrx18X000MAQBQZmtORqx1TMC6CFI4UA7NiC/qUxNgGXTo0k1b406QV/m0cNGJJ4wpjON6w4ZBRVhbicYlnpGbigDQwAxjpNaQYGLaUOCVjLAZdOhwo8xfO9NM6y0Q2ZI0ZB2RXmX9nBOHlq1kupp7LQyeiPwaAVwDg32WcC/VYgjggL7anRo4lrblSxyXioPEpALxBjeGWbeZ2GZ4bOz3+i7L/7gjSLZk8GMPxDhrO0gG/rNC39kjkaoUvg0Qx/XQSAFwZY6Eng/QKwh4MC+ieBoCtGe7/OQD85/aU/cdf/M2RyhoXWPZo/g4A5nTLTthWt7BHxzyZv01ac7flzhJB8kXIg5G0FR2zLdobGccpHZJ20+jf51HcwkaqDPdRAXZCOKtxoV+aHb1oXGDZm/k5ABxgcSVRDMMhByVOC0FyR8DALGXoZmGmPWXbVY63dEPkajNJK6yzDGNRXjYcz5Y4LQTJFa4lUsazRX17Bsf002vs+IEoI1iSE6kiXXswtfHZ72cxLkkrHOtH40JpT9nfo55bhiEuGY73mMQpIUgudO3BsJILIqny1HPZg7VQMgfHZyJXOyB5SgiilE09GN0a3mL66QVR48I8l743LrAclzmTtELRXJnvmn76nOQpIYhSujAwNl0ajQqO/0x7auRvBa/tSdpTI68CwBmBS7cAwGnW3RJBKsGmSyTTT6lLf1hgbOkuPTv/89yKei0xywKeiwNypkrtXTMsOd3I1V5VMCUEkc6GHgyr/i9S6rLdnrKlpM0bjvckXaKZfvorALjEvKnOF9NgLWU9wyH/y/TT2dr47CEZ91VN0gp/JJgnc5QVykKQ0rOuB8P6Fn0mcFqYehU7ZOS5mH5KqPEQuHSBncYutUeTIeiLfZeQSrCmB6Nbw1sESxF8HgdkjwzjUhufPSloXCiDhkPmTT89UeaYReRqZwBgWuDSw1g8HKkC6xgYe0iwnu6bMtL/TT89qVt21mLhDwGAbzjkepl3X+KA/JnIdYZDfiR/NggilzUNDOsVzctCe8p+O+uEDMf7joJOBG+afnrJcLxhyeNmhi3jRgXiMXWMxSBlZ80YjOmn/8rZeZF+OR6UFHe5kGFbvBsacUD8slXzF4zHYCwGKTX3eTDsQedt6xpKPLyo+nCfZzhkUvE9uGHxGN6g9CgLxiNIKbnHwOjW8FYA4P7yxcFS4anMmH76tMwatxtw3PTT66afero1/FAO9+uKpBW+w3kJ/VtlPd2OIMpYZWDsJwVqy0Zx0LgoaT55BmN3AgCpjYfzpp8qbbLWLUkr/InAZU+zGj0IUjpWGxje5UkSB0Rmtu5uiWN1C/1yflYbn32r6C8qa81yVODSJxVMB0Eyc0+QV6BuidTjAKafprLGysDTkaudL3ICAscIzkWu9ozCKSGIEF96MCwh7Vs8Fyet8KdKZtUdYdIKxzJWjFuLadNP3zcc75BuDfMGu6WQtMIPOC8ZUjQVBMnECgNDTvB2KkxaYaEnpdtTI+9FrvYoAIywIwoy2LIc1yBnauPhBUljcpG0wp9xXvKQ6acqt/YRRIiVMRje+MtCGdq5wvIWbyh44nsz6nTZaDierHa43SJSP6d0SYQIsmRg2PKIN8A5oWZKYkSudjEOyINJKzyVsZr/agYNh/yD6acndGv4AYnjrgsz3Lw1Yw4XtaRDkPXoeDC89V4XIlfL2vdHOnHQaLenRl4AgEclx2aWzjXlvKXd4Py8oVt2aQ92Iv3JkoHRLZu34j3vw58rkatF7Sl7LwAQALgqcWj6Bb7OzjUpPc1MfwcA+ITzsm8qmg6CCNExMDxvvrgK3QGS1twXkas1IlfbQ70PiUPrywcNyWXTT4nheCqXJR9xfv4RRfNAECE6SySeB5P3rVo4katNxAEZAQDZ2+qe4ZBZw/EOsho6UokDwhXsNRzClWaAIKrpCwMDy/GZMHK17wHAEclB4N2GQ87VxsP/JnHMDh9zfr4056oQhPIVdhq3azc/Dkilm7GzU8sqtrSfZrWDZR7W5P1b572djiAb8hWB8z+Vb1gfudr5OCA74oAcFyiRsBGjAHC9Nj4rJQCctELeuaGBQUqFiIH5Z0VzyZU4aERx0HgjDsgeAJDZ97mmW/abMgZKWnMJ59x000+z9MBGEKlQA/MNzmtKXamflzhotCNXG5F8rmnQ9NO3JAV+eeeEXgxSGr7C+0CWvRWIKCvONZ2SNORR3bIflzDOP3F+voiSFwiyJl/hPCJQqjq2KmhP2X8SB6QOAKcB4HaWsXTL/l0JU8K+3khl4TUwMrNiS0nSmrsTB42fR652LA7I72Q5pc3av+TNwwXcE0HWZNPm9/1MHDSoQd2VIe4k49wSrweD5TOR0oAGZhPYuabfZueaPue8PHPAVWK3BgTJHTQwXdA518SWTDxg+QSkr5F+fqYX0a3hrbplf99wyIucl95RNCUEqQRoYDaBpf5fEGwIx7ukWuv+GFNBKssWtvXcrSvfNwWNDMczdMv+QwB4MUMzOBmJe7wGpud3+pDqsIU9kN2+nfsiS9T00+MA4GXtMhkHRMYRBN45/JuEeyKIFLiDvPTNrmYq5cD0U2pYTkpqYSsjSQ7PFiGV5St41mWZ2vjsftNPr7DtaBk0k1Y4J2Ec3sQ5mQc3ESQTWwROR9d6oWRDB+qRGQ4RDeKuRztytX2SxuL1YPBoAVIaqIFpsnhDt3y9F96SrA/1d9jWs8xatknSCkX6S9+Hbg1v5TQwtzExDykTWyJXu2r63beENhzySByUuqnApph+ehAAzikYmnoPR9pTI1K8CN2yeQ3fFzLuiyCy6AR5efI1KrtVbTjeE6af0uXQtOSh20krfDEOyJ7I1WQuUXhr9fTM0hXpDTqJdp9yFIyu5K6G6aeEcynYLU2J8ZZ7MBzC+7fuyVo9SHXpGBieB7NymaWmn54EgOMKhg7jgDyjYNwOXH/rqhdkR3qPpSVS0go/5bnI9NPnlc1IEro1/JDpp57pp9cVGJerSSscjVxthPWRVgVvdTrcQUJKxZIHk7TCT3SLa5eWfmHfUDarjLDC1xcUeFvUQ9gnOc6yJux34J0/bx8lBFFKJ8j7S87rTNNPDymYTyYMx9tp+um7AHBNsnH5AgBIe8r+7TyMC2OS8/NRr9ZLRqrLkgcTB43PDWepTSlPUJEAwFl1U+PD9NPnWB1d2URxQEby/PKyHJ0652Wl9SiR/mXlWSTeavqm4XjDkufDhW4NG4bjPWf66SUAkNKLaAVR0gr/KA7Io3l7BgLFwpM4ICryehAkE9rK/8f0019zHvI7FbnaC7ImY/pp9xl/ywHNREGbDjrmMdZithCYweTxYK5GrrZH4ZQQRIjVBaducH5hi+zBoyof53DkaucVjd0tuHuE9AT3lGtIWmHAef3jpp/yxgo2orBzNEkrPB0HZEfRxoUFqblKRUiqO4Mg0lltYH7GeT31gN43HE9WcesivigRAOxoT40cK3oXxnA86pUdFrj05wqmgyCZWW1gPhJwtw3dsp+VNJ+3JY3TDVdXbD2XYntXt2yRrX9fcbIfggijrf4H009tAJjlHGchcrVdMiZk+ulnORxH8CNXm1B8Dy5YcfFfcbY6iSJX26FwWgiSiftKZkauFgoUjh40/ZQ3MWxNklaocrt1hp14LpVxMRyvxjKPeYzLHQA4onBaCJKZr67z71t1y+YN3g4BwFzSmsu03NiyzfxH3bJ5+w9tBl1CPBO5WiNpzWVuJSKb2ng4L7Bz9Pf091E0JQSRwnpFv4VqyRoOOZhtOktZxW0Fb+bDkavNSB5TCobj2YJb7rhzhJSeNQ1MHDQWAEAk0WzMcLzvZJ1U5GpnklboZxzmRhyQw3FAHoxc7WLWOanAcDzdcIhIjZokDsh7CqaEIFK5L8i7EtNPZwWLYR+Q4TGYfjoKAO8L9HieiQPyTBw0kqxzUAnLeRHZlm5Eriar+wGCKGO9GEyHOd2yxwDgNznHHdUt+/LtX569mWFu1JO6QY2Fbtn/jxmZBzZY1n0BAP89Dsjx9tTIj5PWXKn7QtfGZ3+4ZZv5nwQu/ShyNVlpAQiilA09GFh+y04CgCsw9o3I1R4Vm9baGI5nGg6hb/zHWLYr9VA+BICFOCDNsnssHVi/6esCnhksL/sapTnFjiAbsamB0a3hh2rj4T8INlxbaE/Z3yvjzk1R1MZnv61b9geCf8+wPWXvS1pzlTCkCLKpgYG71dWuCd5jJnK1A4LX9hwZEgnbkas9qGBKCKKMrnpTsypuotuio6afigQyew4W1BXNUi7lNjuCbMRmQd6VfKpb9g/WKPHQDaO6ZSe3f3n2FwLXVh66LHrg9878fYb2tFF7yj5y59c3/4/kqSGIUrpaInVg28YXMtzvTORqfZXezgK6VwRjLsCykHdgS1ikinS1ROoQudpM0gqzlKY8bPrpZ7Xx2SczjFEZauOzP2S7RaLG5dM4ILvQuCBVhcvAwPJhxD/J2EHQ1C37p70clzEcTzf99F3dst8R2YruEAfkxaJr1CBIFnhiMEuwBLbzumVvBYDHBe+7BQBGDYc8AgDXktZcz7yhDcezDYf8Jf39MgxzGwBeak+NYL4LUmm4YjCrYY3ks3yROoyW9bxQtxiOVzMccklSreDS1atBEBG4l0griQMiq1zAuSovmUw/NQyHvC/JuMRxQLDHEdITcC+RVpK05toAcFG3bJudExKls2Q6rFu2vmWb+Y9VyFY1HG/QcMiJLdvMcwDwiIQhL8cBGWYlKxCk8mRaInVgXzTRTN/1OBq5Wp41ernIcBJ6PWLW5A2NC9IzSDEwcNfI0GXCTlljsu6KH7BuBwtFFrc2HM/ULft3dcv+Lqs+x9VaZANuA8CbdFmExgXpNaQZGLgb6Lwu8cu3mjOsFkpuW7fsHNakQK/objkeuRrGXJCeRKqBgbtG5iAAvJwxLrMRnwDAR3Gw1LD/YwBoJ60wyhK30a3hrbplPwIA3zAcMsjODO1W2OHgU5bnUundMwTZCOkGpgPLB+Ftf5KVkLW//acV/Z0WVmbCstR9k3lZ1JA8zP6vqla0axHHAdmFSXRIr6PMwMDdHkuXsmSz9iDUqJQi/Z/pY68o4LV7Ha2osW6z4l4Ra7Z/o4Ap9x1V10ipgYFlT+YxwyEEAL4reBK7V6Diz7Sn7B/nXYCL9V36tuGQx5mntlPC0i9mS9VP4oBcpQ82K3GKCNCrGik3MB1MP30OAE7ndb+SEUauNpL3Tdly8KSkbOtuoA80waB19/S6RrkZGFi20jsNh+wHgKM5tIctAx/FAXkzaYXn80ocNBxvULfsZ3XLfqrAvzF9iD+IA/JB0grnqpA0mSf9pFGuBqaD4XiG4ZCTkhPVygQV69W8W4soSP6TAXXN95Uh5lQG+k2jQgxMB8Px6JrzRyzHRLRmSlm4AwCX6XIoDsh7cdD4NI+bUmOtW/bzumUfV5h/lBVqcK8mrfD19tTIz4qeTN70s0aFGpgOKzya0RILsBERAByJXC3Xdq6mn9IH1qvY36wSTfFk0e8alcLAdDD9lIrwFgA8XfRcOCiktILpp88DwKm87yuJviidihqVzMB0MBzPBIAnDYc4ADAEAA8VPSdGwvINFuKAUG/l53mfj9Kt4a/XxsNXAOCpim/7X40DcjwOGh8WPRHZoEZ3KaWBWQ0rNj7MgmNFuJp0CfRGHJBzRR5IZB7etR7agaMGew9ri9MToEb3UgkD00G3hnXdsncCwDeZdyMzGn+b9be+QQ1KHJA281Y+LkNKf218dr9u2ad7IBi+GvoAN9tT9jFWX6iyoEb3UykDsxKWQs171ulqJ1oOAP/G/i1cfV6pbLAT3VdyOHIRrVHQvSa5BMd6VLoDKGq0Nn1lYOKA1OOg8XN1s5KLbg1vrY2Hf84SE2U9uJ04UsTSx5dOo2+WQs5S2elD/DXdsgfpD4uPbZU0L2BHKSrlyaBGG9NvBsaNg8ar6mYlF9NPTwCAL2k4+tCeiwPSkLXkY+kFxwHgeYmxsUp5MqjRxvSVgQGA05GrHVM0JamwYGGWpm0rocu/ZyJXa0oY6z7YEZC3MrTGXUllAr+o0eYaZeoqUEGcoifQDbo1nLXdbIerSSs8HAfkQVUPLix5ho0bkauNxAHZkbRCnz2AotBlxhXD8Z6QOEXpoEbdadRvHgxlJO+MW14knFdps7MlhXgB7M1+idUuEeVq5Gp7JE5LKqjREptq1G8eDOWkbg2XtgCW6aeHAGBM8PI7AHCmPWUXusSIXC1uT9nfAwDCtv9F2E2/xIbjlU4r1OhLNtWoHw3MoG7Z3yl6EmtB18mssLlo9ufLkasdSVpzheftJK25LyJXa8QBEf0iUg6zThWlATW6jw016kcDA4ZDynZcfgnDIX8qeOkXAHC8PWX/heQpZSYOGhfjgFA3ekZwiNHa+Ox+ydMSBjVak3U16scYTIddZdqpYJXNPhO5Ng7I4TholL5RfoZe5oVUBFwNarQha2rUlx4M42TRE1jFu4LXUSN5XvJclBAHRDQHaTcLShYNarQ+a2rUzwbGptZat4ZlZjkKYfqpJ5CfcAcAfOraVqW2Shw0rsYBGRUIKurUWy0yOI8abcqaGvWzgYHltWP4wyInwEpTiJTW/GnkahNVeXA7sEZzrwtcOqhb9rCCKW0KatQ192nU7waG4hqOlyUXIBO6ZYsEMOM4IC8rmE4utKfsn7ADp1wYDnlKzYw2BjXqntUaoYEBqBkOuWI4Xp6dHb9Et2yRgNqROGj8o4Lp5ELSmvsCAPYJZJMWZWBQo+65R6N+3kVazQ1WhzS3nSV2PuQa5yncZuRq+xROq2tW1Od5mP3T/05a4UdJa66r9XttfHZSt2yX87bH8+y7hBpl06jK5fxk03mQduVlZAyHnOA94h8HpBTN69iOwewaPb0jADjQTQpA0grfFnh4CQDkaGBQoywa4RJpFYZDRLciRRBxvecUzIMLVnfk2hoPLrBSkbPdLDlZSQLec2EGy6bNC9Qog0ZoYO5n0PTTX5l+6unW8AOqbsJOovLmdhzPu8j4auiDazjkbzapOWsYDnmrm3NEcUCOsVIFPORy0ho1WiaLRmhg1oZaf1IbD+cVJnjxBpXbRfd8Nv100HDIdVYlbTN2Gw7ZtP0Mq9LG9XsZDslr1w81yqgRGpiNoW7er2rjs2/J3mUyHMI7XiDz/rzUxme/z+qf8Bhcr5sPxQE5xZnY9S2OzwqDGt1FVCM0MJuj65Z91HDINdNPL0j0aLjiCHFALku6Lzf0rahb9rRAzdmuWnewJQXP75eLgUGN7iKqERoYPkYB4Nemn16vjc/+V8PxDmYIOPJ+SQppULbirSiSpt918e6kFfLs3Bmmn+YR6EWNViCiEW5Ti7FTt2z680ew7EoDO+r+MTvY1k1AjCuAnGd+TgfWikPkrdjhXLcfpA+vbnEd9amzHlYqQY1WIKJRPxmYBgDsFwjcdcuo4JZmN+T+4LJtztmMrTh4AoP/zDn2SdNPy3QiHjW6H6OfDAy0p+yna+PhOYVGRhVd5yEYjrdbt+z9rCeOzrypG3FAprtNXV+xzSkcb0pa4en21AhP1TbV3ohqUKP7eaKfjgo0IlcjkK2oTlEciFxt02pjpp8+DwCn1vmfu2o1wVzu2Yw9dBZEShSYfppmuGfRoEZr3KMvg7ztKfv3WTpz4XVRu2TTmI7pp3UAeGWDjyy1mmABwTUR3OZczQcZ6p9U2YtBje5nsC8NTNKaux25GvVodmSoQ5obm7VZYdmYl7poEarrlj3N3oD3kGGbcyX0rfj7GeqfVKZl7GpQo7XpSwOzkvaU/UwcLBUB/6TouWTg2xyfXXpLmn56slPNL+M2J7AErONVqtxWAH2pUV8Fedciac0lSWvuLACcNxwySUUoek4CPMT5efqQHq+NL710z2bc5gTWiqPQFPkK0Jca9b0H04Fa9cjVXsjYrU8JCs9DHZWwzUld7rclzqmSoEZrgwZmFZGrnY0Dso0VPn5H4BSpCjbbVv9UcFy9wGDhWnSVtl5SUKM1QAOzBnHQiOOgcTFytT+IXG0b82qKNDSbifrLAuaXNVi4FlU2MKjR/YRoYLqAejXU0MQBGYwDQl1WHwB+yra57+QwhQ3rn9AHKA7Ivhx3YWS/FSHnIlIqQI3uJ+77IC8PcdD4GAA+joPGl/9mOJ7Oal8MMlf2sS5dWp5DHfUu5naVrtcNh6jedlfxVgRWg4eHKIc8JtToXng1+hgNTEaW30yNkLesoOmn/7eLnIgvP244Xi0OGhu+/Vg/m1HDWaoJy/swbMZtAHg5DsjbirY5H+P8/JHNck+yghrdB69GIRqY4vics94IdcEvbvYh9gCDgrek0m1O3ip1qo0LAzVagYhGGIMpDt61eNfBNfYAn+Gf0rrksc3JEzzM64gHanQv3BqhgSkIzuI99O3BVYgjcrUjbKs9a1BRerBwNaw1K88J91zOLKFGdxHVCA1MQfA+vN0EEVdD35Js10sUVcHCezAc4nEmkuVSewU1uouoRmhgioO3vKJu+ulbvDdhD7DIW1L5WxHunjDetLL9SuKAfKRuRveAGmXUCA1MQbBWELyxhKPMVeW9F+9b8kzkar+n/q24dML4fYE0+F8omtI9oEbZNUIDUyy8LTlBt+wfityoy7dkm34mcrUjIvfgRbfsgwJp8DObbQVLBjXKoBEamAKJXO08r1vcKTQuAnuAR9Z5K8dxQA50tlDzQLdskdjDCwqmsi6oUTaN0MAUz1XOzxumnxLRm1G3nxXaOgAAp1nBrWPLRyEavHMRhhVU4u3QGEWuVkQVQtSoe+7RCBPtCiZphTO6ZfPWB/Zq47Pz7amRvxO9L6sfW0g1P90aNll1Ny6SVviBmhltel/UqEtWa4QeTMEkrfC8yHW6Zb8ufzb5UBsPPZE0+aQVvqdmRpveFzXqktUaoYEpGLYLcJhVlOdh0PTTC6w3TiXQreEtpp+eAIAxgcvPFNHYDFAjHu7TCA1MCYhc7SwAvCpw6ajhkOtVeYBr4+EfslIXvEvzOK9dk/VAjTZlTY3QwJSEOCC+YOFxw3DI35T5AV4uaeEdEtnyhWW3e70+QrmCGq3PehphkLckMDf8dcMhIgfghuhbEgAezTlHZFNYvZwrGbppxkkrLEVBcdRoXdbVCD2YcnExQ1lF+pbkTlNXDTvDkqVVbyMOGmWoi9wBNbqfdTVCA1MilmsBL5VVFH2AR00/vVYbn31S8tS4MRzvm6xF74uCQ9wBgOORq5ViedQBNbqHTTVCA1MyWCJVli/VoG7ZQZZEr6yYfjpqOOQy6/8tugz/oKy9llCjL9lUIzQwJaQ9Zf+FhAQrz/TTX9fGZ/9c5PAdL4bjGYbj7Tf99BIAXMjYaiNqT9kvS5yedFCj7jTSMtygUEw/tVlDqm5pRK5W2BtDBOpKZ1wbr+R05GrHJI11D6afPp/xjb6SNgA8GrlameIu64IabQwamBKjW8PfqI2HocTi0AkANOOAhOww3YciOxqG49Ev1BOGQ4YAwJE5v6QVPt2eGsntMF9WUKONQQNTclhL0lmJb8nV0Ie4yYor0f9eWPlmMv10N3s4h1kbD1XzoF+sPZGrFZKtmwXUaH3QwFQA9gBfV9DmokycYr3BKwlqtDYY5K0A9G3VnrLtvGrR5gx1/0l7yv6zoieSBdRobdDAVISkNfdPkavtKur4viJusGBhI2nN3S56MllBje4HDUzFaE/Zv0/fJgU348/KHQA4056y91Vlt4gH1OguaGAqBn2L0LdJxmzSovlR5GpHktZcEdXplIMa3QUPO1YUlk26AwD2Gw55EQC+VfScumA6DsiPWbX+ngc1QgNTadgBs7MAcN5wiAsAJwTaS+RByJrV96THshH9rhFuU/cQpp8ektzvWAaELheKnkRZ6DeNMAbTQ0SudjYOyG8krfAw28koou5IAgBXk1b4YhyQHWhc7qXfNEIPpscx/fQgK4Go+jBdvNxwi7zaLzEWWfSyRhiD6XFY47DzhuPtBIAndMsepD8s4/QhANgqMOwXrHTkjTggC8sN2Bu8fZwRRi9rhB5Mn8Oaa+1kP/9+jXMsEQDcZP83ilwtLGiqfUuVNUIPps9hB9d6Mb29Z6iyRhjkRRBEGWhgEARRBhoYBEGUgQYGQRBloIFBEEQZaGAQBFEGGhgEQZSBBgZBEGWggUEQRBloYBAEUQYeFehzqnzOpV+YaPJpNFkvj0ZoYPoEWSd1TT+FspzU7TWGxpY12j5gDz48IK7RRPNejeanlzW6PI2nqbsGT1N3Ry/XGukVJpr5ajQ/TV69PJ2PRv1kYJQ1Fi8ThuPpumUf1C17FAB2F9BpsFMtbSZphRfjoNF3dXg3Y2jM07cP2AcfHihWo5uL4cytxfDi5Wl1GlXZwBgA8GuOS8LI1UYUTqlw+q3eaxWZaJZTo8m6Go0qa2Bg+QuVcnw8jlxtm8LpFAb1WvqxYn2VoF7L3rHyazRZl6vRV2UOljeGQ45yBMCoqD9JWnP/onhauWE4nkGXQ4ZD6BvxP5Y4aG8CwHHDIY8AwPWkNfdF0RPKi6Exz6DLob1j1dBo79iyRrcW5WhUdQ/m2hpbdusSB2QPa4ZVeQzH22045BL9z6LnIsDhyNXOFj0J1QyNebv3jlVXo8l6do2qnmjH6849pmgeuaFbw1tNP/UqbFwo75h++q5uDaveNSmE7QPDWyeaqVdh40J5Z6KZvrt9IJtGVfdgJgHA5bik8jtJpp9eAIDRouchiRsAsKfXGuBPNHtPo8m6mEaV9mDigPDu5e9WNBXl6NbwN9iSsFceXGCZqddNPz1BPbOiJ5OV7QPD35ho9qZGE830BPXMeC+utAdjON6g4ZBrnJftqNpuBtuSv15AvkSenIpc7YWiJyHKRLM/NJqs82lUaQ9GIAYDVXu7MOMyq/DBpX/D0wBwBABGAGBb5Gpa54f92wH6cClunXGUnYuqHMy45KrRZF3TOj95asTORXVNpT0YWP4CXgKAOsclcXvK3pG05kq/7qfLotp4GEp8cBMAaMYBCdlD+2EcNLh7I1PPEQCeMBwyBACOzPklrfDp9tTIRUnjKYcui559Tb5G89N3Nbo8za/R0NiyRnvH5Gt0czF8+q9f6k6jXjAw1CO5wHNNHJDDcdAo/TYp7zb8JigLcJt++jx7e8qAfpkerUrgl8VcpGk0WVej0URTvkbdBH6rvkSCyNVmAIArt8VwSKmXSWwr+oKEBzdOWuErcUB2qNw9i1ztjTgg2+Jg6e/azDgcfdNe063hr0uanhLYVrQUjW4uhq/MT5MdqowLZbKuvTE/TbbNT8vTaPvA5hpV3oOBuzVNeIO9u1hLztJh+qkHAFlPfhd2epx5le9mzAE5F7naMxKnJZWJphyNJuvFaDTRlKPRZH1jjSrvwcDd3r2fcF52wXC80iV6GY63GwCOZxhiIWmFTpGlKahXGQdLa3/qXd4RHOYptvQqHUNj2TW6uRg6RRkXWPZoZuans2vEll7r0hMeDIi/9aM4II/GQSNRNC0uDMczDId8luGtMhO52gHJ08qEQDLkal6IXE1W7CAzQ2OesXcsm0aT9XJpNNHMrtFkfW2NesKDgeXArchyh3owwwqmI8r+DA9uHAekdFnKcUAaGbdOPWp4JU4pK5k0mp8un0bz09k1ooZ3rf+h0qepV3Fz628d/i7vdpxu2Y8AwHtJa07UTZQCK7lwBgD+g8Dll+OADItsOauG/V3PJq3wU92yqUv+m5xD6HSY2788O6doil3DSi4IazQ/TYZFtpxVc2txWaNbi+GnDw+Ia/Q//8f9GvXMEgmW3XHqkXwmcGnhSwvTT+nyzhO4NGbLvNI9uKvJsJ1dilo+E01xjeanyaNlNC6rybCdHU/W79eoZ5ZIsBxcjFjQipfR2vhsYQFFVonuhMClM1UxLpT2lP0Tttbn9RYN00/fVTStrmCV6IQ0qopxobz3krhGE837NeopDwaWlxq24RCeWr0dEnayN9eta7Y0+leBSxciV9ulYErKYcbiMO91cUB2xUEj99QCtjQS0miyXk2NmLHg1mh+muy6PH1Xo57yYGBpzR9eZuc2eKHryCu18dnvK5jW+je17IMi1yWt8EX5s8mH9pTdYNmgXOiW/ayaGW3M9gExjW4uVlej914S02j7wL0a9aCBmbvDslZF2jLoumVP53nojlX/56XRnhr5OwXTyYWkNUeXsvt4r9Mt+yk1M9oYVv2fl8Zfv1RdjW4timn08MC9GvWcgVnBOcHrqCczm6OR4a1RE/dCfye2FOUtX2qyQH7ecGtUZBKdLCbrYhpNNO9q1LMGhgUURdfrBgBcq43P/qnkad0Da4rGta2etMI31c0oX5JWKLKUPalgKuvCmqJxaXRzsXc0urmYTaOeNTCscv1IlgQi3bJfMf10VmGil897QdIK/0rNVPInaYXnWbdBHkYNx8uzqBO3RrcWe0ejW4tiGg2NLWvUswYGlt3wOA7IvoxZiku7UobjHdStYWn9bFivaF53/3QvdUpkRzSeYTt4PHxb0ZTugfWK5tZIZafEvLk8nU2jnjYwsPwQtyWk0A8aDjlXGw+56s5swhOcn0+qXrB8LSJXa/LGywyHPK5uRvfArZHKkgtFMVnn12jv2LJGPW9gYNnIXGW1SrImO9VNP/216acXDMfbn2Ug3bJ5g8hZa3iUFnZeiecNmUsAfvsAatSBnVfi1qgvDAwsG5mLcUBkRPaN5TgAmTH99DNW+4QbXgPDylz2JGzZx7OM3alwOl/yMKeBYWUuexK27OPWqG8MDOOs5KLIdH1+gXo0pp/ybmXyBip7Zl2/Djy/X15b1ajRvXBr1FcGJg4aSRyQPYLboxtBvZgrpp9eN/30Um18dtJwvEOG4z2+QVGrhzjv8aGEeZaWOCBc+Ramn9rqZvMlqNEK5qf5NJpopnZZG3ErY3nnonHM9FNd5KzFJlC3cKdu2XXduvv8G87Syixa9QbgaWIViR5onGimdQB4ji3tYgB4mwXtMjM05g3uHSPPr/Ao5uanyWnBg30fc36e/oGFlyTsfNFuptlqT+Vr7N+5NKrKgcYMcGvUdwamQ+RqRwzHe8NwyF8CQB67EmYG157LIGwfGN6yfcD+4d4xcniNLNTRiWZ6dX6anLm1GP4VqwXCxfaB4a8/+1r4CvPcVm7d29Tg7B0jp997yf7xrcW52xzD8n45hfqMM6NIDe5TAPCAyBjr0LMB3hVwa9RXS6TVxEFjIQ7I7yhuViUDLtd7+4D9LP2Sb5Divpv+76sPpnXLs6+FrwPA06uMSwfqKbnPvhZyZUHHQYP37Bh38iMzLtcA4Khk4wK9vjyC5UAvt0Z9bWBg+cGOI1fblbTC4wIZi3nBFTzcO0a6Kkjd7edWwlLnv9vFR492sjk54Pk9uWMwe8fIf+G9hoNeD/B24NKo7w1Mh/bUyBsAsEPgcFcedO1hsdae3W6vDvK2AmWp890srY29Y+Qo59jKvqTsAJ6javwKeMGy4NIIDcwK2NGCA1mChyrg7HLI+2bn/TxPHKlMBdWVJud10+WwH0EDs4o4aLQjVxuJA7ILAN4ROINRNLyxia4/PzTmSTuLVQCVbKxfddDArEMcNBYiV/sDAHiwYjsEvN5X159nB9943tRlikv0yxKmVKCB2QS6PIlcbR/1aJJW6LMHNVevhiepjCVDfd7lxz/nTZ7iKF+QzE+TNzjHVlaGgaXxK1vGTDRzSfwrA1waoYHpEurRtKdGJlih7QdF6oRkoOtlDPMy3uny4++wz3fNZF17tctypDMriz93Cc8ZI66xL0834gxVDruhTM3hVMKlERoYAZhXMxEH5DfigAzFwdJ27xn20KvI5uQKlr73kv0XrLfNem9s+u+n2Oe4ubkY/mgDI3OHGpf3XrJf5hlToIgU99+ZFbIWaWvTDWUKaCtBIO2g3beZvDJgBZN+QX/ioPHlv9Mvi+EspaE/wZLdjIxBRi73+9bi3O3JuvYCALww0UzfYollHU5nrVny1y+N0N/50YlmeoL10Om8vSP6/0/WtfMCw/KekOZObLu1ONeerGsH2Nb8+5JPZffDEolbIzQwClguctWY2ehtafppyjGksHFixkRJESS2XHpV0nBf4/y8cDxlsq4tDI15u9hZJH2tmNpkXQsnmvloVCG4NUIDUxxf8KSrG443WETTsbzIuwDX5elGcnm6sdkOGpdGQ2PeoEDcqTKIFODCGExxfML5ed7yjZWC08DEkauJ9L3iBTVaAWcBrniyrt1AA1McXF8QwyFD6qZSLKxrA8/vx/vFF4VLo71jvavR0JiYRmhgCiIOCK8rrfIcTaEYztIuHE/tlVwMzPw0atSBHYzl1ggNTHHwPrw100+fVzSXwmDtW7h+L97qdxng1mii2XsasfYtXL9XJ4ETDUxBxEHjQ4GdkFMKm8AVguGQtwSS1HKpvXJ5WkwjtpzoGfaOiWuEBqZYRJK+eiahi9Ur5s0fiQWKU2WhrzUaGhPTqFOcCg1MgcQBeZX3XJPhcNdYKS26ZT8ncFmuTeXnp/k1EqiDU1q2D2TTSJM7HYQX00+vbFDacj0ORK6mKuU9F0w/pS73r9Ypu7keceRq2xROa00mmmIaTdarrdFEU0yjyfpdjdCDKZikFYocwHvXcLxvKphOLujW8AMAcInzwaV8oGhKG3JzUUyjobHqarR9QI5GaGAKJmmFFwUuMwyHvKJgOrlQGw//UMAjoEvKQgzMrUUxjfaOVVejZ18T02h+mqCBKROsbapIXOG7pp9OGk61qsyxnt4vCly6kLTCOQVT2hTWNlVIo4lmOlm1SoBDY+Ia3Vq8VyOMwZQE009nBU/kLsQB2cNOdpcaw/F2Gw65InAp/d0e5KxNLJ2JprhG89NkD2/tnSIYGvN27x0T12h1bWL0YMrDEcHrBgHgoOS5KMFwyAnBS68WbVwYPa/R3jFxjdYqfI4GpiRErkbd8GmRaw2HvG766fO6NVzK0/HUczH99ALrBMlN0gpPyZ8VP5N1cY32jpHXJ5rp89sHyqkR9VwmmuIa3VxcW6OvZp4ZIpPrumX/kcB1vwkA9a2/dfhf4qDxCwXzEsZwvP2GQ4IMxZ1mPn91R0PytLJw/eEBcY0Gfufwv1yeLpdGQ2Pe/r1j2TR669DaGqEHUyJYhuphVnZShFdMP31Xt4ZFe2BLQ7eGHzD91DMcIvTGZ5yJA/KMxGllhmWoZtJoopm+u32geI22Dww/MNFMvb1j2TSan15fIwzylhBqJNhDLEobAPZFrlZI8SOWRHdJZJtzBVcjV9sjcVpSoUZChkaT9WI0Ykl0mTWarG+sEXowJaQ9tVScOst5mxoAXDP99EptfPZQXlvZhuOZtfHZSZb9meXBTVgh9dLCCohn1miimV75wWuzh/Layh4a88wfvCZHo/npzTVCD6akMC/guqReQTEAPBO5mpIGcobj7WSnomUUvk4AYE9R3hcPzAuQqtFkXY1GQ2PeTnYqWppG3Xhf6MGUFLYtK2v3hH4RLtClFzvBLGdQxzNMPyUst0VWVf1mFYwL3O1HLVUjuvRiJ5ilMDTmGRPNlLDcFmkadbu0Qw+mxOjW8NbaePjnrO2ILBc6YYWUIla46WO6KtusBALrW7QTAL6mW/Ygq6E7xFnlbDNm2lP2saQ1p6K3lBK2DwxvffY1dRqxwk1LGnVKIKwH61u0pNH2AXuQ1dCVrtF7L9nHbi12pxEamApg+kt9fK5IfIDXI1qjn3RNcv+g9ZiJXO1ADvdRAuu11PMaTdb5NEIDUxFq47P7dcs+rbJ/c0HQt3Wzap7LWvzgtdn9Dw/0rkY8nksHNDAVggV+r9H/LHoukqhMQLdbWOC35zQS3U7HIG+FiFwtbk/ZDmviLproVRauxgGxe8m4AAv8vvdS72g0P03sLLk66MFUFNZhoBRndAQ4E7ma6MHBysA6DFRWo8l6do3Qg6kokau9AQAvZOnRXBAzcUCU9MouG5P16mo0Py1HIzzsWGHioHEVAN6m6+Qt28zBHHYwRKHr+MtJKzz++as7GklrrupLh665PH1XI+Nr5dfo5mJ4/K1DOxq3FuVohEukHkLCGSYV0PX7SEnquRSOhDNMKljSaK16LllBA9NjGI43qFv2s7plP1XgTgZ9UD+IA/JB0grnktZc6Su55cnQmDe4fcB+9uGB4jWanyYf3FoM524tqtEIDUwPY/opfXhPihYREoA+tITFh5AumGgWoxGLDykHDUwfwNL8v2045HFWvnGnhDdnzBqcf8KOHHyYc8fFnoKl+X9775gajdiRgw83O24gGzQwfYzppzY7APcYO2y33mG4BVa/pNOruRm5GhqTHJhoims0WS9eo/8fAAD//7BDnqfZ2hPbAAAAAElFTkSuQmCC;" vertex="1" parent="1">
          <mxGeometry x="930" y="390" width="84" height="84" as="geometry" />
        </mxCell>
        <mxCell id="bGog2chpQkW4qfJzp0Gv-9" style="edgeStyle=orthogonalEdgeStyle;rounded=0;orthogonalLoop=1;jettySize=auto;html=1;dashed=1;strokeWidth=2;fillColor=#60a917;strokeColor=#2D7600;curved=1;" edge="1" parent="1" source="bGog2chpQkW4qfJzp0Gv-2" target="bGog2chpQkW4qfJzp0Gv-6">
          <mxGeometry relative="1" as="geometry">
            <Array as="points">
              <mxPoint x="750" y="451" />
              <mxPoint x="750" y="152" />
            </Array>
            <mxPoint x="758" y="313" as="sourcePoint" />
            <mxPoint x="1141" y="687" as="targetPoint" />
          </mxGeometry>
        </mxCell>
        <mxCell id="bGog2chpQkW4qfJzp0Gv-12" style="edgeStyle=orthogonalEdgeStyle;rounded=0;orthogonalLoop=1;jettySize=auto;html=1;dashed=1;strokeWidth=2;fillColor=#60a917;strokeColor=#2D7600;curved=1;entryX=0;entryY=0.75;entryDx=0;entryDy=0;exitX=1;exitY=0.5;exitDx=0;exitDy=0;" edge="1" parent="1" source="bGog2chpQkW4qfJzp0Gv-3" target="bGog2chpQkW4qfJzp0Gv-7">
          <mxGeometry relative="1" as="geometry">
            <Array as="points">
              <mxPoint x="760" y="529" />
              <mxPoint x="760" y="380" />
              <mxPoint x="870" y="380" />
              <mxPoint x="870" y="326" />
            </Array>
            <mxPoint x="707" y="461" as="sourcePoint" />
            <mxPoint x="940" y="162" as="targetPoint" />
          </mxGeometry>
        </mxCell>
        <mxCell id="bGog2chpQkW4qfJzp0Gv-13" style="edgeStyle=orthogonalEdgeStyle;rounded=0;orthogonalLoop=1;jettySize=auto;html=1;dashed=1;strokeWidth=2;fillColor=#60a917;strokeColor=#2D7600;curved=1;exitX=0;exitY=0.5;exitDx=0;exitDy=0;entryX=0;entryY=0.5;entryDx=0;entryDy=0;" edge="1" parent="1" source="bGog2chpQkW4qfJzp0Gv-1" target="bGog2chpQkW4qfJzp0Gv-8">
          <mxGeometry relative="1" as="geometry">
            <Array as="points">
              <mxPoint x="510" y="451" />
              <mxPoint x="510" y="620" />
              <mxPoint x="850" y="620" />
              <mxPoint x="850" y="432" />
            </Array>
            <mxPoint x="717" y="471" as="sourcePoint" />
            <mxPoint x="950" y="172" as="targetPoint" />
          </mxGeometry>
        </mxCell>
      </root>
    </mxGraphModel>
  </diagram>
</mxfile>
